<?xml version="1.0" encoding="UTF-8" standalone="no"?>
<!DOCTYPE svg PUBLIC "-//W3C//DTD SVG 1.1//EN"
 "http://www.w3.org/Graphics/SVG/1.1/DTD/svg11.dtd">
<!-- Generated by graphviz version 2.38.0 (20140413.2041)
 -->
<!-- Title: %3 Pages: 1 -->
<svg width="448pt" height="284pt"
 viewBox="0.00 0.00 448.27 283.91" xmlns="http://www.w3.org/2000/svg" xmlns:xlink="http://www.w3.org/1999/xlink">
<g id="graph0" class="graph" transform="scale(1 1) rotate(0) translate(4 279.907)">
<title>%3</title>
<polygon fill="white" stroke="none" points="-4,4 -4,-279.907 444.27,-279.907 444.27,4 -4,4"/>
<!-- Open -->
<g id="node1" class="node"><title>Open</title>
<polygon fill="lightgray" stroke="black" points="421.565,-203.329 384.565,-203.329 384.565,-185.329 421.565,-185.329 421.565,-203.329"/>
<text text-anchor="middle" x="403.065" y="-192.129" font-family="Times New Roman,serif" font-size="9.00">Open</text>
</g>
<!-- 36 -->
<g id="node10" class="node"><title>36</title>
<ellipse fill="white" stroke="black" cx="199.065" cy="-112.368" rx="18.2703" ry="18.2703"/>
<text text-anchor="middle" x="199.065" y="-110.168" font-family="Times New Roman,serif" font-size="9.00">36</text>
</g>
<!-- Open&#45;&gt;36 -->
<g id="edge1" class="edge"><title>Open&#45;&gt;36</title>
<path fill="none" stroke="green" stroke-width="0.865617" stroke-dasharray="1,5" d="M396.761,-185.293C391.737,-179.388 384.212,-171.583 376.065,-166.752 328.071,-138.294 263.64,-123.869 227.226,-117.541"/>
<polygon fill="green" stroke="green" stroke-width="0.865617" points="227.742,-114.078 217.305,-115.898 226.599,-120.984 227.742,-114.078"/>
</g>
<!-- High -->
<g id="node2" class="node"><title>High</title>
<polygon fill="lightgray" stroke="black" points="112.065,-275.907 78.0651,-275.907 78.0651,-257.907 112.065,-257.907 112.065,-275.907"/>
<text text-anchor="middle" x="95.0651" y="-264.707" font-family="Times New Roman,serif" font-size="9.00">High</text>
</g>
<!-- Decide -->
<g id="node8" class="node"><title>Decide</title>
<ellipse fill="lightblue" stroke="black" cx="45.0651" cy="-28.9914" rx="28.9828" ry="28.9828"/>
<text text-anchor="middle" x="45.0651" y="-26.7914" font-family="Times New Roman,serif" font-size="9.00">Decide</text>
</g>
<!-- High&#45;&gt;Decide -->
<g id="edge10" class="edge"><title>High&#45;&gt;Decide</title>
<path fill="none" stroke="red" stroke-width="0.277118" d="M77.8037,-262.075C58.398,-256.742 27.8093,-245.014 14.0651,-221.907 -15.2453,-172.629 7.99608,-104.24 26.95,-63.8047"/>
<polygon fill="red" stroke="red" stroke-width="0.277118" points="30.179,-65.1675 31.3966,-54.6429 23.8815,-62.1111 30.179,-65.1675"/>
</g>
<!-- High&#45;&gt;36 -->
<g id="edge2" class="edge"><title>High&#45;&gt;36</title>
<path fill="none" stroke="green" stroke-width="0.647827" d="M100.657,-257.705C116.071,-235.097 159.596,-171.258 183.264,-136.544"/>
<polygon fill="green" stroke="green" stroke-width="0.647827" points="186.358,-138.219 189.099,-127.985 180.574,-134.276 186.358,-138.219"/>
</g>
<!-- 10237 -->
<g id="node12" class="node"><title>10237</title>
<ellipse fill="white" stroke="black" cx="227.065" cy="-194.329" rx="27.6545" ry="27.6545"/>
<text text-anchor="middle" x="227.065" y="-192.129" font-family="Times New Roman,serif" font-size="9.00">10237</text>
</g>
<!-- High&#45;&gt;10237 -->
<g id="edge13" class="edge"><title>High&#45;&gt;10237</title>
<path fill="none" stroke="red" stroke-width="0.404569" d="M110.207,-257.811C130.44,-246.993 166.852,-227.524 193.671,-213.185"/>
<polygon fill="red" stroke="red" stroke-width="0.404569" points="195.547,-216.151 202.715,-208.349 192.246,-209.978 195.547,-216.151"/>
</g>
<!-- Low -->
<g id="node3" class="node"><title>Low</title>
<polygon fill="lightgray" stroke="black" points="170.565,-275.907 137.565,-275.907 137.565,-257.907 170.565,-257.907 170.565,-275.907"/>
<text text-anchor="middle" x="154.065" y="-264.707" font-family="Times New Roman,serif" font-size="9.00">Low</text>
</g>
<!-- Low&#45;&gt;36 -->
<g id="edge3" class="edge"><title>Low&#45;&gt;36</title>
<path fill="none" stroke="red" stroke-width="0.140436" d="M156.297,-257.653C160.925,-240.614 171.981,-200.33 182.065,-166.752 184.72,-157.914 187.741,-148.294 190.494,-139.687"/>
<polygon fill="red" stroke="red" stroke-width="0.140436" points="193.83,-140.745 193.563,-130.154 187.167,-138.6 193.83,-140.745"/>
</g>
<!-- Low&#45;&gt;10237 -->
<g id="edge22" class="edge"><title>Low&#45;&gt;10237</title>
<path fill="none" stroke="red" stroke-width="0.45213" d="M162.439,-257.811C171.666,-248.89 186.977,-234.087 200.381,-221.128"/>
<polygon fill="red" stroke="red" stroke-width="0.45213" points="202.824,-223.635 207.58,-214.168 197.958,-218.602 202.824,-223.635"/>
</g>
<!-- Close -->
<g id="node4" class="node"><title>Close</title>
<polygon fill="lightgray" stroke="black" points="238.565,-275.907 201.565,-275.907 201.565,-257.907 238.565,-257.907 238.565,-275.907"/>
<text text-anchor="middle" x="220.065" y="-264.707" font-family="Times New Roman,serif" font-size="9.00">Close</text>
</g>
<!-- Close&#45;&gt;36 -->
<g id="edge4" class="edge"><title>Close&#45;&gt;36</title>
<path fill="none" stroke="green" stroke-width="0.474382" stroke-dasharray="1,5" d="M212.135,-257.636C204.789,-249.354 194.371,-235.866 190.065,-221.907 181.741,-194.922 186.193,-162.482 191.346,-140.136"/>
<polygon fill="green" stroke="green" stroke-width="0.474382" points="194.765,-140.891 193.8,-130.34 187.975,-139.19 194.765,-140.891"/>
</g>
<!-- Close&#45;&gt;10237 -->
<g id="edge17" class="edge"><title>Close&#45;&gt;10237</title>
<path fill="none" stroke="green" stroke-width="0.499157" d="M220.868,-257.811C221.513,-251.307 222.468,-241.678 223.436,-231.916"/>
<polygon fill="green" stroke="green" stroke-width="0.499157" points="226.934,-232.117 224.438,-221.82 219.968,-231.426 226.934,-232.117"/>
</g>
<!-- Volume -->
<g id="node5" class="node"><title>Volume</title>
<polygon fill="lightgray" stroke="black" points="67.0651,-203.329 23.0651,-203.329 23.0651,-185.329 67.0651,-185.329 67.0651,-203.329"/>
<text text-anchor="middle" x="45.0651" y="-192.129" font-family="Times New Roman,serif" font-size="9.00">Volume</text>
</g>
<!-- Volume&#45;&gt;Decide -->
<g id="edge12" class="edge"><title>Volume&#45;&gt;Decide</title>
<path fill="none" stroke="red" stroke-width="0.341572" d="M45.0651,-185.005C45.0651,-163.91 45.0651,-107.29 45.0651,-68.6472"/>
<polygon fill="red" stroke="red" stroke-width="0.341572" points="48.5652,-68.2693 45.0651,-58.2693 41.5652,-68.2694 48.5652,-68.2693"/>
</g>
<!-- Volume&#45;&gt;36 -->
<g id="edge5" class="edge"><title>Volume&#45;&gt;36</title>
<path fill="none" stroke="green" stroke-width="0.782629" stroke-dasharray="1,5" d="M54.7624,-185.293C61.7963,-179.687 71.6833,-172.254 81.0651,-166.752 111.238,-149.057 148.315,-133.154 172.762,-123.4"/>
<polygon fill="green" stroke="green" stroke-width="0.782629" points="174.071,-126.646 182.097,-119.729 171.51,-120.131 174.071,-126.646"/>
</g>
<!-- Shares -->
<g id="node6" class="node"><title>Shares</title>
<polygon fill="lightgray" stroke="black" points="303.065,-275.907 263.065,-275.907 263.065,-257.907 303.065,-257.907 303.065,-275.907"/>
<text text-anchor="middle" x="283.065" y="-264.707" font-family="Times New Roman,serif" font-size="9.00">Shares</text>
</g>
<!-- 12035 -->
<g id="node9" class="node"><title>12035</title>
<ellipse fill="white" stroke="black" cx="339.065" cy="-194.329" rx="27.6545" ry="27.6545"/>
<text text-anchor="middle" x="339.065" y="-192.129" font-family="Times New Roman,serif" font-size="9.00">12035</text>
</g>
<!-- Shares&#45;&gt;12035 -->
<g id="edge20" class="edge"><title>Shares&#45;&gt;12035</title>
<path fill="none" stroke="red" stroke-width="0.425373" d="M289.489,-257.811C295.932,-249.691 306.241,-236.698 315.794,-224.658"/>
<polygon fill="red" stroke="red" stroke-width="0.425373" points="318.756,-226.556 322.23,-216.547 313.273,-222.205 318.756,-226.556"/>
</g>
<!-- Shares&#45;&gt;36 -->
<g id="edge6" class="edge"><title>Shares&#45;&gt;36</title>
<path fill="none" stroke="red" stroke-width="0.743969" stroke-dasharray="1,5" d="M283.309,-257.808C283.482,-240.02 281.886,-196.736 264.065,-166.752 254.334,-150.379 237.646,-136.833 223.616,-127.482"/>
<polygon fill="red" stroke="red" stroke-width="0.743969" points="225.202,-124.344 214.88,-121.956 221.46,-130.26 225.202,-124.344"/>
</g>
<!-- Shares&#45;&gt;10237 -->
<g id="edge16" class="edge"><title>Shares&#45;&gt;10237</title>
<path fill="none" stroke="green" stroke-width="0.428807" d="M276.641,-257.811C270.199,-249.691 259.889,-236.698 250.336,-224.658"/>
<polygon fill="green" stroke="green" stroke-width="0.428807" points="252.858,-222.205 243.9,-216.547 247.374,-226.556 252.858,-222.205"/>
</g>
<!-- Money -->
<g id="node7" class="node"><title>Money</title>
<polygon fill="lightgray" stroke="black" points="418.065,-275.907 374.065,-275.907 374.065,-257.907 418.065,-257.907 418.065,-275.907"/>
<text text-anchor="middle" x="396.065" y="-264.707" font-family="Times New Roman,serif" font-size="9.00">Money</text>
</g>
<!-- Money&#45;&gt;36 -->
<g id="edge11" class="edge"><title>Money&#45;&gt;36</title>
<path fill="none" stroke="green" stroke-width="0.503739" d="M405.29,-257.9C413.84,-249.815 425.981,-236.467 431.065,-221.907 439.147,-198.764 446.332,-185.931 431.065,-166.752 405.916,-135.159 283.988,-120.692 227.678,-115.614"/>
<polygon fill="green" stroke="green" stroke-width="0.503739" points="227.916,-112.122 217.652,-114.747 227.313,-119.096 227.916,-112.122"/>
</g>
<!-- Money&#45;&gt;10237 -->
<g id="edge15" class="edge"><title>Money&#45;&gt;10237</title>
<path fill="none" stroke="green" stroke-width="0.406727" d="M376.679,-257.811C348.624,-246.095 296.273,-224.232 261.541,-209.727"/>
<polygon fill="green" stroke="green" stroke-width="0.406727" points="262.823,-206.47 252.246,-205.846 260.125,-212.929 262.823,-206.47"/>
</g>
<!-- Decide&#45;&gt;Decide -->
<g id="edge8" class="edge"><title>Decide&#45;&gt;Decide</title>
<path fill="none" stroke="red" stroke-width="0.245928" d="M70.2048,-44.0623C81.867,-45.7064 92.0565,-40.6828 92.0565,-28.9914 92.0565,-20.9535 87.2404,-16.0673 80.4407,-14.3325"/>
<polygon fill="red" stroke="red" stroke-width="0.245928" points="80.3376,-10.8256 70.2048,-13.9204 80.0559,-17.82 80.3376,-10.8256"/>
</g>
<!-- 12035&#45;&gt;36 -->
<g id="edge21" class="edge"><title>12035&#45;&gt;36</title>
<path fill="none" stroke="red" stroke-width="0.655874" d="M316.125,-178.434C309.983,-174.55 303.314,-170.426 297.065,-166.752 272.665,-152.407 244.198,-137.049 224.252,-126.506"/>
<polygon fill="red" stroke="red" stroke-width="0.655874" points="225.68,-123.302 215.201,-121.742 222.42,-129.496 225.68,-123.302"/>
</g>
<!-- 36&#45;&gt;Decide -->
<g id="edge7" class="edge"><title>36&#45;&gt;Decide</title>
<path fill="none" stroke="red" stroke-width="0.449198" d="M183.164,-102.965C158.894,-90.1403 112.019,-65.371 79.6618,-48.2728"/>
<polygon fill="red" stroke="red" stroke-width="0.449198" points="81.0164,-45.03 70.5396,-43.4525 77.7459,-51.2191 81.0164,-45.03"/>
</g>
<!-- 36&#45;&gt;36 -->
<g id="edge9" class="edge"><title>36&#45;&gt;36</title>
<path fill="none" stroke="red" stroke-width="0.492969" stroke-dasharray="1,5" d="M212.5,-125.079C223.723,-130.511 235.45,-126.274 235.45,-112.368 235.45,-102.59 229.652,-97.5922 222.309,-97.3749"/>
<polygon fill="red" stroke="red" stroke-width="0.492969" points="221.447,-93.9819 212.5,-99.6564 223.033,-100.8 221.447,-93.9819"/>
</g>
<!-- 11895 -->
<g id="node11" class="node"><title>11895</title>
<ellipse fill="white" stroke="black" cx="199.065" cy="-28.9914" rx="27.6545" ry="27.6545"/>
<text text-anchor="middle" x="199.065" y="-26.7914" font-family="Times New Roman,serif" font-size="9.00">11895</text>
</g>
<!-- 36&#45;&gt;11895 -->
<g id="edge18" class="edge"><title>36&#45;&gt;11895</title>
<path fill="none" stroke="green" stroke-width="0.352974" d="M193.472,-94.5063C192.563,-86.283 192.19,-76.0549 192.352,-66.184"/>
<polygon fill="green" stroke="green" stroke-width="0.352974" points="195.852,-66.2455 192.715,-56.1259 188.856,-65.9932 195.852,-66.2455"/>
</g>
<!-- 11895&#45;&gt;36 -->
<g id="edge19" class="edge"><title>11895&#45;&gt;36</title>
<path fill="none" stroke="green" stroke-width="0.152248" d="M205.416,-56.1259C205.933,-65.1686 205.948,-75.316 205.461,-84.4226"/>
<polygon fill="green" stroke="green" stroke-width="0.152248" points="201.963,-84.2601 204.658,-94.5063 208.94,-84.8156 201.963,-84.2601"/>
</g>
<!-- 10237&#45;&gt;36 -->
<g id="edge14" class="edge"><title>10237&#45;&gt;36</title>
<path fill="none" stroke="red" stroke-width="0.38783" stroke-dasharray="1,5" d="M218.206,-168.029C215.039,-158.987 211.466,-148.781 208.271,-139.657"/>
<polygon fill="red" stroke="red" stroke-width="0.38783" points="211.475,-138.217 204.867,-129.936 204.868,-140.531 211.475,-138.217"/>
</g>
</g>
</svg>
