<?xml version="1.0" encoding="UTF-8" standalone="no"?>
<!DOCTYPE svg PUBLIC "-//W3C//DTD SVG 1.1//EN"
 "http://www.w3.org/Graphics/SVG/1.1/DTD/svg11.dtd">
<!-- Generated by graphviz version 2.38.0 (20140413.2041)
 -->
<!-- Title: %3 Pages: 1 -->
<svg width="1463pt" height="839pt"
 viewBox="0.00 0.00 1462.85 839.32" xmlns="http://www.w3.org/2000/svg" xmlns:xlink="http://www.w3.org/1999/xlink">
<g id="graph0" class="graph" transform="scale(1 1) rotate(0) translate(4 835.318)">
<title>%3</title>
<polygon fill="white" stroke="none" points="-4,4 -4,-835.318 1458.85,-835.318 1458.85,4 -4,4"/>
<!-- Open -->
<g id="node1" class="node"><title>Open</title>
<polygon fill="lightgray" stroke="black" points="242.5,-831.318 205.5,-831.318 205.5,-813.318 242.5,-813.318 242.5,-831.318"/>
<text text-anchor="middle" x="224" y="-820.118" font-family="Times New Roman,serif" font-size="9.00">Open</text>
</g>
<!-- 2023 -->
<g id="node14" class="node"><title>2023</title>
<ellipse fill="white" stroke="black" cx="1100" cy="-204.229" rx="25" ry="25"/>
<text text-anchor="middle" x="1100" y="-202.029" font-family="Times New Roman,serif" font-size="9.00">2023</text>
</g>
<!-- Open&#45;&gt;2023 -->
<g id="edge1" class="edge"><title>Open&#45;&gt;2023</title>
<path fill="none" stroke="red" stroke-width="0.67221" stroke-dasharray="1,5" d="M205.287,-817.735C151.451,-806.235 0,-765.016 0,-665.243 0,-665.243 0,-665.243 0,-572.089 0,-413.2 37.0994,-327.896 183,-264.978 265.165,-229.545 907.563,-210.329 1065.17,-206.118"/>
<polygon fill="red" stroke="red" stroke-width="0.67221" points="1065.35,-209.615 1075.26,-205.852 1065.17,-202.617 1065.35,-209.615"/>
</g>
<!-- 2024 -->
<g id="node15" class="node"><title>2024</title>
<ellipse fill="white" stroke="black" cx="479" cy="-752.569" rx="25" ry="25"/>
<text text-anchor="middle" x="479" y="-750.369" font-family="Times New Roman,serif" font-size="9.00">2024</text>
</g>
<!-- Open&#45;&gt;2024 -->
<g id="edge2" class="edge"><title>Open&#45;&gt;2024</title>
<path fill="none" stroke="green" stroke-width="0.152194" d="M242.618,-818.374C288.076,-811.051 403.662,-791.578 440,-777.318 443.45,-775.964 446.94,-774.313 450.342,-772.518"/>
<polygon fill="green" stroke="green" stroke-width="0.152194" points="452.106,-775.541 459.047,-767.536 448.629,-769.465 452.106,-775.541"/>
</g>
<!-- 2027 -->
<g id="node18" class="node"><title>2027</title>
<ellipse fill="white" stroke="black" cx="774" cy="-573.089" rx="25" ry="25"/>
<text text-anchor="middle" x="774" y="-570.889" font-family="Times New Roman,serif" font-size="9.00">2027</text>
</g>
<!-- Open&#45;&gt;2027 -->
<g id="edge3" class="edge"><title>Open&#45;&gt;2027</title>
<path fill="none" stroke="red" stroke-width="0.150496" d="M242.799,-818.195C272.621,-812.755 332.094,-799.907 378,-777.318 411.219,-760.972 410.921,-742.288 445,-727.82 533.779,-690.132 573.536,-736.52 659,-691.82 680.615,-680.515 724.553,-631.919 751.423,-600.804"/>
<polygon fill="red" stroke="red" stroke-width="0.150496" points="754.332,-602.788 758.189,-592.92 749.02,-598.229 754.332,-602.788"/>
</g>
<!-- 2029 -->
<g id="node20" class="node"><title>2029</title>
<ellipse fill="white" stroke="black" cx="612" cy="-573.089" rx="25" ry="25"/>
<text text-anchor="middle" x="612" y="-570.889" font-family="Times New Roman,serif" font-size="9.00">2029</text>
</g>
<!-- Open&#45;&gt;2029 -->
<g id="edge4" class="edge"><title>Open&#45;&gt;2029</title>
<path fill="none" stroke="green" stroke-width="0.674227" d="M242.527,-813.8C283.713,-796.506 384.77,-750.818 455,-691.82 479.224,-671.471 474.949,-655.988 500,-636.666 530.552,-613.1 546.162,-620.926 579,-600.666 581.191,-599.314 583.4,-597.835 585.581,-596.289"/>
<polygon fill="green" stroke="green" stroke-width="0.674227" points="587.881,-598.938 593.756,-590.12 583.665,-593.35 587.881,-598.938"/>
</g>
<!-- 2030 -->
<g id="node21" class="node"><title>2030</title>
<ellipse fill="white" stroke="black" cx="416" cy="-387.245" rx="25" ry="25"/>
<text text-anchor="middle" x="416" y="-385.045" font-family="Times New Roman,serif" font-size="9.00">2030</text>
</g>
<!-- Open&#45;&gt;2030 -->
<g id="edge5" class="edge"><title>Open&#45;&gt;2030</title>
<path fill="none" stroke="red" stroke-width="0.244624" d="M223.088,-813.053C218.828,-770.308 204.669,-571.792 294,-454.357 316.083,-425.327 354.719,-407.51 382.604,-397.797"/>
<polygon fill="red" stroke="red" stroke-width="0.244624" points="383.944,-401.041 392.341,-394.58 381.747,-394.394 383.944,-401.041"/>
</g>
<!-- 11167 -->
<g id="node27" class="node"><title>11167</title>
<ellipse fill="white" stroke="black" cx="322" cy="-573.089" rx="27.6545" ry="27.6545"/>
<text text-anchor="middle" x="322" y="-570.889" font-family="Times New Roman,serif" font-size="9.00">11167</text>
</g>
<!-- Open&#45;&gt;11167 -->
<g id="edge66" class="edge"><title>Open&#45;&gt;11167</title>
<path fill="none" stroke="green" stroke-width="0.252395" d="M227.261,-813.092C239.787,-781.49 285.272,-666.743 308.358,-608.504"/>
<polygon fill="green" stroke="green" stroke-width="0.252395" points="311.698,-609.577 312.129,-598.99 305.19,-606.997 311.698,-609.577"/>
</g>
<!-- High -->
<g id="node2" class="node"><title>High</title>
<polygon fill="lightgray" stroke="black" points="650,-673.243 616,-673.243 616,-655.243 650,-655.243 650,-673.243"/>
<text text-anchor="middle" x="633" y="-662.043" font-family="Times New Roman,serif" font-size="9.00">High</text>
</g>
<!-- 7008 -->
<g id="node9" class="node"><title>7008</title>
<ellipse fill="white" stroke="black" cx="545" cy="-573.089" rx="25" ry="25"/>
<text text-anchor="middle" x="545" y="-570.889" font-family="Times New Roman,serif" font-size="9.00">7008</text>
</g>
<!-- High&#45;&gt;7008 -->
<g id="edge49" class="edge"><title>High&#45;&gt;7008</title>
<path fill="none" stroke="green" stroke-width="0.551645" stroke-dasharray="1,5" d="M624.879,-655.016C612.333,-642.305 587.745,-617.394 569.146,-598.551"/>
<polygon fill="green" stroke="green" stroke-width="0.551645" points="571.614,-596.069 562.098,-591.411 566.632,-600.987 571.614,-596.069"/>
</g>
<!-- High&#45;&gt;2023 -->
<g id="edge6" class="edge"><title>High&#45;&gt;2023</title>
<path fill="none" stroke="green" stroke-width="0.225504" d="M639.71,-654.88C649.166,-643.008 666.841,-620.503 681,-600.666 726.325,-537.163 724.883,-511.503 778,-454.357 872.289,-352.917 1010.88,-260.814 1070.72,-223.181"/>
<polygon fill="green" stroke="green" stroke-width="0.225504" points="1072.67,-226.09 1079.29,-217.822 1068.96,-220.153 1072.67,-226.09"/>
</g>
<!-- 10215 -->
<g id="node17" class="node"><title>10215</title>
<ellipse fill="white" stroke="black" cx="665" cy="-481.935" rx="27.6545" ry="27.6545"/>
<text text-anchor="middle" x="665" y="-479.735" font-family="Times New Roman,serif" font-size="9.00">10215</text>
</g>
<!-- High&#45;&gt;10215 -->
<g id="edge59" class="edge"><title>High&#45;&gt;10215</title>
<path fill="none" stroke="green" stroke-width="0.282125" stroke-dasharray="1,5" d="M638.485,-655.202C645.961,-643.711 658.991,-621.658 664,-600.666 670.335,-574.114 670.333,-543.226 668.881,-519.751"/>
<polygon fill="green" stroke="green" stroke-width="0.282125" points="672.353,-519.246 668.13,-509.529 665.372,-519.759 672.353,-519.246"/>
</g>
<!-- High&#45;&gt;2027 -->
<g id="edge7" class="edge"><title>High&#45;&gt;2027</title>
<path fill="none" stroke="green" stroke-width="0.579641" stroke-dasharray="1,5" d="M641.244,-655.214C647.25,-649.611 655.748,-642.18 664,-636.666 693.418,-617.011 704.541,-618.665 735,-600.666 738.472,-598.614 742.05,-596.369 745.566,-594.081"/>
<polygon fill="green" stroke="green" stroke-width="0.579641" points="747.712,-596.857 754.08,-588.389 743.821,-591.037 747.712,-596.857"/>
</g>
<!-- High&#45;&gt;2029 -->
<g id="edge8" class="edge"><title>High&#45;&gt;2029</title>
<path fill="none" stroke="green" stroke-width="0.2317" d="M631.062,-655.016C628.516,-644.205 623.891,-624.57 619.834,-607.348"/>
<polygon fill="green" stroke="green" stroke-width="0.2317" points="623.231,-606.503 617.531,-597.571 616.417,-608.108 623.231,-606.503"/>
</g>
<!-- Low -->
<g id="node3" class="node"><title>Low</title>
<polygon fill="lightgray" stroke="black" points="1059.5,-673.243 1026.5,-673.243 1026.5,-655.243 1059.5,-655.243 1059.5,-673.243"/>
<text text-anchor="middle" x="1043" y="-662.043" font-family="Times New Roman,serif" font-size="9.00">Low</text>
</g>
<!-- Decide -->
<g id="node8" class="node"><title>Decide</title>
<ellipse fill="lightblue" stroke="black" cx="665" cy="-114.489" rx="28.9828" ry="28.9828"/>
<text text-anchor="middle" x="665" y="-112.289" font-family="Times New Roman,serif" font-size="9.00">Decide</text>
</g>
<!-- Low&#45;&gt;Decide -->
<g id="edge46" class="edge"><title>Low&#45;&gt;Decide</title>
<path fill="none" stroke="red" stroke-width="1.60624" d="M1049.82,-655.216C1066.53,-635.713 1111.11,-584.568 1152,-545.512 1276.47,-426.622 1520.47,-404.015 1419,-264.978 1333.23,-147.456 846.579,-121.682 704.155,-116.623"/>
<polygon fill="red" stroke="red" stroke-width="1.60624" points="704.234,-113.123 694.121,-116.281 703.996,-120.119 704.234,-113.123"/>
</g>
<!-- 2021 -->
<g id="node13" class="node"><title>2021</title>
<ellipse fill="white" stroke="black" cx="665" cy="-292.555" rx="25" ry="25"/>
<text text-anchor="middle" x="665" y="-290.355" font-family="Times New Roman,serif" font-size="9.00">2021</text>
</g>
<!-- Low&#45;&gt;2021 -->
<g id="edge9" class="edge"><title>Low&#45;&gt;2021</title>
<path fill="none" stroke="green" stroke-width="0.66546" stroke-dasharray="1,5" d="M1044.54,-655.183C1046.71,-643.304 1050.59,-620.372 1052,-600.666 1056.91,-531.978 1051.22,-501.475 1001,-454.357 909.675,-368.675 764.264,-320.611 698.842,-302.279"/>
<polygon fill="green" stroke="green" stroke-width="0.66546" points="699.619,-298.863 689.049,-299.591 697.766,-305.613 699.619,-298.863"/>
</g>
<!-- Low&#45;&gt;2023 -->
<g id="edge10" class="edge"><title>Low&#45;&gt;2023</title>
<path fill="none" stroke="green" stroke-width="0.154559" stroke-dasharray="1,5" d="M1059.63,-658.522C1083.96,-650.71 1128.88,-632.687 1152,-600.666 1183.26,-557.371 1176,-536.336 1176,-482.935 1176,-482.935 1176,-482.935 1176,-386.245 1176,-328.362 1142.55,-267.616 1120.04,-233.278"/>
<polygon fill="green" stroke="green" stroke-width="0.154559" points="1122.78,-231.077 1114.3,-224.726 1116.96,-234.979 1122.78,-231.077"/>
</g>
<!-- 6280 -->
<g id="node16" class="node"><title>6280</title>
<ellipse fill="white" stroke="black" cx="924" cy="-481.935" rx="25" ry="25"/>
<text text-anchor="middle" x="924" y="-479.735" font-family="Times New Roman,serif" font-size="9.00">6280</text>
</g>
<!-- Low&#45;&gt;6280 -->
<g id="edge56" class="edge"><title>Low&#45;&gt;6280</title>
<path fill="none" stroke="green" stroke-width="0.179365" stroke-dasharray="1,5" d="M1042.05,-655.081C1039.37,-634.835 1030.19,-581.359 1005,-545.512 991.774,-526.693 971.215,-510.907 954.12,-499.897"/>
<polygon fill="green" stroke="green" stroke-width="0.179365" points="955.896,-496.881 945.553,-494.585 952.207,-502.83 955.896,-496.881"/>
</g>
<!-- Low&#45;&gt;2027 -->
<g id="edge11" class="edge"><title>Low&#45;&gt;2027</title>
<path fill="none" stroke="red" stroke-width="0.260833" d="M1026.17,-657.666C982.553,-643.21 865.205,-604.317 807.278,-585.118"/>
<polygon fill="red" stroke="red" stroke-width="0.260833" points="808.108,-581.706 797.515,-581.882 805.906,-588.351 808.108,-581.706"/>
</g>
<!-- Low&#45;&gt;2029 -->
<g id="edge12" class="edge"><title>Low&#45;&gt;2029</title>
<path fill="none" stroke="red" stroke-width="0.159776" d="M1026.25,-659.79C980.421,-650.342 849.142,-623.267 740,-600.666 708.161,-594.073 671.871,-586.536 646.083,-581.176"/>
<polygon fill="red" stroke="red" stroke-width="0.159776" points="646.565,-577.701 636.062,-579.093 645.14,-584.555 646.565,-577.701"/>
</g>
<!-- Low&#45;&gt;2030 -->
<g id="edge13" class="edge"><title>Low&#45;&gt;2030</title>
<path fill="none" stroke="green" stroke-width="0.287706" d="M1043.81,-655.155C1045.44,-635.517 1047.75,-584.094 1032,-545.512 1012.28,-497.199 1003.67,-479.61 958,-454.357 870.18,-405.794 556.878,-392.337 451.143,-389.135"/>
<polygon fill="green" stroke="green" stroke-width="0.287706" points="451.098,-385.633 441.001,-388.841 450.895,-392.63 451.098,-385.633"/>
</g>
<!-- 11541 -->
<g id="node25" class="node"><title>11541</title>
<ellipse fill="white" stroke="black" cx="901" cy="-573.089" rx="27.6545" ry="27.6545"/>
<text text-anchor="middle" x="901" y="-570.889" font-family="Times New Roman,serif" font-size="9.00">11541</text>
</g>
<!-- Low&#45;&gt;11541 -->
<g id="edge69" class="edge"><title>Low&#45;&gt;11541</title>
<path fill="none" stroke="red" stroke-width="0.231661" d="M1028.31,-655.202C1007.58,-643.712 968.722,-621.659 937,-600.666 934.903,-599.278 932.76,-597.816 930.617,-596.321"/>
<polygon fill="red" stroke="red" stroke-width="0.231661" points="932.616,-593.447 922.446,-590.477 928.544,-599.141 932.616,-593.447"/>
</g>
<!-- Close -->
<g id="node4" class="node"><title>Close</title>
<polygon fill="lightgray" stroke="black" points="326.5,-831.318 289.5,-831.318 289.5,-813.318 326.5,-813.318 326.5,-831.318"/>
<text text-anchor="middle" x="308" y="-820.118" font-family="Times New Roman,serif" font-size="9.00">Close</text>
</g>
<!-- 126465 -->
<g id="node11" class="node"><title>126465</title>
<ellipse fill="white" stroke="black" cx="173" cy="-387.245" rx="31.2258" ry="31.2258"/>
<text text-anchor="middle" x="173" y="-385.045" font-family="Times New Roman,serif" font-size="9.00">126465</text>
</g>
<!-- Close&#45;&gt;126465 -->
<g id="edge79" class="edge"><title>Close&#45;&gt;126465</title>
<path fill="none" stroke="green" stroke-width="0.309607" d="M289.238,-814.259C251.519,-798.868 167.585,-758.249 138,-691.82 95.0619,-595.411 112.56,-556.785 138,-454.357 140.732,-443.356 145.67,-432.172 150.992,-422.207"/>
<polygon fill="green" stroke="green" stroke-width="0.309607" points="154.072,-423.87 155.934,-413.44 147.975,-420.432 154.072,-423.87"/>
</g>
<!-- Close&#45;&gt;2021 -->
<g id="edge14" class="edge"><title>Close&#45;&gt;2021</title>
<path fill="none" stroke="red" stroke-width="0.731637" d="M301.404,-813.124C295.008,-804.688 285.615,-790.895 281,-777.318 268.704,-741.142 274.003,-729.977 272,-691.82 266.444,-585.975 245.198,-548.445 294,-454.357 320.988,-402.327 331.397,-385.709 382,-356.132 462.196,-309.259 573.89,-297.447 629.954,-294.504"/>
<polygon fill="red" stroke="red" stroke-width="0.731637" points="630.249,-297.995 640.078,-294.039 629.927,-291.002 630.249,-297.995"/>
</g>
<!-- Close&#45;&gt;2023 -->
<g id="edge15" class="edge"><title>Close&#45;&gt;2023</title>
<path fill="none" stroke="green" stroke-width="0.696403" stroke-dasharray="1,5" d="M289.425,-817.792C253.935,-810.752 178.218,-794.177 158,-777.318 125.333,-750.078 126.399,-732.799 115,-691.82 74.958,-547.877 30.0141,-464.377 133,-356.132 264.233,-218.197 906.731,-206.118 1064.81,-205.249"/>
<polygon fill="green" stroke="green" stroke-width="0.696403" points="1064.94,-208.749 1074.93,-205.206 1064.91,-201.749 1064.94,-208.749"/>
</g>
<!-- Close&#45;&gt;2024 -->
<g id="edge16" class="edge"><title>Close&#45;&gt;2024</title>
<path fill="none" stroke="green" stroke-width="0.453236" d="M326.872,-816.474C352.96,-809.457 401.214,-795.311 440,-777.318 443.362,-775.758 446.797,-773.976 450.165,-772.105"/>
<polygon fill="green" stroke="green" stroke-width="0.453236" points="451.968,-775.105 458.833,-767.035 448.434,-769.063 451.968,-775.105"/>
</g>
<!-- Close&#45;&gt;2029 -->
<g id="edge17" class="edge"><title>Close&#45;&gt;2029</title>
<path fill="none" stroke="green" stroke-width="0.16369" stroke-dasharray="1,5" d="M326.619,-819.91C374.389,-815.954 499.734,-803.289 531,-777.318 558.048,-754.85 588.343,-658.57 603.038,-607.004"/>
<polygon fill="green" stroke="green" stroke-width="0.16369" points="606.423,-607.896 605.764,-597.322 599.685,-605.999 606.423,-607.896"/>
</g>
<!-- Close&#45;&gt;2030 -->
<g id="edge18" class="edge"><title>Close&#45;&gt;2030</title>
<path fill="none" stroke="green" stroke-width="0.39355" stroke-dasharray="1,5" d="M305.302,-813.017C294.698,-779.124 257.782,-648.153 285,-545.512 296.955,-500.428 307.089,-490.145 337,-454.357 351.613,-436.874 371.248,-420.418 387.287,-408.297"/>
<polygon fill="green" stroke="green" stroke-width="0.39355" points="389.808,-410.786 395.772,-402.03 385.649,-405.155 389.808,-410.786"/>
</g>
<!-- Volume -->
<g id="node5" class="node"><title>Volume</title>
<polygon fill="lightgray" stroke="black" points="1292,-831.318 1248,-831.318 1248,-813.318 1292,-813.318 1292,-831.318"/>
<text text-anchor="middle" x="1270" y="-820.118" font-family="Times New Roman,serif" font-size="9.00">Volume</text>
</g>
<!-- 64065 -->
<g id="node10" class="node"><title>64065</title>
<ellipse fill="white" stroke="black" cx="1382" cy="-292.555" rx="27.6545" ry="27.6545"/>
<text text-anchor="middle" x="1382" y="-290.355" font-family="Times New Roman,serif" font-size="9.00">64065</text>
</g>
<!-- Volume&#45;&gt;64065 -->
<g id="edge76" class="edge"><title>Volume&#45;&gt;64065</title>
<path fill="none" stroke="green" stroke-width="0.270324" d="M1292.21,-818.458C1316.94,-814.062 1356.28,-803.234 1378,-777.318 1410.72,-738.273 1402,-716.183 1402,-665.243 1402,-665.243 1402,-665.243 1402,-480.935 1402,-428.153 1394.06,-367.479 1388.18,-329.822"/>
<polygon fill="green" stroke="green" stroke-width="0.270324" points="1391.62,-329.161 1386.59,-319.837 1384.71,-330.264 1391.62,-329.161"/>
</g>
<!-- Volume&#45;&gt;2021 -->
<g id="edge19" class="edge"><title>Volume&#45;&gt;2021</title>
<path fill="none" stroke="red" stroke-width="0.106705" d="M1274.54,-813.301C1293.68,-778.33 1364.22,-636.799 1307,-545.512 1170.86,-328.306 813.412,-298.18 700.034,-294.138"/>
<polygon fill="red" stroke="red" stroke-width="0.106705" points="699.942,-290.634 689.839,-293.823 699.726,-297.63 699.942,-290.634"/>
</g>
<!-- Volume&#45;&gt;2023 -->
<g id="edge20" class="edge"><title>Volume&#45;&gt;2023</title>
<path fill="none" stroke="red" stroke-width="0.122175" stroke-dasharray="1,5" d="M1292.13,-820.179C1321.84,-817.459 1374.43,-808.273 1405,-777.318 1441.67,-740.191 1440,-717.427 1440,-665.243 1440,-665.243 1440,-665.243 1440,-480.935 1440,-384.501 1484.12,-336.107 1419,-264.978 1381.2,-223.682 1209.85,-210.495 1135.08,-206.662"/>
<polygon fill="red" stroke="red" stroke-width="0.122175" points="1134.93,-203.151 1124.78,-206.162 1134.59,-210.142 1134.93,-203.151"/>
</g>
<!-- Volume&#45;&gt;2024 -->
<g id="edge21" class="edge"><title>Volume&#45;&gt;2024</title>
<path fill="none" stroke="green" stroke-width="0.388109" stroke-dasharray="1,5" d="M1247.6,-819.399C1137.08,-809.933 649.755,-768.194 514.134,-756.578"/>
<polygon fill="green" stroke="green" stroke-width="0.388109" points="514.166,-753.068 503.904,-755.702 513.569,-760.043 514.166,-753.068"/>
</g>
<!-- Volume&#45;&gt;2027 -->
<g id="edge22" class="edge"><title>Volume&#45;&gt;2027</title>
<path fill="none" stroke="red" stroke-width="0.266798" d="M1253.78,-813.233C1182.92,-777.912 899.852,-636.819 805.089,-589.585"/>
<polygon fill="red" stroke="red" stroke-width="0.266798" points="806.52,-586.388 796.009,-585.059 803.397,-592.652 806.52,-586.388"/>
</g>
<!-- Volume&#45;&gt;2029 -->
<g id="edge23" class="edge"><title>Volume&#45;&gt;2029</title>
<path fill="none" stroke="red" stroke-width="0.315035" d="M1247.89,-817.633C1212.33,-811.379 1140.5,-797.381 1082,-777.318 995.939,-747.803 975.934,-735.275 896,-691.82 855.777,-669.954 850.493,-656.013 809,-636.666 754.098,-611.067 685.944,-592.019 645.886,-582.013"/>
<polygon fill="red" stroke="red" stroke-width="0.315035" points="646.637,-578.594 636.091,-579.607 644.968,-585.392 646.637,-578.594"/>
</g>
<!-- 8525 -->
<g id="node22" class="node"><title>8525</title>
<ellipse fill="white" stroke="black" cx="1270" cy="-664.243" rx="25" ry="25"/>
<text text-anchor="middle" x="1270" y="-662.043" font-family="Times New Roman,serif" font-size="9.00">8525</text>
</g>
<!-- Volume&#45;&gt;8525 -->
<g id="edge53" class="edge"><title>Volume&#45;&gt;8525</title>
<path fill="none" stroke="green" stroke-width="0.370357" stroke-dasharray="1,5" d="M1270,-812.927C1270,-791.892 1270,-735.98 1270,-699.305"/>
<polygon fill="green" stroke="green" stroke-width="0.370357" points="1273.5,-699.059 1270,-689.059 1266.5,-699.059 1273.5,-699.059"/>
</g>
<!-- Shares -->
<g id="node6" class="node"><title>Shares</title>
<polygon fill="lightgray" stroke="black" points="446,-673.243 406,-673.243 406,-655.243 446,-655.243 446,-673.243"/>
<text text-anchor="middle" x="426" y="-662.043" font-family="Times New Roman,serif" font-size="9.00">Shares</text>
</g>
<!-- Shares&#45;&gt;7008 -->
<g id="edge52" class="edge"><title>Shares&#45;&gt;7008</title>
<path fill="none" stroke="green" stroke-width="0.317379" stroke-dasharray="1,5" d="M436.356,-655.023C443.061,-649.732 452.002,-642.734 460,-636.666 478.896,-622.33 500.414,-606.493 517.071,-594.338"/>
<polygon fill="green" stroke="green" stroke-width="0.317379" points="519.277,-597.062 525.3,-588.345 515.156,-591.404 519.277,-597.062"/>
</g>
<!-- Shares&#45;&gt;2021 -->
<g id="edge24" class="edge"><title>Shares&#45;&gt;2021</title>
<path fill="none" stroke="red" stroke-width="0.545936" d="M427.924,-655.157C432.795,-635.522 446.759,-584.106 468,-545.512 518.157,-454.38 600.403,-361.699 640.913,-318.539"/>
<polygon fill="red" stroke="red" stroke-width="0.545936" points="643.648,-320.74 647.974,-311.068 638.561,-315.932 643.648,-320.74"/>
</g>
<!-- Shares&#45;&gt;6280 -->
<g id="edge55" class="edge"><title>Shares&#45;&gt;6280</title>
<path fill="none" stroke="green" stroke-width="0.534135" d="M431.642,-655.049C449.688,-628.891 505.166,-548.894 511,-545.512 642.849,-469.085 703.594,-544.166 852,-509.512 865.515,-506.356 879.951,-501.369 892.321,-496.563"/>
<polygon fill="green" stroke="green" stroke-width="0.534135" points="893.763,-499.755 901.742,-492.785 891.158,-493.258 893.763,-499.755"/>
</g>
<!-- Shares&#45;&gt;2027 -->
<g id="edge25" class="edge"><title>Shares&#45;&gt;2027</title>
<path fill="none" stroke="green" stroke-width="0.184345" stroke-dasharray="1,5" d="M446.214,-658.065C503.731,-643.329 668.743,-601.055 740.265,-582.732"/>
<polygon fill="green" stroke="green" stroke-width="0.184345" points="741.296,-586.08 750.115,-580.208 739.559,-579.299 741.296,-586.08"/>
</g>
<!-- Shares&#45;&gt;2029 -->
<g id="edge26" class="edge"><title>Shares&#45;&gt;2029</title>
<path fill="none" stroke="red" stroke-width="0.204717" stroke-dasharray="1,5" d="M434.604,-655.041C441.128,-649.207 450.557,-641.566 460,-636.666 509.047,-611.218 530.139,-626.47 579,-600.666 581.277,-599.464 583.548,-598.093 585.772,-596.623"/>
<polygon fill="red" stroke="red" stroke-width="0.204717" points="588.011,-599.322 594.033,-590.605 583.889,-593.665 588.011,-599.322"/>
</g>
<!-- Shares&#45;&gt;2030 -->
<g id="edge27" class="edge"><title>Shares&#45;&gt;2030</title>
<path fill="none" stroke="green" stroke-width="0.147962" stroke-dasharray="1,5" d="M425.701,-655.013C424.447,-620.545 419.578,-486.627 417.251,-422.649"/>
<polygon fill="green" stroke="green" stroke-width="0.147962" points="420.735,-422.147 416.874,-412.28 413.74,-422.401 420.735,-422.147"/>
</g>
<!-- Shares&#45;&gt;11167 -->
<g id="edge71" class="edge"><title>Shares&#45;&gt;11167</title>
<path fill="none" stroke="red" stroke-width="0.286668" d="M416.402,-655.016C401.534,-642.269 372.353,-617.254 350.351,-598.393"/>
<polygon fill="red" stroke="red" stroke-width="0.286668" points="352.479,-595.607 342.609,-591.756 347.923,-600.922 352.479,-595.607"/>
</g>
<!-- Money -->
<g id="node7" class="node"><title>Money</title>
<polygon fill="lightgray" stroke="black" points="761,-831.318 717,-831.318 717,-813.318 761,-813.318 761,-831.318"/>
<text text-anchor="middle" x="739" y="-820.118" font-family="Times New Roman,serif" font-size="9.00">Money</text>
</g>
<!-- Money&#45;&gt;2021 -->
<g id="edge28" class="edge"><title>Money&#45;&gt;2021</title>
<path fill="none" stroke="green" stroke-width="0.330162" stroke-dasharray="1,5" d="M744.906,-813.095C751.027,-804.411 760.701,-790.217 768,-777.318 788.754,-740.641 794.97,-731.559 809,-691.82 826.853,-641.252 874.37,-503.097 852,-454.357 819.818,-384.24 740.299,-333.165 696.022,-309.063"/>
<polygon fill="green" stroke="green" stroke-width="0.330162" points="697.61,-305.943 687.138,-304.332 694.32,-312.121 697.61,-305.943"/>
</g>
<!-- Money&#45;&gt;2023 -->
<g id="edge29" class="edge"><title>Money&#45;&gt;2023</title>
<path fill="none" stroke="green" stroke-width="0.188141" stroke-dasharray="1,5" d="M761.213,-818.616C837.35,-807.996 1088.02,-761.448 1178,-600.666 1250.91,-470.391 1243.56,-392.542 1166,-264.978 1156.42,-249.228 1141.45,-235.187 1128.18,-224.68"/>
<polygon fill="green" stroke="green" stroke-width="0.188141" points="1130.28,-221.881 1120.21,-218.611 1126.04,-227.451 1130.28,-221.881"/>
</g>
<!-- Money&#45;&gt;2024 -->
<g id="edge30" class="edge"><title>Money&#45;&gt;2024</title>
<path fill="none" stroke="red" stroke-width="0.128892" stroke-dasharray="1,5" d="M716.833,-815.542C671.262,-803.667 566.816,-776.451 512.775,-762.37"/>
<polygon fill="red" stroke="red" stroke-width="0.128892" points="513.543,-758.953 502.983,-759.819 511.778,-765.727 513.543,-758.953"/>
</g>
<!-- Money&#45;&gt;2027 -->
<g id="edge31" class="edge"><title>Money&#45;&gt;2027</title>
<path fill="none" stroke="green" stroke-width="0.105176" stroke-dasharray="1,5" d="M737.109,-812.997C731.458,-786.555 716.213,-702.33 735,-636.666 738.604,-624.07 745.559,-611.544 752.611,-601.045"/>
<polygon fill="green" stroke="green" stroke-width="0.105176" points="755.564,-602.93 758.485,-592.746 749.851,-598.886 755.564,-602.93"/>
</g>
<!-- Money&#45;&gt;2029 -->
<g id="edge32" class="edge"><title>Money&#45;&gt;2029</title>
<path fill="none" stroke="red" stroke-width="0.120605" stroke-dasharray="1,5" d="M725.099,-813.145C696.452,-795.385 631.482,-750.133 607,-691.82 595.705,-664.917 598.548,-631.448 603.281,-607.08"/>
<polygon fill="red" stroke="red" stroke-width="0.120605" points="606.716,-607.75 605.389,-597.239 599.872,-606.284 606.716,-607.75"/>
</g>
<!-- 10312 -->
<g id="node24" class="node"><title>10312</title>
<ellipse fill="white" stroke="black" cx="772" cy="-664.243" rx="27.6545" ry="27.6545"/>
<text text-anchor="middle" x="772" y="-662.043" font-family="Times New Roman,serif" font-size="9.00">10312</text>
</g>
<!-- Money&#45;&gt;10312 -->
<g id="edge61" class="edge"><title>Money&#45;&gt;10312</title>
<path fill="none" stroke="red" stroke-width="0.135659" d="M740.774,-812.927C745.143,-792.265 756.627,-737.95 764.382,-701.273"/>
<polygon fill="red" stroke="red" stroke-width="0.135659" points="767.817,-701.946 766.461,-691.438 760.968,-700.498 767.817,-701.946"/>
</g>
<!-- Decide&#45;&gt;Decide -->
<g id="edge39" class="edge"><title>Decide&#45;&gt;Decide</title>
<path fill="none" stroke="red" stroke-width="0.890095" d="M689.178,-130.501C701.236,-132.717 711.991,-127.379 711.991,-114.489 711.991,-105.425 706.674,-100.096 699.325,-98.5001"/>
<polygon fill="red" stroke="red" stroke-width="0.890095" points="699.186,-94.9999 689.178,-98.4763 699.17,-102 699.186,-94.9999"/>
</g>
<!-- 5412 -->
<g id="node12" class="node"><title>5412</title>
<ellipse fill="white" stroke="black" cx="665" cy="-24.7487" rx="25" ry="25"/>
<text text-anchor="middle" x="665" y="-22.5487" font-family="Times New Roman,serif" font-size="9.00">5412</text>
</g>
<!-- Decide&#45;&gt;5412 -->
<g id="edge51" class="edge"><title>Decide&#45;&gt;5412</title>
<path fill="none" stroke="red" stroke-width="0.414633" d="M665,-85.2444C665,-77.0529 665,-68.0253 665,-59.5312"/>
<polygon fill="red" stroke="red" stroke-width="0.414633" points="668.5,-59.5268 665,-49.5268 661.5,-59.5269 668.5,-59.5268"/>
</g>
<!-- 64065&#45;&gt;2023 -->
<g id="edge77" class="edge"><title>64065&#45;&gt;2023</title>
<path fill="none" stroke="green" stroke-width="0.557797" d="M1360.06,-275.821C1353.8,-271.852 1346.82,-267.895 1340,-264.978 1270.26,-235.156 1182.5,-218.042 1134.79,-210.297"/>
<polygon fill="green" stroke="green" stroke-width="0.557797" points="1135.1,-206.803 1124.67,-208.699 1134,-213.717 1135.1,-206.803"/>
</g>
<!-- 126465&#45;&gt;2021 -->
<g id="edge80" class="edge"><title>126465&#45;&gt;2021</title>
<path fill="none" stroke="red" stroke-width="0.746211" d="M201.374,-374.382C217.211,-368.162 237.434,-360.871 256,-356.132 392.047,-321.404 558.783,-303.226 630.029,-296.572"/>
<polygon fill="red" stroke="red" stroke-width="0.746211" points="630.591,-300.035 640.23,-295.637 629.952,-293.064 630.591,-300.035"/>
</g>
<!-- 2021&#45;&gt;Decide -->
<g id="edge33" class="edge"><title>2021&#45;&gt;Decide</title>
<path fill="none" stroke="red" stroke-width="1.05912" d="M665,-267.443C665,-238.168 665,-188.431 665,-153.868"/>
<polygon fill="red" stroke="red" stroke-width="1.05912" points="668.5,-153.668 665,-143.668 661.5,-153.668 668.5,-153.668"/>
</g>
<!-- 2021&#45;&gt;2021 -->
<g id="edge40" class="edge"><title>2021&#45;&gt;2021</title>
<path fill="none" stroke="red" stroke-width="0.147308" d="M684.788,-308.024C696.616,-311.461 707.749,-306.305 707.749,-292.555 707.749,-282.887 702.245,-277.468 694.865,-276.297"/>
<polygon fill="red" stroke="red" stroke-width="0.147308" points="694.484,-272.816 684.788,-277.086 695.031,-279.795 694.484,-272.816"/>
</g>
<!-- 2021&#45;&gt;2023 -->
<g id="edge63" class="edge"><title>2021&#45;&gt;2023</title>
<path fill="none" stroke="green" stroke-width="0.150865" stroke-dasharray="1,5" d="M689.32,-286.729C762.575,-272.191 981.281,-228.789 1065.97,-211.981"/>
<polygon fill="green" stroke="green" stroke-width="0.150865" points="1066.72,-215.401 1075.85,-210.021 1065.36,-208.535 1066.72,-215.401"/>
</g>
<!-- 2023&#45;&gt;Decide -->
<g id="edge34" class="edge"><title>2023&#45;&gt;Decide</title>
<path fill="none" stroke="green" stroke-width="0.1994" stroke-dasharray="1,5" d="M1075.68,-198.324C1003.64,-183.793 790.934,-140.89 703.349,-123.224"/>
<polygon fill="green" stroke="green" stroke-width="0.1994" points="703.801,-119.745 693.306,-121.198 702.417,-126.606 703.801,-119.745"/>
</g>
<!-- 2023&#45;&gt;2023 -->
<g id="edge41" class="edge"><title>2023&#45;&gt;2023</title>
<path fill="none" stroke="red" stroke-width="0.612111" d="M1119.79,-219.698C1131.62,-223.135 1142.75,-217.979 1142.75,-204.229 1142.75,-194.561 1137.25,-189.142 1129.87,-187.971"/>
<polygon fill="red" stroke="red" stroke-width="0.612111" points="1129.48,-184.49 1119.79,-188.76 1130.03,-191.469 1129.48,-184.49"/>
</g>
<!-- 2024&#45;&gt;Decide -->
<g id="edge35" class="edge"><title>2024&#45;&gt;Decide</title>
<path fill="none" stroke="red" stroke-width="0.116112" stroke-dasharray="1,5" d="M454.374,-748.877C415.978,-743.634 340.97,-729.099 290,-691.82 156.758,-594.369 76,-553.321 76,-388.245 76,-388.245 76,-388.245 76,-291.555 76,-176.47 493.997,-130.336 625.733,-118.654"/>
<polygon fill="red" stroke="red" stroke-width="0.116112" points="626.132,-122.132 635.791,-117.78 625.526,-115.159 626.132,-122.132"/>
</g>
<!-- 2024&#45;&gt;5412 -->
<g id="edge48" class="edge"><title>2024&#45;&gt;5412</title>
<path fill="none" stroke="green" stroke-width="0.809639" d="M456.816,-741.04C434.992,-730.185 401.224,-712.031 375,-691.82 329.906,-657.067 306.619,-653.334 285,-600.666 275.691,-577.989 280.179,-569.546 285,-545.512 319.677,-372.635 326.348,-315.946 438,-179.48 492.984,-112.276 584.88,-62.7844 633.157,-39.8893"/>
<polygon fill="green" stroke="green" stroke-width="0.809639" points="634.903,-42.9369 642.487,-35.5389 631.945,-36.5926 634.903,-42.9369"/>
</g>
<!-- 2024&#45;&gt;2024 -->
<g id="edge42" class="edge"><title>2024&#45;&gt;2024</title>
<path fill="none" stroke="green" stroke-width="0.43176" d="M500.556,-764.871C511.702,-766.763 521.749,-762.663 521.749,-752.569 521.749,-745.787 517.213,-741.711 510.856,-740.34"/>
<polygon fill="green" stroke="green" stroke-width="0.43176" points="510.58,-736.838 500.556,-740.267 510.531,-743.838 510.58,-736.838"/>
</g>
<!-- 2024&#45;&gt;2029 -->
<g id="edge81" class="edge"><title>2024&#45;&gt;2029</title>
<path fill="none" stroke="red" stroke-width="0.226854" d="M486.993,-728.796C496.282,-704.376 513.287,-665.263 536,-636.666 538.006,-634.141 564.074,-612.833 585.128,-595.773"/>
<polygon fill="red" stroke="red" stroke-width="0.226854" points="587.608,-598.269 593.18,-589.258 583.204,-592.828 587.608,-598.269"/>
</g>
<!-- 2024&#45;&gt;2030 -->
<g id="edge47" class="edge"><title>2024&#45;&gt;2030</title>
<path fill="none" stroke="red" stroke-width="0.145899" stroke-dasharray="1,5" d="M456.178,-742.187C436.474,-732.709 409.298,-715.998 397,-691.82 351.49,-602.35 384.04,-478.373 403.819,-420.462"/>
<polygon fill="red" stroke="red" stroke-width="0.145899" points="407.212,-421.362 407.224,-410.767 400.608,-419.043 407.212,-421.362"/>
</g>
<!-- 2024&#45;&gt;10312 -->
<g id="edge74" class="edge"><title>2024&#45;&gt;10312</title>
<path fill="none" stroke="green" stroke-width="0.312221" d="M502.746,-745.301C542.204,-734.799 623.694,-712.734 692,-691.82 706.639,-687.338 722.673,-682.081 736.516,-677.431"/>
<polygon fill="green" stroke="green" stroke-width="0.312221" points="737.806,-680.69 746.159,-674.172 735.564,-674.059 737.806,-680.69"/>
</g>
<!-- 6280&#45;&gt;5412 -->
<g id="edge75" class="edge"><title>6280&#45;&gt;5412</title>
<path fill="none" stroke="green" stroke-width="0.164164" d="M915.197,-458.731C890.04,-396.619 813.655,-217.041 721,-85.4975 711.975,-72.6839 700.338,-59.8261 690.012,-49.3384"/>
<polygon fill="green" stroke="green" stroke-width="0.164164" points="692.342,-46.7199 682.781,-42.1552 687.409,-51.6859 692.342,-46.7199"/>
</g>
<!-- 6280&#45;&gt;2030 -->
<g id="edge68" class="edge"><title>6280&#45;&gt;2030</title>
<path fill="none" stroke="green" stroke-width="0.163304" d="M901.356,-471.227C887.361,-465.568 868.903,-458.711 852,-454.357 705.723,-416.687 525.946,-397.813 451.189,-391.137"/>
<polygon fill="green" stroke="green" stroke-width="0.163304" points="451.205,-387.625 440.938,-390.24 450.594,-394.599 451.205,-387.625"/>
</g>
<!-- 10215&#45;&gt;2021 -->
<g id="edge60" class="edge"><title>10215&#45;&gt;2021</title>
<path fill="none" stroke="green" stroke-width="0.180968" d="M665,-454.088C665,-420.746 665,-363.838 665,-327.502"/>
<polygon fill="green" stroke="green" stroke-width="0.180968" points="668.5,-327.385 665,-317.385 661.5,-327.385 668.5,-327.385"/>
</g>
<!-- 2027&#45;&gt;Decide -->
<g id="edge36" class="edge"><title>2027&#45;&gt;Decide</title>
<path fill="none" stroke="green" stroke-width="0.177446" d="M770.819,-548.341C766.416,-513.36 759,-445.887 759,-388.245 759,-388.245 759,-388.245 759,-291.555 759,-233.897 719.286,-176.807 691.485,-143.907"/>
<polygon fill="green" stroke="green" stroke-width="0.177446" points="693.898,-141.346 684.705,-136.078 688.606,-145.929 693.898,-141.346"/>
</g>
<!-- 2027&#45;&gt;2027 -->
<g id="edge43" class="edge"><title>2027&#45;&gt;2027</title>
<path fill="none" stroke="red" stroke-width="0.704538" d="M793.344,-588.773C805.336,-592.555 816.749,-587.327 816.749,-573.089 816.749,-562.966 810.98,-557.398 803.337,-556.383"/>
<polygon fill="red" stroke="red" stroke-width="0.704538" points="802.936,-552.906 793.344,-557.405 803.648,-559.87 802.936,-552.906"/>
</g>
<!-- 2027&#45;&gt;2030 -->
<g id="edge50" class="edge"><title>2027&#45;&gt;2030</title>
<path fill="none" stroke="green" stroke-width="0.402715" d="M751.124,-563.231C722.066,-551.764 670.578,-530.727 628,-509.512 560.962,-476.109 485.503,-431.067 445.161,-406.351"/>
<polygon fill="green" stroke="green" stroke-width="0.402715" points="446.981,-403.361 436.629,-401.105 443.315,-409.324 446.981,-403.361"/>
</g>
<!-- 10717 -->
<g id="node26" class="node"><title>10717</title>
<ellipse fill="white" stroke="black" cx="815" cy="-481.935" rx="27.6545" ry="27.6545"/>
<text text-anchor="middle" x="815" y="-479.735" font-family="Times New Roman,serif" font-size="9.00">10717</text>
</g>
<!-- 2027&#45;&gt;10717 -->
<g id="edge64" class="edge"><title>2027&#45;&gt;10717</title>
<path fill="none" stroke="green" stroke-width="0.392279" d="M778.749,-548.665C782.852,-538.024 788.563,-525.29 794.31,-513.876"/>
<polygon fill="green" stroke="green" stroke-width="0.392279" points="797.589,-515.158 799.112,-504.673 791.383,-511.919 797.589,-515.158"/>
</g>
<!-- 9292 -->
<g id="node19" class="node"><title>9292</title>
<ellipse fill="white" stroke="black" cx="971" cy="-573.089" rx="25" ry="25"/>
<text text-anchor="middle" x="971" y="-570.889" font-family="Times New Roman,serif" font-size="9.00">9292</text>
</g>
<!-- 9292&#45;&gt;2023 -->
<g id="edge58" class="edge"><title>9292&#45;&gt;2023</title>
<path fill="none" stroke="green" stroke-width="0.456928" d="M987.511,-554.356C1011.57,-527.339 1055.63,-473.196 1076,-418.357 1098.35,-358.185 1101.48,-282.406 1101.15,-239.325"/>
<polygon fill="green" stroke="green" stroke-width="0.456928" points="1104.64,-239.054 1100.99,-229.107 1097.64,-239.157 1104.64,-239.054"/>
</g>
<!-- 9292&#45;&gt;10717 -->
<g id="edge73" class="edge"><title>9292&#45;&gt;10717</title>
<path fill="none" stroke="red" stroke-width="0.667514" d="M952.66,-556.209C948.016,-552.503 942.941,-548.709 938,-545.512 909.462,-527.045 874.777,-509.827 849.525,-498.146"/>
<polygon fill="red" stroke="red" stroke-width="0.667514" points="850.89,-494.922 840.34,-493.949 847.981,-501.288 850.89,-494.922"/>
</g>
<!-- 2029&#45;&gt;Decide -->
<g id="edge37" class="edge"><title>2029&#45;&gt;Decide</title>
<path fill="none" stroke="red" stroke-width="0.230918" d="M595.914,-554.229C562.154,-515.986 487,-426.552 487,-388.245 487,-388.245 487,-388.245 487,-291.555 487,-212.376 577.127,-156.732 629.118,-131.22"/>
<polygon fill="red" stroke="red" stroke-width="0.230918" points="630.838,-134.277 638.352,-126.808 627.82,-127.961 630.838,-134.277"/>
</g>
<!-- 2029&#45;&gt;2029 -->
<g id="edge44" class="edge"><title>2029&#45;&gt;2029</title>
<path fill="none" stroke="green" stroke-width="0.328735" d="M631.344,-588.773C643.336,-592.555 654.749,-587.327 654.749,-573.089 654.749,-562.966 648.98,-557.398 641.337,-556.383"/>
<polygon fill="green" stroke="green" stroke-width="0.328735" points="640.936,-552.906 631.344,-557.405 641.648,-559.87 640.936,-552.906"/>
</g>
<!-- 2030&#45;&gt;Decide -->
<g id="edge38" class="edge"><title>2030&#45;&gt;Decide</title>
<path fill="none" stroke="red" stroke-width="0.269283" stroke-dasharray="1,5" d="M415.703,-362.337C416.496,-319.84 424.31,-230.808 473,-179.48 513.211,-137.091 582.195,-122.771 625.605,-117.94"/>
<polygon fill="red" stroke="red" stroke-width="0.269283" points="626.185,-121.399 635.79,-116.928 625.493,-114.434 626.185,-121.399"/>
</g>
<!-- 2030&#45;&gt;2021 -->
<g id="edge57" class="edge"><title>2030&#45;&gt;2021</title>
<path fill="none" stroke="green" stroke-width="0.20856" d="M438.979,-377.691C483.45,-361.137 581.392,-324.678 632.507,-305.65"/>
<polygon fill="green" stroke="green" stroke-width="0.20856" points="633.926,-308.857 642.077,-302.088 631.484,-302.297 633.926,-308.857"/>
</g>
<!-- 2030&#45;&gt;2030 -->
<g id="edge45" class="edge"><title>2030&#45;&gt;2030</title>
<path fill="none" stroke="red" stroke-width="0.318216" stroke-dasharray="1,5" d="M434.9,-403.476C447.053,-407.71 458.749,-402.299 458.749,-387.245 458.749,-376.542 452.837,-370.713 445.053,-369.76"/>
<polygon fill="red" stroke="red" stroke-width="0.318216" points="444.395,-366.314 434.9,-371.014 445.253,-373.261 444.395,-366.314"/>
</g>
<!-- 8525&#45;&gt;2023 -->
<g id="edge54" class="edge"><title>8525&#45;&gt;2023</title>
<path fill="none" stroke="red" stroke-width="0.109614" d="M1284.2,-643.626C1292.11,-631.747 1301.46,-615.977 1307,-600.666 1325.02,-550.823 1326,-535.937 1326,-482.935 1326,-482.935 1326,-482.935 1326,-386.245 1326,-326.112 1310.87,-305.007 1266,-264.978 1228.66,-231.667 1171.37,-216.538 1134.8,-209.952"/>
<polygon fill="red" stroke="red" stroke-width="0.109614" points="1135.06,-206.446 1124.62,-208.242 1133.9,-213.35 1135.06,-206.446"/>
</g>
<!-- 8525&#45;&gt;2027 -->
<g id="edge62" class="edge"><title>8525&#45;&gt;2027</title>
<path fill="none" stroke="green" stroke-width="0.580383" d="M1245.49,-659.906C1169.42,-649.48 938.036,-617.225 864,-600.666 845.04,-596.426 824.215,-590.369 807.377,-585.108"/>
<polygon fill="green" stroke="green" stroke-width="0.580383" points="808.05,-581.65 797.46,-581.959 805.931,-588.321 808.05,-581.65"/>
</g>
<!-- 10091 -->
<g id="node23" class="node"><title>10091</title>
<ellipse fill="white" stroke="black" cx="1270" cy="-573.089" rx="27.6545" ry="27.6545"/>
<text text-anchor="middle" x="1270" y="-570.889" font-family="Times New Roman,serif" font-size="9.00">10091</text>
</g>
<!-- 8525&#45;&gt;10091 -->
<g id="edge72" class="edge"><title>8525&#45;&gt;10091</title>
<path fill="none" stroke="green" stroke-width="0.104328" d="M1270,-639.352C1270,-630.639 1270,-620.573 1270,-610.994"/>
<polygon fill="green" stroke="green" stroke-width="0.104328" points="1273.5,-610.878 1270,-600.878 1266.5,-610.878 1273.5,-610.878"/>
</g>
<!-- 10312&#45;&gt;11541 -->
<g id="edge78" class="edge"><title>10312&#45;&gt;11541</title>
<path fill="none" stroke="red" stroke-width="0.346728" d="M794.47,-647.714C815.465,-633.204 846.983,-611.421 870.294,-595.31"/>
<polygon fill="red" stroke="red" stroke-width="0.346728" points="872.551,-598.005 878.787,-589.44 868.571,-592.247 872.551,-598.005"/>
</g>
<!-- 11541&#45;&gt;6280 -->
<g id="edge70" class="edge"><title>11541&#45;&gt;6280</title>
<path fill="none" stroke="green" stroke-width="0.412479" d="M907.653,-546.302C910.075,-536.912 912.848,-526.161 915.415,-516.214"/>
<polygon fill="green" stroke="green" stroke-width="0.412479" points="918.881,-516.787 917.99,-506.23 912.103,-515.038 918.881,-516.787"/>
</g>
<!-- 10717&#45;&gt;2027 -->
<g id="edge65" class="edge"><title>10717&#45;&gt;2027</title>
<path fill="none" stroke="green" stroke-width="0.191222" stroke-dasharray="1,5" d="M809.213,-509.008C804.87,-519.937 799.057,-532.669 793.331,-543.822"/>
<polygon fill="green" stroke="green" stroke-width="0.191222" points="790.19,-542.273 788.575,-552.744 796.367,-545.566 790.19,-542.273"/>
</g>
<!-- 11167&#45;&gt;2030 -->
<g id="edge67" class="edge"><title>11167&#45;&gt;2030</title>
<path fill="none" stroke="green" stroke-width="0.397106" d="M328.596,-546.267C335.464,-521.706 347.529,-484.182 364,-454.357 371.973,-439.921 383.031,-425.355 392.902,-413.583"/>
<polygon fill="green" stroke="green" stroke-width="0.397106" points="395.628,-415.781 399.492,-405.916 390.319,-411.218 395.628,-415.781"/>
</g>
</g>
</svg>
