<?xml version="1.0" encoding="UTF-8" standalone="no"?>
<!DOCTYPE svg PUBLIC "-//W3C//DTD SVG 1.1//EN"
 "http://www.w3.org/Graphics/SVG/1.1/DTD/svg11.dtd">
<!-- Generated by graphviz version 2.38.0 (20140413.2041)
 -->
<!-- Title: %3 Pages: 1 -->
<svg width="1923pt" height="304pt"
 viewBox="0.00 0.00 1922.60 303.71" xmlns="http://www.w3.org/2000/svg" xmlns:xlink="http://www.w3.org/1999/xlink">
<g id="graph0" class="graph" transform="scale(1 1) rotate(0) translate(4 299.706)">
<title>%3</title>
<polygon fill="white" stroke="none" points="-4,4 -4,-299.706 1918.6,-299.706 1918.6,4 -4,4"/>
<!-- Open -->
<g id="node1" class="node"><title>Open</title>
<polygon fill="lightgray" stroke="black" points="1232.05,-295.706 1195.05,-295.706 1195.05,-277.706 1232.05,-277.706 1232.05,-295.706"/>
<text text-anchor="middle" x="1213.55" y="-284.506" font-family="Times New Roman,serif" font-size="9.00">Open</text>
</g>
<!-- 3375 -->
<g id="node12" class="node"><title>3375</title>
<ellipse fill="white" stroke="black" cx="745.555" cy="-210.593" rx="25" ry="25"/>
<text text-anchor="middle" x="745.555" y="-208.393" font-family="Times New Roman,serif" font-size="9.00">3375</text>
</g>
<!-- Open&#45;&gt;3375 -->
<g id="edge1" class="edge"><title>Open&#45;&gt;3375</title>
<path fill="none" stroke="green" stroke-width="0.114977" d="M1194.99,-279.881C1191.87,-279.05 1188.64,-278.283 1185.55,-277.706 1014.9,-245.718 961.756,-295.139 796.555,-241.706 788.85,-239.214 781.06,-235.405 773.965,-231.326"/>
<polygon fill="green" stroke="green" stroke-width="0.114977" points="775.767,-228.326 765.41,-226.094 772.115,-234.297 775.767,-228.326"/>
</g>
<!-- 3376 -->
<g id="node13" class="node"><title>3376</title>
<ellipse fill="white" stroke="black" cx="830.555" cy="-210.593" rx="25" ry="25"/>
<text text-anchor="middle" x="830.555" y="-208.393" font-family="Times New Roman,serif" font-size="9.00">3376</text>
</g>
<!-- Open&#45;&gt;3376 -->
<g id="edge2" class="edge"><title>Open&#45;&gt;3376</title>
<path fill="none" stroke="green" stroke-width="0.155914" d="M1194.98,-279.949C1191.85,-279.11 1188.63,-278.322 1185.55,-277.706 1052.16,-250.931 1010.46,-285.229 881.555,-241.706 873.883,-239.115 866.105,-235.269 859.012,-231.185"/>
<polygon fill="green" stroke="green" stroke-width="0.155914" points="860.813,-228.184 850.454,-225.961 857.166,-234.158 860.813,-228.184"/>
</g>
<!-- 3377 -->
<g id="node14" class="node"><title>3377</title>
<ellipse fill="white" stroke="black" cx="607.555" cy="-118.731" rx="25" ry="25"/>
<text text-anchor="middle" x="607.555" y="-116.531" font-family="Times New Roman,serif" font-size="9.00">3377</text>
</g>
<!-- Open&#45;&gt;3377 -->
<g id="edge3" class="edge"><title>Open&#45;&gt;3377</title>
<path fill="none" stroke="green" stroke-width="0.311925" d="M1232.31,-279.595C1235.06,-278.864 1237.86,-278.202 1240.55,-277.706 1292.06,-268.213 1674.96,-280.129 1710.55,-241.706 1729.35,-221.417 1729.57,-199.558 1710.55,-179.48 1691.72,-159.603 828.204,-127.624 642.498,-120.969"/>
<polygon fill="green" stroke="green" stroke-width="0.311925" points="642.578,-117.469 632.46,-120.61 642.328,-124.465 642.578,-117.469"/>
</g>
<!-- 3378 -->
<g id="node15" class="node"><title>3378</title>
<ellipse fill="white" stroke="black" cx="1255.55" cy="-210.593" rx="25" ry="25"/>
<text text-anchor="middle" x="1255.55" y="-208.393" font-family="Times New Roman,serif" font-size="9.00">3378</text>
</g>
<!-- Open&#45;&gt;3378 -->
<g id="edge4" class="edge"><title>Open&#45;&gt;3378</title>
<path fill="none" stroke="green" stroke-width="0.105163" d="M1218.21,-277.491C1223.17,-268.733 1231.32,-254.351 1238.75,-241.254"/>
<polygon fill="green" stroke="green" stroke-width="0.105163" points="1241.83,-242.902 1243.72,-232.476 1235.74,-239.451 1241.83,-242.902"/>
</g>
<!-- 3379 -->
<g id="node16" class="node"><title>3379</title>
<ellipse fill="white" stroke="black" cx="380.555" cy="-118.731" rx="25" ry="25"/>
<text text-anchor="middle" x="380.555" y="-116.531" font-family="Times New Roman,serif" font-size="9.00">3379</text>
</g>
<!-- Open&#45;&gt;3379 -->
<g id="edge5" class="edge"><title>Open&#45;&gt;3379</title>
<path fill="none" stroke="green" stroke-width="0.181615" d="M1232.32,-279.638C1235.06,-278.9 1237.87,-278.225 1240.55,-277.706 1324.49,-261.486 1566,-304.919 1623.55,-241.706 1642.17,-221.256 1642.77,-199.368 1623.55,-179.48 1583,-137.507 631.743,-148.049 573.555,-143.48 517.872,-139.108 453.552,-130.468 415.016,-124.903"/>
<polygon fill="green" stroke="green" stroke-width="0.181615" points="415.259,-121.401 404.859,-123.421 414.248,-128.328 415.259,-121.401"/>
</g>
<!-- 3380 -->
<g id="node17" class="node"><title>3380</title>
<ellipse fill="white" stroke="black" cx="1085.55" cy="-210.593" rx="25" ry="25"/>
<text text-anchor="middle" x="1085.55" y="-208.393" font-family="Times New Roman,serif" font-size="9.00">3380</text>
</g>
<!-- Open&#45;&gt;3380 -->
<g id="edge6" class="edge"><title>Open&#45;&gt;3380</title>
<path fill="none" stroke="red" stroke-width="0.109504" d="M1199.33,-277.656C1183.85,-268.879 1158.39,-254.389 1136.55,-241.706 1129.83,-237.8 1122.63,-233.574 1115.82,-229.557"/>
<polygon fill="red" stroke="red" stroke-width="0.109504" points="1117.24,-226.335 1106.85,-224.261 1113.68,-232.361 1117.24,-226.335"/>
</g>
<!-- 3381 -->
<g id="node18" class="node"><title>3381</title>
<ellipse fill="white" stroke="black" cx="1170.55" cy="-210.593" rx="25" ry="25"/>
<text text-anchor="middle" x="1170.55" y="-208.393" font-family="Times New Roman,serif" font-size="9.00">3381</text>
</g>
<!-- Open&#45;&gt;3381 -->
<g id="edge7" class="edge"><title>Open&#45;&gt;3381</title>
<path fill="none" stroke="green" stroke-width="0.194102" d="M1208.79,-277.491C1203.71,-268.733 1195.36,-254.351 1187.76,-241.254"/>
<polygon fill="green" stroke="green" stroke-width="0.194102" points="1190.72,-239.369 1182.67,-232.476 1184.66,-242.882 1190.72,-239.369"/>
</g>
<!-- 3382 -->
<g id="node19" class="node"><title>3382</title>
<ellipse fill="white" stroke="black" cx="1379.55" cy="-210.593" rx="25" ry="25"/>
<text text-anchor="middle" x="1379.55" y="-208.393" font-family="Times New Roman,serif" font-size="9.00">3382</text>
</g>
<!-- Open&#45;&gt;3382 -->
<g id="edge8" class="edge"><title>Open&#45;&gt;3382</title>
<path fill="none" stroke="green" stroke-width="0.279331" stroke-dasharray="1,5" d="M1232.08,-280.1C1262.44,-270.776 1321.36,-252.08 1340.55,-241.706 1344.84,-239.387 1349.16,-236.608 1353.27,-233.689"/>
<polygon fill="green" stroke="green" stroke-width="0.279331" points="1355.47,-236.411 1361.36,-227.602 1351.27,-230.817 1355.47,-236.411"/>
</g>
<!-- 3383 -->
<g id="node20" class="node"><title>3383</title>
<ellipse fill="white" stroke="black" cx="1464.55" cy="-210.593" rx="25" ry="25"/>
<text text-anchor="middle" x="1464.55" y="-208.393" font-family="Times New Roman,serif" font-size="9.00">3383</text>
</g>
<!-- Open&#45;&gt;3383 -->
<g id="edge9" class="edge"><title>Open&#45;&gt;3383</title>
<path fill="none" stroke="green" stroke-width="0.268161" stroke-dasharray="1,5" d="M1232.08,-279.947C1234.91,-279.147 1237.8,-278.372 1240.55,-277.706 1324.52,-257.409 1354.27,-280.287 1431.55,-241.706 1434.7,-240.134 1437.77,-238.173 1440.69,-236.011"/>
<polygon fill="green" stroke="green" stroke-width="0.268161" points="1443.02,-238.628 1448.46,-229.539 1438.54,-233.25 1443.02,-238.628"/>
</g>
<!-- 3384 -->
<g id="node21" class="node"><title>3384</title>
<ellipse fill="white" stroke="black" cx="1549.55" cy="-210.593" rx="25" ry="25"/>
<text text-anchor="middle" x="1549.55" y="-208.393" font-family="Times New Roman,serif" font-size="9.00">3384</text>
</g>
<!-- Open&#45;&gt;3384 -->
<g id="edge10" class="edge"><title>Open&#45;&gt;3384</title>
<path fill="none" stroke="green" stroke-width="0.170569" d="M1232.34,-279.726C1235.08,-278.976 1237.88,-278.273 1240.55,-277.706 1361.57,-252.054 1404.35,-293.802 1516.55,-241.706 1519.75,-240.224 1522.84,-238.321 1525.78,-236.193"/>
<polygon fill="green" stroke="green" stroke-width="0.170569" points="1528.09,-238.828 1533.57,-229.764 1523.63,-233.429 1528.09,-238.828"/>
</g>
<!-- 3385 -->
<g id="node22" class="node"><title>3385</title>
<ellipse fill="white" stroke="black" cx="660.555" cy="-210.593" rx="25" ry="25"/>
<text text-anchor="middle" x="660.555" y="-208.393" font-family="Times New Roman,serif" font-size="9.00">3385</text>
</g>
<!-- Open&#45;&gt;3385 -->
<g id="edge11" class="edge"><title>Open&#45;&gt;3385</title>
<path fill="none" stroke="green" stroke-width="0.230944" d="M1195,-279.837C1191.87,-279.012 1188.64,-278.258 1185.55,-277.706 977.584,-240.494 913.104,-305.066 711.555,-241.706 703.83,-239.277 696.032,-235.493 688.936,-231.418"/>
<polygon fill="green" stroke="green" stroke-width="0.230944" points="690.739,-228.417 680.383,-226.179 687.083,-234.387 690.739,-228.417"/>
</g>
<!-- 3386 -->
<g id="node23" class="node"><title>3386</title>
<ellipse fill="white" stroke="black" cx="1308.55" cy="-118.731" rx="25" ry="25"/>
<text text-anchor="middle" x="1308.55" y="-116.531" font-family="Times New Roman,serif" font-size="9.00">3386</text>
</g>
<!-- Open&#45;&gt;3386 -->
<g id="edge12" class="edge"><title>Open&#45;&gt;3386</title>
<path fill="none" stroke="green" stroke-width="0.290558" d="M1232.31,-279.558C1235.05,-278.832 1237.86,-278.182 1240.55,-277.706 1304.58,-266.399 1780.02,-289.069 1824.55,-241.706 1843.5,-221.557 1842.95,-200.13 1824.55,-179.48 1792.52,-143.517 1454.6,-125.967 1343.64,-121.144"/>
<polygon fill="green" stroke="green" stroke-width="0.290558" points="1343.47,-117.634 1333.33,-120.704 1343.17,-124.627 1343.47,-117.634"/>
</g>
<!-- 3387 -->
<g id="node24" class="node"><title>3387</title>
<ellipse fill="white" stroke="black" cx="915.555" cy="-210.593" rx="25" ry="25"/>
<text text-anchor="middle" x="915.555" y="-208.393" font-family="Times New Roman,serif" font-size="9.00">3387</text>
</g>
<!-- Open&#45;&gt;3387 -->
<g id="edge13" class="edge"><title>Open&#45;&gt;3387</title>
<path fill="none" stroke="green" stroke-width="0.643186" d="M1194.96,-280.068C1191.83,-279.214 1188.61,-278.392 1185.55,-277.706 1089.31,-256.121 1059.28,-275.357 966.555,-241.706 958.943,-238.943 951.188,-235.031 944.099,-230.937"/>
<polygon fill="green" stroke="green" stroke-width="0.643186" points="945.898,-227.935 935.535,-225.728 942.26,-233.915 945.898,-227.935"/>
</g>
<!-- 3388 -->
<g id="node25" class="node"><title>3388</title>
<ellipse fill="white" stroke="black" cx="1000.55" cy="-210.593" rx="25" ry="25"/>
<text text-anchor="middle" x="1000.55" y="-208.393" font-family="Times New Roman,serif" font-size="9.00">3388</text>
</g>
<!-- Open&#45;&gt;3388 -->
<g id="edge14" class="edge"><title>Open&#45;&gt;3388</title>
<path fill="none" stroke="red" stroke-width="0.471842" d="M1194.89,-280.328C1191.78,-279.444 1188.58,-278.543 1185.55,-277.706 1126.13,-261.234 1108.4,-265.601 1051.55,-241.706 1044.09,-238.568 1036.39,-234.511 1029.31,-230.398"/>
<polygon fill="red" stroke="red" stroke-width="0.471842" points="1031.1,-227.392 1020.73,-225.222 1027.49,-233.385 1031.1,-227.392"/>
</g>
<!-- High -->
<g id="node2" class="node"><title>High</title>
<polygon fill="lightgray" stroke="black" points="1002.55,-295.706 968.555,-295.706 968.555,-277.706 1002.55,-277.706 1002.55,-295.706"/>
<text text-anchor="middle" x="985.555" y="-284.506" font-family="Times New Roman,serif" font-size="9.00">High</text>
</g>
<!-- High&#45;&gt;3375 -->
<g id="edge15" class="edge"><title>High&#45;&gt;3375</title>
<path fill="none" stroke="green" stroke-width="0.353773" d="M968.39,-282.406C928.048,-274.539 828.219,-254.391 796.555,-241.706 789.038,-238.694 781.32,-234.686 774.236,-230.579"/>
<polygon fill="green" stroke="green" stroke-width="0.353773" points="776.031,-227.575 765.664,-225.392 772.407,-233.564 776.031,-227.575"/>
</g>
<!-- High&#45;&gt;3376 -->
<g id="edge16" class="edge"><title>High&#45;&gt;3376</title>
<path fill="none" stroke="green" stroke-width="0.175145" d="M968.306,-279.223C947.413,-271.186 911.317,-256.705 881.555,-241.706 874.324,-238.062 866.715,-233.81 859.646,-229.669"/>
<polygon fill="green" stroke="green" stroke-width="0.175145" points="861.43,-226.658 851.049,-224.538 857.842,-232.669 861.43,-226.658"/>
</g>
<!-- High&#45;&gt;3377 -->
<g id="edge17" class="edge"><title>High&#45;&gt;3377</title>
<path fill="none" stroke="red" stroke-width="0.140837" d="M968.456,-282.03C961.122,-280.541 952.443,-278.897 944.555,-277.706 870.521,-266.526 660.045,-296.993 609.555,-241.706 587.899,-217.992 591.195,-179.579 597.482,-152.198"/>
<polygon fill="red" stroke="red" stroke-width="0.140837" points="600.927,-152.852 599.993,-142.298 594.142,-151.131 600.927,-152.852"/>
</g>
<!-- High&#45;&gt;3378 -->
<g id="edge18" class="edge"><title>High&#45;&gt;3378</title>
<path fill="none" stroke="red" stroke-width="0.16387" d="M1002.75,-283.073C1053.9,-275.165 1202.74,-251.561 1222.55,-241.706 1225.71,-240.138 1228.78,-238.18 1231.7,-236.02"/>
<polygon fill="red" stroke="red" stroke-width="0.16387" points="1234.02,-238.638 1239.47,-229.55 1229.54,-233.258 1234.02,-238.638"/>
</g>
<!-- High&#45;&gt;3379 -->
<g id="edge19" class="edge"><title>High&#45;&gt;3379</title>
<path fill="none" stroke="red" stroke-width="0.422947" d="M968.482,-281.841C961.153,-280.32 952.47,-278.703 944.555,-277.706 876.091,-269.078 371.913,-291.894 324.555,-241.706 305.574,-221.591 314.386,-205.199 324.555,-179.48 330.501,-164.441 342.219,-150.971 353.406,-140.644"/>
<polygon fill="red" stroke="red" stroke-width="0.422947" points="355.763,-143.232 360.988,-134.016 351.156,-137.962 355.763,-143.232"/>
</g>
<!-- High&#45;&gt;3380 -->
<g id="edge20" class="edge"><title>High&#45;&gt;3380</title>
<path fill="none" stroke="red" stroke-width="0.453574" d="M999.077,-277.703C1012.92,-269.309 1034.86,-255.449 1052.55,-241.706 1055.19,-239.66 1057.87,-237.452 1060.51,-235.194"/>
<polygon fill="red" stroke="red" stroke-width="0.453574" points="1063.03,-237.632 1068.19,-228.381 1058.39,-232.393 1063.03,-237.632"/>
</g>
<!-- High&#45;&gt;3381 -->
<g id="edge21" class="edge"><title>High&#45;&gt;3381</title>
<path fill="none" stroke="green" stroke-width="0.15726" d="M1002.96,-283.312C1032.29,-278.72 1092.74,-266.817 1137.55,-241.706 1140.46,-240.075 1143.33,-238.143 1146.08,-236.057"/>
<polygon fill="green" stroke="green" stroke-width="0.15726" points="1148.51,-238.587 1153.92,-229.481 1144.01,-233.222 1148.51,-238.587"/>
</g>
<!-- High&#45;&gt;3382 -->
<g id="edge22" class="edge"><title>High&#45;&gt;3382</title>
<path fill="none" stroke="red" stroke-width="0.166498" d="M1002.89,-283.137C1013.71,-281.545 1027.94,-279.473 1040.55,-277.706 1159.14,-261.088 1192,-273.075 1307.55,-241.706 1321.28,-237.98 1335.85,-232.249 1348.27,-226.782"/>
<polygon fill="red" stroke="red" stroke-width="0.166498" points="1350.05,-229.818 1357.71,-222.498 1347.15,-223.443 1350.05,-229.818"/>
</g>
<!-- High&#45;&gt;3383 -->
<g id="edge23" class="edge"><title>High&#45;&gt;3383</title>
<path fill="none" stroke="red" stroke-width="0.1344" d="M1002.86,-282.95C1013.68,-281.287 1027.91,-279.207 1040.55,-277.706 1127.2,-267.422 1351.73,-276.946 1431.55,-241.706 1434.77,-240.284 1437.89,-238.421 1440.84,-236.317"/>
<polygon fill="red" stroke="red" stroke-width="0.1344" points="1443.13,-238.964 1448.64,-229.916 1438.69,-233.551 1443.13,-238.964"/>
</g>
<!-- High&#45;&gt;3384 -->
<g id="edge24" class="edge"><title>High&#45;&gt;3384</title>
<path fill="none" stroke="red" stroke-width="0.591561" d="M1002.86,-282.877C1013.67,-281.187 1027.89,-279.103 1040.55,-277.706 1145.99,-266.064 1419.16,-283.755 1516.55,-241.706 1519.79,-240.311 1522.91,-238.464 1525.86,-236.37"/>
<polygon fill="red" stroke="red" stroke-width="0.591561" points="1528.14,-239.023 1533.67,-229.982 1523.71,-233.605 1528.14,-239.023"/>
</g>
<!-- High&#45;&gt;3385 -->
<g id="edge25" class="edge"><title>High&#45;&gt;3385</title>
<path fill="none" stroke="red" stroke-width="0.121825" d="M968.427,-282.207C961.088,-280.749 952.413,-279.079 944.555,-277.706 841.335,-259.668 810.224,-276.979 711.555,-241.706 703.93,-238.98 696.17,-235.082 689.08,-230.99"/>
<polygon fill="red" stroke="red" stroke-width="0.121825" points="690.879,-227.988 680.518,-225.778 687.24,-233.967 690.879,-227.988"/>
</g>
<!-- High&#45;&gt;3386 -->
<g id="edge26" class="edge"><title>High&#45;&gt;3386</title>
<path fill="none" stroke="red" stroke-width="0.437311" d="M968.453,-282.052C961.118,-280.567 952.439,-278.919 944.555,-277.706 874.264,-266.887 673.93,-294.747 626.555,-241.706 608.132,-221.079 607.872,-199.871 626.555,-179.48 670.626,-131.379 1140.74,-121.837 1273.7,-120.095"/>
<polygon fill="red" stroke="red" stroke-width="0.437311" points="1273.79,-123.594 1283.75,-119.97 1273.7,-116.595 1273.79,-123.594"/>
</g>
<!-- High&#45;&gt;3387 -->
<g id="edge27" class="edge"><title>High&#45;&gt;3387</title>
<path fill="none" stroke="green" stroke-width="0.733795" d="M977.796,-277.491C968.545,-267.697 952.651,-250.868 939.239,-236.669"/>
<polygon fill="green" stroke="green" stroke-width="0.733795" points="941.513,-233.979 932.102,-229.113 936.424,-238.786 941.513,-233.979"/>
</g>
<!-- High&#45;&gt;3388 -->
<g id="edge28" class="edge"><title>High&#45;&gt;3388</title>
<path fill="none" stroke="red" stroke-width="0.295568" d="M987.217,-277.491C988.826,-269.541 991.373,-256.957 993.812,-244.906"/>
<polygon fill="red" stroke="red" stroke-width="0.295568" points="997.259,-245.518 995.813,-235.022 990.399,-244.129 997.259,-245.518"/>
</g>
<!-- Low -->
<g id="node3" class="node"><title>Low</title>
<polygon fill="lightgray" stroke="black" points="1283.05,-295.706 1250.05,-295.706 1250.05,-277.706 1283.05,-277.706 1283.05,-295.706"/>
<text text-anchor="middle" x="1266.55" y="-284.506" font-family="Times New Roman,serif" font-size="9.00">Low</text>
</g>
<!-- Low&#45;&gt;3375 -->
<g id="edge29" class="edge"><title>Low&#45;&gt;3375</title>
<path fill="none" stroke="green" stroke-width="0.122979" d="M1249.91,-279.998C1246.83,-279.11 1243.62,-278.293 1240.55,-277.706 1046.13,-240.373 985.271,-301.561 796.555,-241.706 788.836,-239.258 781.04,-235.466 773.945,-231.389"/>
<polygon fill="green" stroke="green" stroke-width="0.122979" points="775.747,-228.389 765.391,-226.153 772.092,-234.359 775.747,-228.389"/>
</g>
<!-- Low&#45;&gt;3376 -->
<g id="edge30" class="edge"><title>Low&#45;&gt;3376</title>
<path fill="none" stroke="green" stroke-width="0.306334" d="M1249.9,-280.046C1246.82,-279.153 1243.61,-278.323 1240.55,-277.706 1083.37,-245.97 1033.94,-291.639 881.555,-241.706 873.86,-239.184 866.073,-235.365 858.979,-231.284"/>
<polygon fill="green" stroke="green" stroke-width="0.306334" points="860.781,-228.283 850.423,-226.054 857.13,-234.256 860.781,-228.283"/>
</g>
<!-- Low&#45;&gt;3377 -->
<g id="edge31" class="edge"><title>Low&#45;&gt;3377</title>
<path fill="none" stroke="red" stroke-width="0.104598" d="M1283.21,-285.426C1362.68,-283.921 1700.76,-275.556 1731.55,-241.706 1750.17,-221.25 1750.58,-199.548 1731.55,-179.48 1712.34,-159.213 830.512,-127.476 642.555,-120.935"/>
<polygon fill="red" stroke="red" stroke-width="0.104598" points="642.52,-117.432 632.405,-120.583 642.278,-124.427 642.52,-117.432"/>
</g>
<!-- Low&#45;&gt;3378 -->
<g id="edge32" class="edge"><title>Low&#45;&gt;3378</title>
<path fill="none" stroke="green" stroke-width="0.103388" d="M1265.34,-277.491C1264.18,-269.679 1262.35,-257.392 1260.59,-245.533"/>
<polygon fill="green" stroke="green" stroke-width="0.103388" points="1264.01,-244.723 1259.08,-235.345 1257.09,-245.751 1264.01,-244.723"/>
</g>
<!-- Low&#45;&gt;3379 -->
<g id="edge33" class="edge"><title>Low&#45;&gt;3379</title>
<path fill="none" stroke="red" stroke-width="0.588543" d="M1283.07,-285.056C1352.84,-282.145 1621.05,-269.221 1645.55,-241.706 1663.95,-221.053 1664.78,-199.361 1645.55,-179.48 1604.13,-136.643 632.963,-148.124 573.555,-143.48 517.871,-139.128 453.551,-130.482 415.015,-124.91"/>
<polygon fill="red" stroke="red" stroke-width="0.588543" points="415.259,-121.409 404.858,-123.426 414.247,-128.335 415.259,-121.409"/>
</g>
<!-- Low&#45;&gt;3380 -->
<g id="edge34" class="edge"><title>Low&#45;&gt;3380</title>
<path fill="none" stroke="red" stroke-width="0.302157" d="M1249.67,-280.47C1219.42,-271.014 1157.24,-251.189 1136.55,-241.706 1129.19,-238.331 1121.54,-234.183 1114.46,-230.057"/>
<polygon fill="red" stroke="red" stroke-width="0.302157" points="1116.25,-227.049 1105.87,-224.902 1112.65,-233.05 1116.25,-227.049"/>
</g>
<!-- Low&#45;&gt;3381 -->
<g id="edge35" class="edge"><title>Low&#45;&gt;3381</title>
<path fill="none" stroke="red" stroke-width="0.255378" d="M1255.91,-277.491C1242.05,-266.789 1217.31,-247.686 1198.02,-232.794"/>
<polygon fill="red" stroke="red" stroke-width="0.255378" points="1199.92,-229.841 1189.86,-226.5 1195.64,-235.382 1199.92,-229.841"/>
</g>
<!-- Low&#45;&gt;3382 -->
<g id="edge36" class="edge"><title>Low&#45;&gt;3382</title>
<path fill="none" stroke="red" stroke-width="0.132772" d="M1281.34,-277.614C1296.51,-269.149 1320.65,-255.233 1340.55,-241.706 1344.4,-239.092 1348.37,-236.232 1352.24,-233.346"/>
<polygon fill="red" stroke="red" stroke-width="0.132772" points="1354.63,-235.925 1360.46,-227.077 1350.38,-230.359 1354.63,-235.925"/>
</g>
<!-- Low&#45;&gt;3383 -->
<g id="edge37" class="edge"><title>Low&#45;&gt;3383</title>
<path fill="none" stroke="green" stroke-width="0.428195" d="M1283.45,-283.888C1314.47,-279.988 1381.87,-268.86 1431.55,-241.706 1434.48,-240.106 1437.36,-238.195 1440.11,-236.121"/>
<polygon fill="green" stroke="green" stroke-width="0.428195" points="1442.54,-238.658 1447.97,-229.562 1438.05,-233.285 1442.54,-238.658"/>
</g>
<!-- Low&#45;&gt;3384 -->
<g id="edge38" class="edge"><title>Low&#45;&gt;3384</title>
<path fill="none" stroke="red" stroke-width="0.244937" d="M1283.32,-285.907C1325.03,-285.76 1435.88,-281.372 1516.55,-241.706 1519.71,-240.153 1522.79,-238.205 1525.71,-236.05"/>
<polygon fill="red" stroke="red" stroke-width="0.244937" points="1528.03,-238.671 1533.49,-229.587 1523.56,-233.288 1528.03,-238.671"/>
</g>
<!-- Low&#45;&gt;3385 -->
<g id="edge39" class="edge"><title>Low&#45;&gt;3385</title>
<path fill="none" stroke="green" stroke-width="0.14007" d="M1249.91,-279.965C1246.83,-279.08 1243.62,-278.274 1240.55,-277.706 1008.84,-234.769 936.639,-311.494 711.555,-241.706 703.821,-239.308 696.019,-235.535 688.923,-231.461"/>
<polygon fill="green" stroke="green" stroke-width="0.14007" points="690.725,-228.461 680.37,-226.22 687.068,-234.43 690.725,-228.461"/>
</g>
<!-- Low&#45;&gt;3386 -->
<g id="edge40" class="edge"><title>Low&#45;&gt;3386</title>
<path fill="none" stroke="red" stroke-width="0.278178" d="M1283.19,-285.869C1378.97,-286.641 1857.23,-288.143 1900.55,-241.706 1919.42,-221.484 1919.1,-199.994 1900.55,-179.48 1863.06,-138.014 1465.7,-123.953 1343.87,-120.599"/>
<polygon fill="red" stroke="red" stroke-width="0.278178" points="1343.69,-117.094 1333.6,-120.325 1343.51,-124.091 1343.69,-117.094"/>
</g>
<!-- Low&#45;&gt;3387 -->
<g id="edge41" class="edge"><title>Low&#45;&gt;3387</title>
<path fill="none" stroke="green" stroke-width="0.159675" d="M1249.88,-280.123C1246.8,-279.223 1243.6,-278.369 1240.55,-277.706 1120.55,-251.553 1082.67,-281.738 966.555,-241.706 958.9,-239.066 951.128,-235.201 944.036,-231.115"/>
<polygon fill="green" stroke="green" stroke-width="0.159675" points="945.837,-228.113 935.477,-225.895 942.192,-234.089 945.837,-228.113"/>
</g>
<!-- Low&#45;&gt;3388 -->
<g id="edge42" class="edge"><title>Low&#45;&gt;3388</title>
<path fill="none" stroke="red" stroke-width="0.187778" d="M1249.85,-280.268C1246.77,-279.352 1243.58,-278.457 1240.55,-277.706 1157.56,-257.101 1131.56,-271.892 1051.55,-241.706 1043.98,-238.847 1036.24,-234.898 1029.15,-230.799"/>
<polygon fill="red" stroke="red" stroke-width="0.187778" points="1030.95,-227.796 1020.58,-225.599 1027.32,-233.78 1030.95,-227.796"/>
</g>
<!-- Close -->
<g id="node4" class="node"><title>Close</title>
<polygon fill="lightgray" stroke="black" points="1177.05,-295.706 1140.05,-295.706 1140.05,-277.706 1177.05,-277.706 1177.05,-295.706"/>
<text text-anchor="middle" x="1158.55" y="-284.506" font-family="Times New Roman,serif" font-size="9.00">Close</text>
</g>
<!-- Close&#45;&gt;3375 -->
<g id="edge43" class="edge"><title>Close&#45;&gt;3375</title>
<path fill="none" stroke="green" stroke-width="0.810511" d="M1139.9,-282.923C1129.02,-281.329 1115.02,-279.329 1102.55,-277.706 966.763,-260.021 926.314,-285.462 796.555,-241.706 788.882,-239.118 781.104,-235.273 774.011,-231.189"/>
<polygon fill="green" stroke="green" stroke-width="0.810511" points="775.812,-228.188 765.453,-225.965 772.164,-234.163 775.812,-228.188"/>
</g>
<!-- Close&#45;&gt;3376 -->
<g id="edge44" class="edge"><title>Close&#45;&gt;3376</title>
<path fill="none" stroke="green" stroke-width="0.147157" d="M1140.05,-282.96C1080.01,-274.03 893.839,-246.127 881.555,-241.706 873.936,-238.964 866.178,-235.059 859.088,-230.967"/>
<polygon fill="green" stroke="green" stroke-width="0.147157" points="860.888,-227.965 850.525,-225.756 857.249,-233.945 860.888,-227.965"/>
</g>
<!-- Close&#45;&gt;3377 -->
<g id="edge45" class="edge"><title>Close&#45;&gt;3377</title>
<path fill="none" stroke="red" stroke-width="0.83428" d="M1177.32,-279.604C1180.06,-278.871 1182.86,-278.207 1185.55,-277.706 1234.76,-268.547 1600.61,-278.483 1634.55,-241.706 1653.31,-221.384 1653.53,-199.596 1634.55,-179.48 1617.14,-161.021 820.627,-128.223 642.597,-121.115"/>
<polygon fill="red" stroke="red" stroke-width="0.83428" points="642.604,-117.613 632.473,-120.712 642.326,-124.607 642.604,-117.613"/>
</g>
<!-- Close&#45;&gt;3378 -->
<g id="edge46" class="edge"><title>Close&#45;&gt;3378</title>
<path fill="none" stroke="red" stroke-width="0.369096" d="M1171.68,-277.443C1184.88,-268.953 1205.66,-255.119 1222.55,-241.706 1225.17,-239.632 1227.83,-237.405 1230.46,-235.136"/>
<polygon fill="red" stroke="red" stroke-width="0.369096" points="1232.99,-237.569 1238.14,-228.307 1228.34,-232.339 1232.99,-237.569"/>
</g>
<!-- Close&#45;&gt;3379 -->
<g id="edge47" class="edge"><title>Close&#45;&gt;3379</title>
<path fill="none" stroke="red" stroke-width="0.794083" d="M1177.32,-279.62C1180.06,-278.885 1182.86,-278.215 1185.55,-277.706 1231.14,-269.072 1570.19,-275.897 1601.55,-241.706 1620.25,-221.324 1620.77,-199.375 1601.55,-179.48 1561.86,-138.371 630.524,-147.974 573.555,-143.48 517.874,-139.088 453.553,-130.454 415.016,-124.895"/>
<polygon fill="red" stroke="red" stroke-width="0.794083" points="415.259,-121.394 404.859,-123.415 414.25,-128.321 415.259,-121.394"/>
</g>
<!-- Close&#45;&gt;3380 -->
<g id="edge48" class="edge"><title>Close&#45;&gt;3380</title>
<path fill="none" stroke="green" stroke-width="0.38049" d="M1150.46,-277.491C1140.66,-267.542 1123.71,-250.334 1109.59,-235.997"/>
<polygon fill="green" stroke="green" stroke-width="0.38049" points="1112.03,-233.484 1102.52,-228.816 1107.04,-238.396 1112.03,-233.484"/>
</g>
<!-- Close&#45;&gt;3381 -->
<g id="edge49" class="edge"><title>Close&#45;&gt;3381</title>
<path fill="none" stroke="red" stroke-width="0.571188" d="M1159.88,-277.491C1161.15,-269.679 1163.14,-257.392 1165.06,-245.533"/>
<polygon fill="red" stroke="red" stroke-width="0.571188" points="1168.57,-245.776 1166.71,-235.345 1161.66,-244.657 1168.57,-245.776"/>
</g>
<!-- Close&#45;&gt;3382 -->
<g id="edge50" class="edge"><title>Close&#45;&gt;3382</title>
<path fill="none" stroke="green" stroke-width="0.281125" d="M1177.1,-280.051C1179.93,-279.236 1182.81,-278.429 1185.55,-277.706 1253.93,-259.652 1276.65,-272.012 1340.55,-241.706 1344.96,-239.616 1349.34,-236.964 1353.48,-234.104"/>
<polygon fill="green" stroke="green" stroke-width="0.281125" points="1355.67,-236.839 1361.59,-228.054 1351.48,-231.229 1355.67,-236.839"/>
</g>
<!-- Close&#45;&gt;3383 -->
<g id="edge51" class="edge"><title>Close&#45;&gt;3383</title>
<path fill="none" stroke="green" stroke-width="0.11007" d="M1177.06,-279.846C1179.89,-279.059 1182.79,-278.315 1185.55,-277.706 1293.47,-253.95 1331.7,-289.02 1431.55,-241.706 1434.74,-240.199 1437.82,-238.28 1440.76,-236.143"/>
<polygon fill="green" stroke="green" stroke-width="0.11007" points="1443.07,-238.773 1448.54,-229.701 1438.61,-233.38 1443.07,-238.773"/>
</g>
<!-- Close&#45;&gt;3384 -->
<g id="edge52" class="edge"><title>Close&#45;&gt;3384</title>
<path fill="none" stroke="red" stroke-width="0.485908" d="M1177.33,-279.674C1180.07,-278.931 1182.87,-278.245 1185.55,-277.706 1330.64,-248.569 1381.68,-302.587 1516.55,-241.706 1519.76,-240.258 1522.87,-238.377 1525.81,-236.263"/>
<polygon fill="red" stroke="red" stroke-width="0.485908" points="1528.11,-238.905 1533.61,-229.849 1523.66,-233.498 1528.11,-238.905"/>
</g>
<!-- Close&#45;&gt;3385 -->
<g id="edge53" class="edge"><title>Close&#45;&gt;3385</title>
<path fill="none" stroke="green" stroke-width="0.603644" d="M1139.92,-282.805C1129.04,-281.171 1115.04,-279.171 1102.55,-277.706 929.232,-257.359 877.611,-295.372 711.555,-241.706 703.85,-239.216 696.059,-235.408 688.965,-231.329"/>
<polygon fill="green" stroke="green" stroke-width="0.603644" points="690.766,-228.328 680.409,-226.096 687.114,-234.3 690.766,-228.328"/>
</g>
<!-- Close&#45;&gt;3386 -->
<g id="edge54" class="edge"><title>Close&#45;&gt;3386</title>
<path fill="none" stroke="red" stroke-width="0.11626" d="M1177.31,-279.589C1180.05,-278.858 1182.86,-278.198 1185.55,-277.706 1238.93,-267.943 1635.63,-281.461 1672.55,-241.706 1769.34,-137.498 1451.85,-122.267 1343.49,-120.083"/>
<polygon fill="red" stroke="red" stroke-width="0.11626" points="1343.44,-116.582 1333.38,-119.906 1343.32,-123.581 1343.44,-116.582"/>
</g>
<!-- Close&#45;&gt;3387 -->
<g id="edge55" class="edge"><title>Close&#45;&gt;3387</title>
<path fill="none" stroke="green" stroke-width="0.39897" d="M1139.99,-283.389C1105.05,-278.612 1027.55,-266.018 966.555,-241.706 959.033,-238.707 951.313,-234.704 944.228,-230.598"/>
<polygon fill="green" stroke="green" stroke-width="0.39897" points="946.024,-227.594 935.657,-225.41 942.399,-233.582 946.024,-227.594"/>
</g>
<!-- Close&#45;&gt;3388 -->
<g id="edge56" class="edge"><title>Close&#45;&gt;3388</title>
<path fill="none" stroke="red" stroke-width="0.330042" d="M1140.03,-279.012C1118.41,-270.99 1081.76,-256.739 1051.55,-241.706 1044.31,-238.098 1036.69,-233.861 1029.62,-229.722"/>
<polygon fill="red" stroke="red" stroke-width="0.330042" points="1031.4,-226.711 1021.02,-224.588 1027.81,-232.721 1031.4,-226.711"/>
</g>
<!-- Volume -->
<g id="node5" class="node"><title>Volume</title>
<polygon fill="lightgray" stroke="black" points="1093.55,-295.706 1049.55,-295.706 1049.55,-277.706 1093.55,-277.706 1093.55,-295.706"/>
<text text-anchor="middle" x="1071.55" y="-284.506" font-family="Times New Roman,serif" font-size="9.00">Volume</text>
</g>
<!-- Volume&#45;&gt;3375 -->
<g id="edge57" class="edge"><title>Volume&#45;&gt;3375</title>
<path fill="none" stroke="red" stroke-width="0.250686" d="M1049.55,-282.667C988.574,-274.178 820.321,-250.274 796.555,-241.706 788.937,-238.959 781.18,-235.053 774.09,-230.961"/>
<polygon fill="red" stroke="red" stroke-width="0.250686" points="775.89,-227.958 765.528,-225.75 772.251,-233.938 775.89,-227.958"/>
</g>
<!-- Volume&#45;&gt;3376 -->
<g id="edge58" class="edge"><title>Volume&#45;&gt;3376</title>
<path fill="none" stroke="green" stroke-width="0.556875" d="M1049.53,-282.839C1013.44,-277.655 939.872,-265.03 881.555,-241.706 874.036,-238.699 866.318,-234.692 859.233,-230.586"/>
<polygon fill="green" stroke="green" stroke-width="0.556875" points="861.029,-227.581 850.661,-225.398 857.405,-233.57 861.029,-227.581"/>
</g>
<!-- Volume&#45;&gt;3377 -->
<g id="edge59" class="edge"><title>Volume&#45;&gt;3377</title>
<path fill="none" stroke="red" stroke-width="0.416327" d="M1049.36,-282.534C1038.05,-280.973 1024.09,-279.126 1011.55,-277.706 968.864,-272.866 657.852,-271.141 626.555,-241.706 603.022,-219.572 600.615,-181.213 602.614,-153.411"/>
<polygon fill="red" stroke="red" stroke-width="0.416327" points="606.111,-153.612 603.561,-143.328 599.141,-152.957 606.111,-153.612"/>
</g>
<!-- Volume&#45;&gt;3378 -->
<g id="edge60" class="edge"><title>Volume&#45;&gt;3378</title>
<path fill="none" stroke="red" stroke-width="0.10921" d="M1093.78,-282.481C1124.36,-277.343 1180.41,-265.368 1222.55,-241.706 1225.46,-240.073 1228.32,-238.139 1231.07,-236.051"/>
<polygon fill="red" stroke="red" stroke-width="0.10921" points="1233.51,-238.581 1238.92,-229.474 1229.01,-233.217 1233.51,-238.581"/>
</g>
<!-- Volume&#45;&gt;3379 -->
<g id="edge61" class="edge"><title>Volume&#45;&gt;3379</title>
<path fill="none" stroke="red" stroke-width="0.469124" d="M1049.36,-282.501C1038.06,-280.931 1024.09,-279.087 1011.55,-277.706 828.412,-257.525 774.657,-295.897 598.555,-241.706 524.758,-218.996 448.17,-168.881 408.364,-140.461"/>
<polygon fill="red" stroke="red" stroke-width="0.469124" points="410.137,-137.424 399.981,-134.407 406.038,-143.099 410.137,-137.424"/>
</g>
<!-- Volume&#45;&gt;3380 -->
<g id="edge62" class="edge"><title>Volume&#45;&gt;3380</title>
<path fill="none" stroke="red" stroke-width="0.110774" d="M1073.11,-277.491C1074.61,-269.541 1076.99,-256.957 1079.26,-244.906"/>
<polygon fill="red" stroke="red" stroke-width="0.110774" points="1082.71,-245.498 1081.13,-235.022 1075.83,-244.199 1082.71,-245.498"/>
</g>
<!-- Volume&#45;&gt;3381 -->
<g id="edge63" class="edge"><title>Volume&#45;&gt;3381</title>
<path fill="none" stroke="green" stroke-width="0.209908" d="M1084.86,-277.669C1098.49,-269.248 1120.09,-255.367 1137.55,-241.706 1140.18,-239.651 1142.86,-237.437 1145.49,-235.175"/>
<polygon fill="green" stroke="green" stroke-width="0.209908" points="1148.02,-237.612 1153.18,-228.357 1143.37,-232.375 1148.02,-237.612"/>
</g>
<!-- Volume&#45;&gt;3382 -->
<g id="edge64" class="edge"><title>Volume&#45;&gt;3382</title>
<path fill="none" stroke="green" stroke-width="0.167342" d="M1093.56,-282.738C1153.72,-274.54 1317.93,-251.534 1340.55,-241.706 1345.03,-239.763 1349.44,-237.192 1353.6,-234.37"/>
<polygon fill="green" stroke="green" stroke-width="0.167342" points="1355.78,-237.114 1361.72,-228.343 1351.61,-231.493 1355.78,-237.114"/>
</g>
<!-- Volume&#45;&gt;3383 -->
<g id="edge65" class="edge"><title>Volume&#45;&gt;3383</title>
<path fill="none" stroke="green" stroke-width="0.583126" d="M1093.68,-282.622C1104.75,-281.101 1118.35,-279.262 1130.55,-277.706 1264.2,-260.654 1309.05,-297.793 1431.55,-241.706 1434.75,-240.241 1437.86,-238.349 1440.8,-236.228"/>
<polygon fill="green" stroke="green" stroke-width="0.583126" points="1443.1,-238.866 1448.59,-229.806 1438.65,-233.464 1443.1,-238.866"/>
</g>
<!-- Volume&#45;&gt;3384 -->
<g id="edge66" class="edge"><title>Volume&#45;&gt;3384</title>
<path fill="none" stroke="red" stroke-width="0.113497" d="M1093.66,-282.485C1104.73,-280.93 1118.33,-279.103 1130.55,-277.706 1216.15,-267.916 1437.76,-276.546 1516.55,-241.706 1519.77,-240.282 1522.89,-238.418 1525.83,-236.313"/>
<polygon fill="red" stroke="red" stroke-width="0.113497" points="1528.13,-238.96 1533.64,-229.911 1523.69,-233.548 1528.13,-238.96"/>
</g>
<!-- Volume&#45;&gt;3385 -->
<g id="edge67" class="edge"><title>Volume&#45;&gt;3385</title>
<path fill="none" stroke="red" stroke-width="0.231836" d="M1049.34,-282.673C1038.03,-281.147 1024.07,-279.29 1011.55,-277.706 878.329,-260.831 838.755,-284.763 711.555,-241.706 703.885,-239.109 696.108,-235.261 689.015,-231.176"/>
<polygon fill="red" stroke="red" stroke-width="0.231836" points="690.816,-228.175 680.457,-225.953 687.169,-234.15 690.816,-228.175"/>
</g>
<!-- Volume&#45;&gt;3386 -->
<g id="edge68" class="edge"><title>Volume&#45;&gt;3386</title>
<path fill="none" stroke="red" stroke-width="0.708417" d="M1093.84,-282.332C1151.33,-273.524 1300.65,-249.952 1307.55,-241.706 1328.05,-217.235 1324.76,-179.291 1318.58,-152.225"/>
<polygon fill="red" stroke="red" stroke-width="0.708417" points="1321.95,-151.279 1316.12,-142.436 1315.17,-152.988 1321.95,-151.279"/>
</g>
<!-- Volume&#45;&gt;3387 -->
<g id="edge69" class="edge"><title>Volume&#45;&gt;3387</title>
<path fill="none" stroke="green" stroke-width="0.599478" d="M1049.85,-277.612C1028.34,-269.36 994.643,-255.8 966.555,-241.706 959.317,-238.074 951.707,-233.827 944.637,-229.687"/>
<polygon fill="green" stroke="green" stroke-width="0.599478" points="946.421,-226.676 936.041,-224.555 942.833,-232.686 946.421,-226.676"/>
</g>
<!-- Volume&#45;&gt;3388 -->
<g id="edge70" class="edge"><title>Volume&#45;&gt;3388</title>
<path fill="none" stroke="green" stroke-width="0.158488" d="M1063.69,-277.491C1054.3,-267.697 1038.18,-250.868 1024.58,-236.669"/>
<polygon fill="green" stroke="green" stroke-width="0.158488" points="1026.78,-233.912 1017.34,-229.113 1021.73,-238.755 1026.78,-233.912"/>
</g>
<!-- Shares -->
<g id="node6" class="node"><title>Shares</title>
<polygon fill="lightgray" stroke="black" points="935.555,-295.706 895.555,-295.706 895.555,-277.706 935.555,-277.706 935.555,-295.706"/>
<text text-anchor="middle" x="915.555" y="-284.506" font-family="Times New Roman,serif" font-size="9.00">Shares</text>
</g>
<!-- 12102 -->
<g id="node10" class="node"><title>12102</title>
<ellipse fill="white" stroke="black" cx="361.555" cy="-210.593" rx="27.6545" ry="27.6545"/>
<text text-anchor="middle" x="361.555" y="-208.393" font-family="Times New Roman,serif" font-size="9.00">12102</text>
</g>
<!-- Shares&#45;&gt;12102 -->
<g id="edge130" class="edge"><title>Shares&#45;&gt;12102</title>
<path fill="none" stroke="green" stroke-width="0.450894" d="M895.547,-281.422C888.61,-280.063 880.765,-278.665 873.555,-277.706 665.886,-250.062 600.409,-313.392 403.555,-241.706 399.168,-240.108 394.83,-237.916 390.701,-235.437"/>
<polygon fill="green" stroke="green" stroke-width="0.450894" points="392.321,-232.311 382.061,-229.672 388.436,-238.134 392.321,-232.311"/>
</g>
<!-- Shares&#45;&gt;3375 -->
<g id="edge71" class="edge"><title>Shares&#45;&gt;3375</title>
<path fill="none" stroke="green" stroke-width="0.28509" d="M895.314,-279.452C871.267,-271.744 830.174,-257.688 796.555,-241.706 789.242,-238.229 781.602,-234.042 774.528,-229.91"/>
<polygon fill="green" stroke="green" stroke-width="0.28509" points="776.316,-226.901 765.938,-224.764 772.718,-232.906 776.316,-226.901"/>
</g>
<!-- Shares&#45;&gt;3376 -->
<g id="edge72" class="edge"><title>Shares&#45;&gt;3376</title>
<path fill="none" stroke="red" stroke-width="0.550579" d="M906.133,-277.491C894.321,-267.192 873.587,-249.113 856.82,-234.494"/>
<polygon fill="red" stroke="red" stroke-width="0.550579" points="858.802,-231.578 848.964,-227.644 854.201,-236.854 858.802,-231.578"/>
</g>
<!-- Shares&#45;&gt;3377 -->
<g id="edge73" class="edge"><title>Shares&#45;&gt;3377</title>
<path fill="none" stroke="red" stroke-width="0.152095" stroke-dasharray="1,5" d="M895.553,-281.377C888.617,-280.014 880.771,-278.626 873.555,-277.706 812.915,-269.972 366.343,-286.324 324.555,-241.706 305.65,-221.52 307.136,-200.961 324.555,-179.48 340.23,-160.149 501.347,-134.926 573.241,-124.53"/>
<polygon fill="red" stroke="red" stroke-width="0.152095" points="573.771,-127.99 583.173,-123.106 572.777,-121.061 573.771,-127.99"/>
</g>
<!-- Shares&#45;&gt;3378 -->
<g id="edge74" class="edge"><title>Shares&#45;&gt;3378</title>
<path fill="none" stroke="red" stroke-width="0.134818" d="M935.675,-281.856C943.16,-280.474 951.734,-278.951 959.555,-277.706 1076.07,-259.149 1115.71,-291.729 1222.55,-241.706 1225.74,-240.213 1228.84,-238.304 1231.77,-236.173"/>
<polygon fill="red" stroke="red" stroke-width="0.134818" points="1234.08,-238.806 1239.56,-229.738 1229.62,-233.409 1234.08,-238.806"/>
</g>
<!-- Shares&#45;&gt;3379 -->
<g id="edge75" class="edge"><title>Shares&#45;&gt;3379</title>
<path fill="none" stroke="red" stroke-width="0.615887" d="M895.554,-281.369C888.618,-280.005 880.771,-278.619 873.555,-277.706 811.037,-269.795 350.676,-287.657 307.555,-241.706 288.63,-221.539 295.714,-204.473 307.555,-179.48 316.347,-160.922 334.04,-146.209 349.805,-136.027"/>
<polygon fill="red" stroke="red" stroke-width="0.615887" points="352.061,-138.751 358.782,-130.561 348.421,-132.772 352.061,-138.751"/>
</g>
<!-- Shares&#45;&gt;3380 -->
<g id="edge76" class="edge"><title>Shares&#45;&gt;3380</title>
<path fill="none" stroke="green" stroke-width="0.613651" d="M935.712,-282.055C963.451,-276.423 1014.3,-263.876 1052.55,-241.706 1055.44,-240.033 1058.29,-238.073 1061.03,-235.969"/>
<polygon fill="green" stroke="green" stroke-width="0.613651" points="1063.47,-238.49 1068.86,-229.369 1058.96,-233.137 1063.47,-238.49"/>
</g>
<!-- Shares&#45;&gt;3381 -->
<g id="edge77" class="edge"><title>Shares&#45;&gt;3381</title>
<path fill="none" stroke="green" stroke-width="0.398043" d="M935.844,-281.99C988.932,-272.228 1128.48,-246.289 1137.55,-241.706 1140.7,-240.119 1143.76,-238.149 1146.68,-235.981"/>
<polygon fill="green" stroke="green" stroke-width="0.398043" points="1149.01,-238.595 1154.44,-229.502 1144.52,-233.22 1149.01,-238.595"/>
</g>
<!-- Shares&#45;&gt;3382 -->
<g id="edge78" class="edge"><title>Shares&#45;&gt;3382</title>
<path fill="none" stroke="green" stroke-width="0.310536" d="M935.654,-281.716C943.137,-280.319 951.714,-278.822 959.555,-277.706 1113.49,-255.782 1156.88,-280.115 1307.55,-241.706 1321.33,-238.193 1335.91,-232.5 1348.33,-227.004"/>
<polygon fill="green" stroke="green" stroke-width="0.310536" points="1350.12,-230.031 1357.76,-222.685 1347.21,-223.667 1350.12,-230.031"/>
</g>
<!-- Shares&#45;&gt;3383 -->
<g id="edge79" class="edge"><title>Shares&#45;&gt;3383</title>
<path fill="none" stroke="red" stroke-width="0.572292" d="M935.638,-281.601C943.12,-280.192 951.7,-278.716 959.555,-277.706 1063.89,-264.279 1334.99,-283.434 1431.55,-241.706 1434.79,-240.31 1437.91,-238.462 1440.86,-236.368"/>
<polygon fill="red" stroke="red" stroke-width="0.572292" points="1443.14,-239.02 1448.67,-229.979 1438.71,-233.602 1443.14,-239.02"/>
</g>
<!-- Shares&#45;&gt;3384 -->
<g id="edge80" class="edge"><title>Shares&#45;&gt;3384</title>
<path fill="none" stroke="red" stroke-width="0.368265" d="M935.632,-281.552C943.113,-280.137 951.694,-278.671 959.555,-277.706 1082.67,-262.586 1402.41,-290.249 1516.55,-241.706 1519.79,-240.328 1522.92,-238.493 1525.87,-236.406"/>
<polygon fill="red" stroke="red" stroke-width="0.368265" points="1528.16,-239.062 1533.69,-230.026 1523.73,-233.64 1528.16,-239.062"/>
</g>
<!-- Shares&#45;&gt;3385 -->
<g id="edge81" class="edge"><title>Shares&#45;&gt;3385</title>
<path fill="none" stroke="red" stroke-width="0.498363" d="M895.501,-281.76C847.503,-272.264 728.721,-248.421 711.555,-241.706 704.014,-238.756 696.286,-234.771 689.201,-230.668"/>
<polygon fill="red" stroke="red" stroke-width="0.498363" points="690.997,-227.664 680.631,-225.475 687.37,-233.651 690.997,-227.664"/>
</g>
<!-- Shares&#45;&gt;3386 -->
<g id="edge82" class="edge"><title>Shares&#45;&gt;3386</title>
<path fill="none" stroke="red" stroke-width="0.441501" d="M895.511,-281.665C888.571,-280.325 880.734,-278.878 873.555,-277.706 815.119,-268.163 648.491,-286.312 609.555,-241.706 591.368,-220.871 590.85,-199.852 609.555,-179.48 654.819,-130.182 1137.64,-121.492 1273.29,-120.021"/>
<polygon fill="red" stroke="red" stroke-width="0.441501" points="1273.57,-123.518 1283.53,-119.916 1273.49,-116.518 1273.57,-123.518"/>
</g>
<!-- Shares&#45;&gt;3387 -->
<g id="edge83" class="edge"><title>Shares&#45;&gt;3387</title>
<path fill="none" stroke="green" stroke-width="0.148463" d="M915.555,-277.491C915.555,-269.679 915.555,-257.392 915.555,-245.533"/>
<polygon fill="green" stroke="green" stroke-width="0.148463" points="919.055,-245.345 915.555,-235.345 912.055,-245.345 919.055,-245.345"/>
</g>
<!-- Shares&#45;&gt;3388 -->
<g id="edge84" class="edge"><title>Shares&#45;&gt;3388</title>
<path fill="none" stroke="red" stroke-width="0.246892" stroke-dasharray="1,5" d="M925.231,-277.703C935.743,-268.965 952.986,-254.508 967.555,-241.706 970.06,-239.504 972.655,-237.193 975.238,-234.87"/>
<polygon fill="red" stroke="red" stroke-width="0.246892" points="977.794,-237.277 982.853,-227.969 973.093,-232.09 977.794,-237.277"/>
</g>
<!-- Money -->
<g id="node7" class="node"><title>Money</title>
<polygon fill="lightgray" stroke="black" points="864.555,-295.706 820.555,-295.706 820.555,-277.706 864.555,-277.706 864.555,-295.706"/>
<text text-anchor="middle" x="842.555" y="-284.506" font-family="Times New Roman,serif" font-size="9.00">Money</text>
</g>
<!-- 10012 -->
<g id="node9" class="node"><title>10012</title>
<ellipse fill="white" stroke="black" cx="55.5547" cy="-210.593" rx="27.6545" ry="27.6545"/>
<text text-anchor="middle" x="55.5547" y="-208.393" font-family="Times New Roman,serif" font-size="9.00">10012</text>
</g>
<!-- Money&#45;&gt;10012 -->
<g id="edge128" class="edge"><title>Money&#45;&gt;10012</title>
<path fill="none" stroke="green" stroke-width="0.135124" d="M820.473,-285.218C703.808,-282.532 161.923,-268.68 92.5547,-241.706 89.2114,-240.406 85.9403,-238.683 82.8126,-236.719"/>
<polygon fill="green" stroke="green" stroke-width="0.135124" points="84.5984,-233.692 74.4371,-230.692 80.5098,-239.374 84.5984,-233.692"/>
</g>
<!-- 113125 -->
<g id="node11" class="node"><title>113125</title>
<ellipse fill="white" stroke="black" cx="132.555" cy="-210.593" rx="31.2258" ry="31.2258"/>
<text text-anchor="middle" x="132.555" y="-208.393" font-family="Times New Roman,serif" font-size="9.00">113125</text>
</g>
<!-- Money&#45;&gt;113125 -->
<g id="edge133" class="edge"><title>Money&#45;&gt;113125</title>
<path fill="none" stroke="green" stroke-width="0.243892" d="M820.412,-285.771C719.23,-285.837 300.512,-283.534 177.555,-241.706 173.45,-240.309 169.363,-238.438 165.422,-236.31"/>
<polygon fill="green" stroke="green" stroke-width="0.243892" points="166.922,-233.128 156.548,-230.976 163.315,-239.127 166.922,-233.128"/>
</g>
<!-- Money&#45;&gt;3375 -->
<g id="edge85" class="edge"><title>Money&#45;&gt;3375</title>
<path fill="none" stroke="red" stroke-width="0.321715" d="M831.803,-277.491C817.733,-266.741 792.57,-247.515 773.041,-232.594"/>
<polygon fill="red" stroke="red" stroke-width="0.321715" points="775.137,-229.79 765.066,-226.5 770.887,-235.353 775.137,-229.79"/>
</g>
<!-- Money&#45;&gt;3376 -->
<g id="edge86" class="edge"><title>Money&#45;&gt;3376</title>
<path fill="none" stroke="green" stroke-width="0.821584" d="M841.225,-277.491C839.96,-269.679 837.97,-257.392 836.05,-245.533"/>
<polygon fill="green" stroke="green" stroke-width="0.821584" points="839.454,-244.657 834.401,-235.345 832.544,-245.776 839.454,-244.657"/>
</g>
<!-- Money&#45;&gt;3377 -->
<g id="edge87" class="edge"><title>Money&#45;&gt;3377</title>
<path fill="none" stroke="green" stroke-width="0.380648" d="M820.462,-285.786C718.046,-285.934 292.792,-283.983 253.555,-241.706 234.742,-221.435 235.7,-200.6 253.555,-179.48 263.898,-167.245 486.048,-136.113 573.049,-124.338"/>
<polygon fill="green" stroke="green" stroke-width="0.380648" points="573.523,-127.806 582.965,-123 572.587,-120.868 573.523,-127.806"/>
</g>
<!-- Money&#45;&gt;3378 -->
<g id="edge88" class="edge"><title>Money&#45;&gt;3378</title>
<path fill="none" stroke="red" stroke-width="0.538139" d="M864.887,-281.319C871.814,-280.046 879.485,-278.726 886.555,-277.706 1035.2,-256.258 1085.62,-303.386 1222.55,-241.706 1225.76,-240.26 1228.87,-238.381 1231.81,-236.268"/>
<polygon fill="red" stroke="red" stroke-width="0.538139" points="1234.11,-238.91 1239.61,-229.856 1229.67,-233.503 1234.11,-238.91"/>
</g>
<!-- Money&#45;&gt;3379 -->
<g id="edge89" class="edge"><title>Money&#45;&gt;3379</title>
<path fill="none" stroke="green" stroke-width="0.158404" stroke-dasharray="1,5" d="M820.502,-285.375C692.232,-283.344 46.9529,-271.661 18.5547,-241.706 -78.8109,-139.002 237.678,-122.767 345.721,-120.208"/>
<polygon fill="green" stroke="green" stroke-width="0.158404" points="345.874,-123.706 355.798,-119.995 345.726,-116.707 345.874,-123.706"/>
</g>
<!-- Money&#45;&gt;3380 -->
<g id="edge90" class="edge"><title>Money&#45;&gt;3380</title>
<path fill="none" stroke="green" stroke-width="0.259109" d="M864.749,-281.383C917.023,-271.156 1044.14,-246.013 1052.55,-241.706 1055.69,-240.102 1058.75,-238.121 1061.66,-235.946"/>
<polygon fill="green" stroke="green" stroke-width="0.259109" points="1063.99,-238.557 1069.42,-229.459 1059.5,-233.186 1063.99,-238.557"/>
</g>
<!-- Money&#45;&gt;3381 -->
<g id="edge91" class="edge"><title>Money&#45;&gt;3381</title>
<path fill="none" stroke="green" stroke-width="0.329727" d="M864.911,-281.474C871.839,-280.207 879.504,-278.852 886.555,-277.706 997.792,-259.623 1035.64,-289.817 1137.55,-241.706 1140.74,-240.203 1143.83,-238.287 1146.76,-236.152"/>
<polygon fill="green" stroke="green" stroke-width="0.329727" points="1149.07,-238.783 1154.55,-229.713 1144.61,-233.389 1149.07,-238.783"/>
</g>
<!-- Money&#45;&gt;3382 -->
<g id="edge92" class="edge"><title>Money&#45;&gt;3382</title>
<path fill="none" stroke="red" stroke-width="0.221148" d="M864.874,-281.225C871.8,-279.949 879.474,-278.65 886.555,-277.706 1072.7,-252.881 1125.18,-286.475 1307.55,-241.706 1321.36,-238.316 1335.95,-232.645 1348.36,-227.132"/>
<polygon fill="red" stroke="red" stroke-width="0.221148" points="1350.16,-230.154 1357.78,-222.792 1347.24,-223.796 1350.16,-230.154"/>
</g>
<!-- Money&#45;&gt;3383 -->
<g id="edge93" class="edge"><title>Money&#45;&gt;3383</title>
<path fill="none" stroke="red" stroke-width="0.137298" d="M864.863,-281.141C871.789,-279.861 879.466,-278.581 886.555,-277.706 1007.01,-262.825 1319.89,-289.286 1431.55,-241.706 1434.79,-240.326 1437.92,-238.489 1440.87,-236.401"/>
<polygon fill="red" stroke="red" stroke-width="0.137298" points="1443.15,-239.057 1448.68,-230.02 1438.73,-233.636 1443.15,-239.057"/>
</g>
<!-- Money&#45;&gt;3384 -->
<g id="edge94" class="edge"><title>Money&#45;&gt;3384</title>
<path fill="none" stroke="green" stroke-width="0.463458" d="M864.858,-281.102C871.784,-279.821 879.462,-278.55 886.555,-277.706 1025.8,-261.132 1387.31,-296.104 1516.55,-241.706 1519.8,-240.34 1522.93,-238.513 1525.88,-236.43"/>
<polygon fill="green" stroke="green" stroke-width="0.463458" points="1528.16,-239.089 1533.7,-230.056 1523.74,-233.665 1528.16,-239.089"/>
</g>
<!-- Money&#45;&gt;3385 -->
<g id="edge95" class="edge"><title>Money&#45;&gt;3385</title>
<path fill="none" stroke="red" stroke-width="0.772383" d="M820.226,-279.754C793.71,-272.337 748.431,-258.56 711.555,-241.706 704.19,-238.34 696.53,-234.195 689.454,-230.069"/>
<polygon fill="red" stroke="red" stroke-width="0.772383" points="691.244,-227.061 680.869,-224.914 687.64,-233.062 691.244,-227.061"/>
</g>
<!-- Money&#45;&gt;3386 -->
<g id="edge96" class="edge"><title>Money&#45;&gt;3386</title>
<path fill="none" stroke="green" stroke-width="0.148203" d="M820.2,-285.282C764.439,-283.706 621.596,-276.304 592.555,-241.706 574.775,-220.523 573.83,-199.833 592.555,-179.48 639.065,-128.927 1135.68,-121.134 1273.35,-119.944"/>
<polygon fill="green" stroke="green" stroke-width="0.148203" points="1273.76,-123.441 1283.73,-119.861 1273.7,-116.441 1273.76,-123.441"/>
</g>
<!-- Money&#45;&gt;3387 -->
<g id="edge97" class="edge"><title>Money&#45;&gt;3387</title>
<path fill="none" stroke="green" stroke-width="0.438392" d="M850.646,-277.491C860.446,-267.542 877.395,-250.334 891.517,-235.997"/>
<polygon fill="green" stroke="green" stroke-width="0.438392" points="894.067,-238.396 898.591,-228.816 889.08,-233.484 894.067,-238.396"/>
</g>
<!-- Money&#45;&gt;3388 -->
<g id="edge98" class="edge"><title>Money&#45;&gt;3388</title>
<path fill="none" stroke="green" stroke-width="0.470447" d="M864.953,-280.716C890.917,-274.296 934.385,-261.547 967.555,-241.706 970.417,-239.994 973.248,-238.007 975.979,-235.887"/>
<polygon fill="green" stroke="green" stroke-width="0.470447" points="978.429,-238.398 983.798,-229.264 973.905,-233.057 978.429,-238.398"/>
</g>
<!-- Decide -->
<g id="node8" class="node"><title>Decide</title>
<ellipse fill="lightblue" stroke="black" cx="1053.55" cy="-28.9914" rx="28.9828" ry="28.9828"/>
<text text-anchor="middle" x="1053.55" y="-26.7914" font-family="Times New Roman,serif" font-size="9.00">Decide</text>
</g>
<!-- Decide&#45;&gt;Decide -->
<g id="edge113" class="edge"><title>Decide&#45;&gt;Decide</title>
<path fill="none" stroke="red" stroke-width="0.248355" d="M1077.73,-45.004C1089.79,-47.2195 1100.55,-41.882 1100.55,-28.9914 1100.55,-19.9277 1095.23,-14.5981 1087.88,-13.0026"/>
<polygon fill="red" stroke="red" stroke-width="0.248355" points="1087.74,-9.50239 1077.73,-12.9788 1087.72,-16.5024 1087.74,-9.50239"/>
</g>
<!-- 10012&#45;&gt;3379 -->
<g id="edge129" class="edge"><title>10012&#45;&gt;3379</title>
<path fill="none" stroke="red" stroke-width="0.316589" d="M75.0978,-190.811C80.4211,-186.534 86.4214,-182.397 92.5547,-179.48 177.688,-139.001 289.798,-125.832 345.711,-121.636"/>
<polygon fill="red" stroke="red" stroke-width="0.316589" points="346.067,-125.119 355.799,-120.931 345.58,-118.136 346.067,-125.119"/>
</g>
<!-- 12102&#45;&gt;3377 -->
<g id="edge131" class="edge"><title>12102&#45;&gt;3377</title>
<path fill="none" stroke="red" stroke-width="0.110476" d="M382.475,-192.491C388.95,-187.79 396.296,-183.018 403.555,-179.48 460.133,-151.907 531.866,-134.555 573.451,-126.042"/>
<polygon fill="red" stroke="red" stroke-width="0.110476" points="574.224,-129.457 583.346,-124.068 572.855,-122.592 574.224,-129.457"/>
</g>
<!-- 113125&#45;&gt;3379 -->
<g id="edge134" class="edge"><title>113125&#45;&gt;3379</title>
<path fill="none" stroke="green" stroke-width="0.211139" d="M156.987,-191.301C163.448,-187.014 170.574,-182.749 177.555,-179.48 234.142,-152.979 305.146,-135.318 346.43,-126.448"/>
<polygon fill="green" stroke="green" stroke-width="0.211139" points="347.193,-129.865 356.259,-124.383 345.753,-123.014 347.193,-129.865"/>
</g>
<!-- 3375&#45;&gt;Decide -->
<g id="edge99" class="edge"><title>3375&#45;&gt;Decide</title>
<path fill="none" stroke="green" stroke-width="0.122919" d="M764.196,-193.896C792.976,-170.171 850.562,-124.694 904.555,-93.9828 941.21,-73.133 985.981,-54.7743 1016.82,-43.1296"/>
<polygon fill="green" stroke="green" stroke-width="0.122919" points="1018.17,-46.3624 1026.32,-39.5901 1015.73,-39.8032 1018.17,-46.3624"/>
</g>
<!-- 3375&#45;&gt;3375 -->
<g id="edge114" class="edge"><title>3375&#45;&gt;3375</title>
<path fill="none" stroke="red" stroke-width="0.319078" d="M766.67,-224.255C777.99,-226.577 788.303,-222.023 788.303,-210.593 788.303,-202.735 783.429,-198.127 776.704,-196.769"/>
<polygon fill="red" stroke="red" stroke-width="0.319078" points="776.612,-193.27 766.67,-196.931 776.725,-200.269 776.612,-193.27"/>
</g>
<!-- 3376&#45;&gt;Decide -->
<g id="edge100" class="edge"><title>3376&#45;&gt;Decide</title>
<path fill="none" stroke="red" stroke-width="0.386316" d="M848.332,-193.365C873.599,-170.509 921.605,-127.843 964.555,-93.9828 982.881,-79.5349 1004.07,-64.2457 1021.18,-52.2362"/>
<polygon fill="red" stroke="red" stroke-width="0.386316" points="1023.52,-54.871 1029.71,-46.2767 1019.51,-49.1314 1023.52,-54.871"/>
</g>
<!-- 3376&#45;&gt;3376 -->
<g id="edge115" class="edge"><title>3376&#45;&gt;3376</title>
<path fill="none" stroke="red" stroke-width="0.220311" d="M851.67,-224.255C862.99,-226.577 873.303,-222.023 873.303,-210.593 873.303,-202.735 868.429,-198.127 861.704,-196.769"/>
<polygon fill="red" stroke="red" stroke-width="0.220311" points="861.612,-193.27 851.67,-196.931 861.725,-200.269 861.612,-193.27"/>
</g>
<!-- 3377&#45;&gt;Decide -->
<g id="edge101" class="edge"><title>3377&#45;&gt;Decide</title>
<path fill="none" stroke="green" stroke-width="0.342411" d="M630.862,-109.925C646.489,-104.889 667.601,-98.4672 686.555,-93.9828 804.846,-65.9954 947.258,-44.6116 1014.62,-35.2202"/>
<polygon fill="green" stroke="green" stroke-width="0.342411" points="1015.34,-38.6534 1024.77,-33.8168 1014.38,-31.7194 1015.34,-38.6534"/>
</g>
<!-- 3377&#45;&gt;3377 -->
<g id="edge116" class="edge"><title>3377&#45;&gt;3377</title>
<path fill="none" stroke="green" stroke-width="0.567756" d="M627.343,-134.2C639.171,-137.638 650.303,-132.481 650.303,-118.731 650.303,-109.064 644.8,-103.644 637.42,-102.473"/>
<polygon fill="green" stroke="green" stroke-width="0.567756" points="637.039,-98.9925 627.343,-103.263 637.586,-105.971 637.039,-98.9925"/>
</g>
<!-- 3378&#45;&gt;Decide -->
<g id="edge102" class="edge"><title>3378&#45;&gt;Decide</title>
<path fill="none" stroke="red" stroke-width="0.245733" d="M1237.79,-193.289C1232.87,-188.799 1227.52,-183.938 1222.55,-179.48 1173.73,-135.613 1116.41,-85.1252 1082.64,-55.4787"/>
<polygon fill="red" stroke="red" stroke-width="0.245733" points="1084.82,-52.7293 1074.99,-48.7645 1080.2,-57.9909 1084.82,-52.7293"/>
</g>
<!-- 3378&#45;&gt;3378 -->
<g id="edge117" class="edge"><title>3378&#45;&gt;3378</title>
<path fill="none" stroke="red" stroke-width="0.117368" d="M1276.67,-224.255C1287.99,-226.577 1298.3,-222.023 1298.3,-210.593 1298.3,-202.735 1293.43,-198.127 1286.7,-196.769"/>
<polygon fill="red" stroke="red" stroke-width="0.117368" points="1286.61,-193.27 1276.67,-196.931 1286.73,-200.269 1286.61,-193.27"/>
</g>
<!-- 3379&#45;&gt;Decide -->
<g id="edge103" class="edge"><title>3379&#45;&gt;Decide</title>
<path fill="none" stroke="green" stroke-width="0.486591" d="M405.305,-114.505C506.694,-101.287 890.772,-51.2136 1014.73,-35.053"/>
<polygon fill="green" stroke="green" stroke-width="0.486591" points="1015.43,-38.4916 1024.89,-33.7281 1014.52,-31.5504 1015.43,-38.4916"/>
</g>
<!-- 3379&#45;&gt;3379 -->
<g id="edge118" class="edge"><title>3379&#45;&gt;3379</title>
<path fill="none" stroke="red" stroke-width="0.528282" d="M400.343,-134.2C412.171,-137.638 423.303,-132.481 423.303,-118.731 423.303,-109.064 417.8,-103.644 410.42,-102.473"/>
<polygon fill="red" stroke="red" stroke-width="0.528282" points="410.039,-98.9925 400.343,-103.263 410.586,-105.971 410.039,-98.9925"/>
</g>
<!-- 3380&#45;&gt;Decide -->
<g id="edge104" class="edge"><title>3380&#45;&gt;Decide</title>
<path fill="none" stroke="red" stroke-width="0.531079" d="M1081.37,-186.113C1076.01,-155.997 1066.63,-103.395 1060.26,-67.653"/>
<polygon fill="red" stroke="red" stroke-width="0.531079" points="1063.67,-66.8302 1058.47,-57.5992 1056.78,-68.0581 1063.67,-66.8302"/>
</g>
<!-- 3380&#45;&gt;3380 -->
<g id="edge119" class="edge"><title>3380&#45;&gt;3380</title>
<path fill="none" stroke="red" stroke-width="0.478223" d="M1106.67,-224.255C1117.99,-226.577 1128.3,-222.023 1128.3,-210.593 1128.3,-202.735 1123.43,-198.127 1116.7,-196.769"/>
<polygon fill="red" stroke="red" stroke-width="0.478223" points="1116.61,-193.27 1106.67,-196.931 1116.73,-200.269 1116.61,-193.27"/>
</g>
<!-- 3381&#45;&gt;Decide -->
<g id="edge105" class="edge"><title>3381&#45;&gt;Decide</title>
<path fill="none" stroke="red" stroke-width="0.169264" d="M1157.36,-189.339C1137.22,-158.425 1098.62,-99.1764 1074.59,-62.2831"/>
<polygon fill="red" stroke="red" stroke-width="0.169264" points="1077.5,-60.3357 1069.11,-53.8672 1071.63,-64.1565 1077.5,-60.3357"/>
</g>
<!-- 3381&#45;&gt;3381 -->
<g id="edge120" class="edge"><title>3381&#45;&gt;3381</title>
<path fill="none" stroke="green" stroke-width="0.46116" stroke-dasharray="1,5" d="M1191.67,-224.255C1202.99,-226.577 1213.3,-222.023 1213.3,-210.593 1213.3,-202.735 1208.43,-198.127 1201.7,-196.769"/>
<polygon fill="green" stroke="green" stroke-width="0.46116" points="1201.61,-193.27 1191.67,-196.931 1201.73,-200.269 1201.61,-193.27"/>
</g>
<!-- 3382&#45;&gt;Decide -->
<g id="edge106" class="edge"><title>3382&#45;&gt;Decide</title>
<path fill="none" stroke="red" stroke-width="0.20095" d="M1382.82,-185.812C1384.97,-159.735 1383.92,-118.362 1360.55,-93.9828 1324.07,-55.9073 1167,-38.8135 1092.74,-32.75"/>
<polygon fill="red" stroke="red" stroke-width="0.20095" points="1092.66,-29.2323 1082.41,-31.9342 1092.1,-36.2106 1092.66,-29.2323"/>
</g>
<!-- 3382&#45;&gt;3382 -->
<g id="edge121" class="edge"><title>3382&#45;&gt;3382</title>
<path fill="none" stroke="red" stroke-width="0.415106" d="M1400.67,-224.255C1411.99,-226.577 1422.3,-222.023 1422.3,-210.593 1422.3,-202.735 1417.43,-198.127 1410.7,-196.769"/>
<polygon fill="red" stroke="red" stroke-width="0.415106" points="1410.61,-193.27 1400.67,-196.931 1410.73,-200.269 1410.61,-193.27"/>
</g>
<!-- 3382&#45;&gt;3386 -->
<g id="edge132" class="edge"><title>3382&#45;&gt;3386</title>
<path fill="none" stroke="red" stroke-width="0.137055" d="M1364.5,-190.536C1354.43,-177.788 1341.02,-160.825 1329.86,-146.698"/>
<polygon fill="red" stroke="red" stroke-width="0.137055" points="1332.54,-144.438 1323.59,-138.761 1327.04,-148.778 1332.54,-144.438"/>
</g>
<!-- 3383&#45;&gt;Decide -->
<g id="edge107" class="edge"><title>3383&#45;&gt;Decide</title>
<path fill="none" stroke="red" stroke-width="0.332164" d="M1455.7,-187.365C1443.88,-160.714 1420.31,-116.794 1385.55,-93.9828 1337.63,-62.5256 1169.58,-41.8202 1092.6,-33.7713"/>
<polygon fill="red" stroke="red" stroke-width="0.332164" points="1092.67,-30.2601 1082.37,-32.7198 1091.96,-37.2234 1092.67,-30.2601"/>
</g>
<!-- 3383&#45;&gt;3383 -->
<g id="edge122" class="edge"><title>3383&#45;&gt;3383</title>
<path fill="none" stroke="red" stroke-width="0.158002" d="M1485.67,-224.255C1496.99,-226.577 1507.3,-222.023 1507.3,-210.593 1507.3,-202.735 1502.43,-198.127 1495.7,-196.769"/>
<polygon fill="red" stroke="red" stroke-width="0.158002" points="1495.61,-193.27 1485.67,-196.931 1495.73,-200.269 1495.61,-193.27"/>
</g>
<!-- 3384&#45;&gt;Decide -->
<g id="edge108" class="edge"><title>3384&#45;&gt;Decide</title>
<path fill="none" stroke="red" stroke-width="0.16389" d="M1534.8,-190.427C1513.37,-164.08 1470.98,-117.293 1423.55,-93.9828 1312.54,-39.4156 1162.81,-30.584 1092.75,-29.6671"/>
<polygon fill="red" stroke="red" stroke-width="0.16389" points="1092.64,-26.1661 1082.61,-29.5833 1092.58,-33.1659 1092.64,-26.1661"/>
</g>
<!-- 3384&#45;&gt;3384 -->
<g id="edge123" class="edge"><title>3384&#45;&gt;3384</title>
<path fill="none" stroke="green" stroke-width="0.198046" d="M1570.67,-224.255C1581.99,-226.577 1592.3,-222.023 1592.3,-210.593 1592.3,-202.735 1587.43,-198.127 1580.7,-196.769"/>
<polygon fill="green" stroke="green" stroke-width="0.198046" points="1580.61,-193.27 1570.67,-196.931 1580.73,-200.269 1580.61,-193.27"/>
</g>
<!-- 3385&#45;&gt;Decide -->
<g id="edge109" class="edge"><title>3385&#45;&gt;Decide</title>
<path fill="none" stroke="green" stroke-width="0.140518" d="M678.959,-193.886C708.61,-169.313 769.611,-121.726 828.555,-93.9828 890.899,-64.639 969.437,-46.0826 1015.32,-36.904"/>
<polygon fill="green" stroke="green" stroke-width="0.140518" points="1016,-40.3362 1025.15,-34.9818 1014.66,-33.4663 1016,-40.3362"/>
</g>
<!-- 3385&#45;&gt;3385 -->
<g id="edge124" class="edge"><title>3385&#45;&gt;3385</title>
<path fill="none" stroke="red" stroke-width="0.148928" d="M681.67,-224.255C692.99,-226.577 703.303,-222.023 703.303,-210.593 703.303,-202.735 698.429,-198.127 691.704,-196.769"/>
<polygon fill="red" stroke="red" stroke-width="0.148928" points="691.612,-193.27 681.67,-196.931 691.725,-200.269 691.612,-193.27"/>
</g>
<!-- 3386&#45;&gt;Decide -->
<g id="edge110" class="edge"><title>3386&#45;&gt;Decide</title>
<path fill="none" stroke="green" stroke-width="0.246142" d="M1285.48,-109.79C1241.25,-94.5726 1144.21,-61.1835 1090.74,-42.7845"/>
<polygon fill="green" stroke="green" stroke-width="0.246142" points="1091.56,-39.3668 1080.97,-39.4228 1089.28,-45.986 1091.56,-39.3668"/>
</g>
<!-- 3386&#45;&gt;3386 -->
<g id="edge125" class="edge"><title>3386&#45;&gt;3386</title>
<path fill="none" stroke="green" stroke-width="0.131156" d="M1328.34,-134.2C1340.17,-137.638 1351.3,-132.481 1351.3,-118.731 1351.3,-109.064 1345.8,-103.644 1338.42,-102.473"/>
<polygon fill="green" stroke="green" stroke-width="0.131156" points="1338.04,-98.9925 1328.34,-103.263 1338.59,-105.971 1338.04,-98.9925"/>
</g>
<!-- 3387&#45;&gt;Decide -->
<g id="edge111" class="edge"><title>3387&#45;&gt;Decide</title>
<path fill="none" stroke="red" stroke-width="0.331017" d="M930.323,-190.372C954.241,-159.244 1001.64,-97.5507 1030.18,-60.4126"/>
<polygon fill="red" stroke="red" stroke-width="0.331017" points="1032.99,-62.4936 1036.31,-52.4315 1027.44,-58.2286 1032.99,-62.4936"/>
</g>
<!-- 3387&#45;&gt;3387 -->
<g id="edge126" class="edge"><title>3387&#45;&gt;3387</title>
<path fill="none" stroke="green" stroke-width="0.107057" d="M936.67,-224.255C947.99,-226.577 958.303,-222.023 958.303,-210.593 958.303,-202.735 953.429,-198.127 946.704,-196.769"/>
<polygon fill="green" stroke="green" stroke-width="0.107057" points="946.612,-193.27 936.67,-196.931 946.725,-200.269 946.612,-193.27"/>
</g>
<!-- 3388&#45;&gt;Decide -->
<g id="edge112" class="edge"><title>3388&#45;&gt;Decide</title>
<path fill="none" stroke="red" stroke-width="0.405403" d="M1007.38,-186.481C1016.32,-156.171 1032.12,-102.64 1042.71,-66.7419"/>
<polygon fill="red" stroke="red" stroke-width="0.405403" points="1046.08,-67.6999 1045.55,-57.1181 1039.36,-65.7186 1046.08,-67.6999"/>
</g>
<!-- 3388&#45;&gt;3388 -->
<g id="edge127" class="edge"><title>3388&#45;&gt;3388</title>
<path fill="none" stroke="green" stroke-width="0.311971" d="M1021.67,-224.255C1032.99,-226.577 1043.3,-222.023 1043.3,-210.593 1043.3,-202.735 1038.43,-198.127 1031.7,-196.769"/>
<polygon fill="green" stroke="green" stroke-width="0.311971" points="1031.61,-193.27 1021.67,-196.931 1031.73,-200.269 1031.61,-193.27"/>
</g>
</g>
</svg>
