<?xml version="1.0" encoding="UTF-8" standalone="no"?>
<!DOCTYPE svg PUBLIC "-//W3C//DTD SVG 1.1//EN"
 "http://www.w3.org/Graphics/SVG/1.1/DTD/svg11.dtd">
<!-- Generated by graphviz version 2.38.0 (20140413.2041)
 -->
<!-- Title: %3 Pages: 1 -->
<svg width="266pt" height="124pt"
 viewBox="0.00 0.00 265.50 124.23" xmlns="http://www.w3.org/2000/svg" xmlns:xlink="http://www.w3.org/1999/xlink">
<g id="graph0" class="graph" transform="scale(1 1) rotate(0) translate(4 120.225)">
<title>%3</title>
<polygon fill="white" stroke="none" points="-4,4 -4,-120.225 261.5,-120.225 261.5,4 -4,4"/>
<!-- Open -->
<g id="node1" class="node"><title>Open</title>
<polygon fill="lightgray" stroke="black" points="37,-116.225 0,-116.225 0,-98.2254 37,-98.2254 37,-116.225"/>
<text text-anchor="middle" x="18.5" y="-105.025" font-family="Times New Roman,serif" font-size="9.00">Open</text>
</g>
<!-- High -->
<g id="node2" class="node"><title>High</title>
<polygon fill="lightgray" stroke="black" points="195.5,-116.225 161.5,-116.225 161.5,-98.2254 195.5,-98.2254 195.5,-116.225"/>
<text text-anchor="middle" x="178.5" y="-105.025" font-family="Times New Roman,serif" font-size="9.00">High</text>
</g>
<!-- Decide -->
<g id="node6" class="node"><title>Decide</title>
<ellipse fill="lightblue" stroke="black" cx="100.5" cy="-31.1127" rx="28.9828" ry="28.9828"/>
<text text-anchor="middle" x="100.5" y="-28.9127" font-family="Times New Roman,serif" font-size="9.00">Decide</text>
</g>
<!-- High&#45;&gt;Decide -->
<g id="edge1" class="edge"><title>High&#45;&gt;Decide</title>
<path fill="none" stroke="red" stroke-width="0.453717" stroke-dasharray="1,5" d="M169.855,-98.0109C159.924,-88.5754 143.122,-72.6109 128.544,-58.7587"/>
<polygon fill="red" stroke="red" stroke-width="0.453717" points="130.831,-56.104 121.171,-51.7532 126.009,-61.1786 130.831,-56.104"/>
</g>
<!-- 377118 -->
<g id="node7" class="node"><title>377118</title>
<ellipse fill="white" stroke="black" cx="178.5" cy="-31.1127" rx="31.2258" ry="31.2258"/>
<text text-anchor="middle" x="178.5" y="-28.9127" font-family="Times New Roman,serif" font-size="9.00">377118</text>
</g>
<!-- High&#45;&gt;377118 -->
<g id="edge4" class="edge"><title>High&#45;&gt;377118</title>
<path fill="none" stroke="green" stroke-width="0.331649" d="M178.5,-98.0109C178.5,-91.6334 178.5,-82.2732 178.5,-72.5985"/>
<polygon fill="green" stroke="green" stroke-width="0.331649" points="182,-72.5144 178.5,-62.5145 175,-72.5145 182,-72.5144"/>
</g>
<!-- Low -->
<g id="node3" class="node"><title>Low</title>
<polygon fill="lightgray" stroke="black" points="143,-116.225 110,-116.225 110,-98.2254 143,-98.2254 143,-116.225"/>
<text text-anchor="middle" x="126.5" y="-105.025" font-family="Times New Roman,serif" font-size="9.00">Low</text>
</g>
<!-- Low&#45;&gt;Decide -->
<g id="edge3" class="edge"><title>Low&#45;&gt;Decide</title>
<path fill="none" stroke="green" stroke-width="0.19192" d="M123.618,-98.0109C121.062,-90.7236 117.139,-79.5418 113.247,-68.4465"/>
<polygon fill="green" stroke="green" stroke-width="0.19192" points="116.482,-67.0959 109.869,-58.8184 109.877,-69.4132 116.482,-67.0959"/>
</g>
<!-- Low&#45;&gt;377118 -->
<g id="edge5" class="edge"><title>Low&#45;&gt;377118</title>
<path fill="none" stroke="red" stroke-width="0.125268" d="M132.264,-98.0109C137.85,-90.0493 146.697,-77.4393 155.164,-65.3721"/>
<polygon fill="red" stroke="red" stroke-width="0.125268" points="158.042,-67.3647 160.92,-57.1683 152.311,-63.3441 158.042,-67.3647"/>
</g>
<!-- Close -->
<g id="node4" class="node"><title>Close</title>
<polygon fill="lightgray" stroke="black" points="92,-116.225 55,-116.225 55,-98.2254 92,-98.2254 92,-116.225"/>
<text text-anchor="middle" x="73.5" y="-105.025" font-family="Times New Roman,serif" font-size="9.00">Close</text>
</g>
<!-- Close&#45;&gt;Decide -->
<g id="edge2" class="edge"><title>Close&#45;&gt;Decide</title>
<path fill="none" stroke="green" stroke-width="0.21441" stroke-dasharray="1,5" d="M76.4926,-98.0109C79.1687,-90.6653 83.2864,-79.3627 87.3602,-68.1802"/>
<polygon fill="green" stroke="green" stroke-width="0.21441" points="90.7572,-69.0806 90.8917,-58.4866 84.1801,-66.6845 90.7572,-69.0806"/>
</g>
<!-- Volume -->
<g id="node5" class="node"><title>Volume</title>
<polygon fill="lightgray" stroke="black" points="257.5,-116.225 213.5,-116.225 213.5,-98.2254 257.5,-98.2254 257.5,-116.225"/>
<text text-anchor="middle" x="235.5" y="-105.025" font-family="Times New Roman,serif" font-size="9.00">Volume</text>
</g>
</g>
</svg>
