<?xml version="1.0" encoding="UTF-8" standalone="no"?>
<!DOCTYPE svg PUBLIC "-//W3C//DTD SVG 1.1//EN"
 "http://www.w3.org/Graphics/SVG/1.1/DTD/svg11.dtd">
<!-- Generated by graphviz version 2.38.0 (20140413.2041)
 -->
<!-- Title: %3 Pages: 1 -->
<svg width="1180pt" height="218pt"
 viewBox="0.00 0.00 1180.50 218.21" xmlns="http://www.w3.org/2000/svg" xmlns:xlink="http://www.w3.org/1999/xlink">
<g id="graph0" class="graph" transform="scale(1 1) rotate(0) translate(4 214.208)">
<title>%3</title>
<polygon fill="white" stroke="none" points="-4,4 -4,-214.208 1176.5,-214.208 1176.5,4 -4,4"/>
<!-- Open -->
<g id="node1" class="node"><title>Open</title>
<polygon fill="lightgray" stroke="black" points="489.249,-210.208 452.249,-210.208 452.249,-192.208 489.249,-192.208 489.249,-210.208"/>
<text text-anchor="middle" x="470.749" y="-199.008" font-family="Times New Roman,serif" font-size="9.00">Open</text>
</g>
<!-- 2048 -->
<g id="node12" class="node"><title>2048</title>
<ellipse fill="white" stroke="black" cx="704.749" cy="-131.459" rx="25" ry="25"/>
<text text-anchor="middle" x="704.749" y="-129.259" font-family="Times New Roman,serif" font-size="9.00">2048</text>
</g>
<!-- Open&#45;&gt;2048 -->
<g id="edge1" class="edge"><title>Open&#45;&gt;2048</title>
<path fill="none" stroke="red" stroke-width="0.155871" d="M489.374,-194.681C492.494,-193.815 495.705,-192.959 498.749,-192.208 575.001,-173.408 599.863,-187.836 671.749,-156.208 673.59,-155.398 675.43,-154.474 677.247,-153.471"/>
<polygon fill="red" stroke="red" stroke-width="0.155871" points="679.415,-156.243 686.03,-147.968 675.698,-150.312 679.415,-156.243"/>
</g>
<!-- 2049 -->
<g id="node13" class="node"><title>2049</title>
<ellipse fill="white" stroke="black" cx="789.749" cy="-131.459" rx="25" ry="25"/>
<text text-anchor="middle" x="789.749" y="-129.259" font-family="Times New Roman,serif" font-size="9.00">2049</text>
</g>
<!-- Open&#45;&gt;2049 -->
<g id="edge2" class="edge"><title>Open&#45;&gt;2049</title>
<path fill="none" stroke="green" stroke-width="0.151477" d="M489.334,-194.506C492.459,-193.661 495.682,-192.857 498.749,-192.208 612.02,-168.246 649.283,-199.283 756.749,-156.208 758.616,-155.46 760.477,-154.584 762.309,-153.617"/>
<polygon fill="green" stroke="green" stroke-width="0.151477" points="764.434,-156.42 771.132,-148.211 760.777,-150.451 764.434,-156.42"/>
</g>
<!-- 2050 -->
<g id="node14" class="node"><title>2050</title>
<ellipse fill="white" stroke="black" cx="874.749" cy="-131.459" rx="25" ry="25"/>
<text text-anchor="middle" x="874.749" y="-129.259" font-family="Times New Roman,serif" font-size="9.00">2050</text>
</g>
<!-- Open&#45;&gt;2050 -->
<g id="edge3" class="edge"><title>Open&#45;&gt;2050</title>
<path fill="none" stroke="green" stroke-width="0.673489" d="M489.316,-194.416C492.442,-193.581 495.672,-192.805 498.749,-192.208 649.23,-163.043 698.52,-210.805 841.749,-156.208 843.628,-155.492 845.499,-154.64 847.338,-153.693"/>
<polygon fill="green" stroke="green" stroke-width="0.673489" points="849.441,-156.512 856.182,-148.338 845.815,-150.524 849.441,-156.512"/>
</g>
<!-- 2051 -->
<g id="node15" class="node"><title>2051</title>
<ellipse fill="white" stroke="black" cx="959.749" cy="-131.459" rx="25" ry="25"/>
<text text-anchor="middle" x="959.749" y="-129.259" font-family="Times New Roman,serif" font-size="9.00">2051</text>
</g>
<!-- Open&#45;&gt;2051 -->
<g id="edge4" class="edge"><title>Open&#45;&gt;2051</title>
<path fill="none" stroke="red" stroke-width="0.218119" d="M489.305,-194.361C492.433,-193.533 495.666,-192.773 498.749,-192.208 686.521,-157.825 747.682,-222.356 926.749,-156.208 928.636,-155.511 930.512,-154.675 932.355,-153.739"/>
<polygon fill="red" stroke="red" stroke-width="0.218119" points="934.444,-156.567 941.211,-148.415 930.837,-150.568 934.444,-156.567"/>
</g>
<!-- 2052 -->
<g id="node16" class="node"><title>2052</title>
<ellipse fill="white" stroke="black" cx="1044.75" cy="-131.459" rx="25" ry="25"/>
<text text-anchor="middle" x="1044.75" y="-129.259" font-family="Times New Roman,serif" font-size="9.00">2052</text>
</g>
<!-- Open&#45;&gt;2052 -->
<g id="edge5" class="edge"><title>Open&#45;&gt;2052</title>
<path fill="none" stroke="green" stroke-width="0.448645" d="M489.299,-194.324C492.428,-193.501 495.662,-192.751 498.749,-192.208 723.851,-152.598 796.805,-233.921 1011.75,-156.208 1013.64,-155.524 1015.52,-154.698 1017.37,-153.77"/>
<polygon fill="green" stroke="green" stroke-width="0.448645" points="1019.45,-156.605 1026.23,-148.466 1015.85,-150.598 1019.45,-156.605"/>
</g>
<!-- 2053 -->
<g id="node17" class="node"><title>2053</title>
<ellipse fill="white" stroke="black" cx="1129.75" cy="-131.459" rx="25" ry="25"/>
<text text-anchor="middle" x="1129.75" y="-129.259" font-family="Times New Roman,serif" font-size="9.00">2053</text>
</g>
<!-- Open&#45;&gt;2053 -->
<g id="edge6" class="edge"><title>Open&#45;&gt;2053</title>
<path fill="none" stroke="red" stroke-width="0.220799" d="M489.294,-194.298C492.424,-193.477 495.659,-192.736 498.749,-192.208 629.977,-169.788 971.328,-200.851 1096.75,-156.208 1098.64,-155.534 1100.53,-154.715 1102.37,-153.792"/>
<polygon fill="red" stroke="red" stroke-width="0.220799" points="1104.45,-156.632 1111.24,-148.504 1100.86,-150.62 1104.45,-156.632"/>
</g>
<!-- 2054 -->
<g id="node18" class="node"><title>2054</title>
<ellipse fill="white" stroke="black" cx="24.7487" cy="-131.459" rx="25" ry="25"/>
<text text-anchor="middle" x="24.7487" y="-129.259" font-family="Times New Roman,serif" font-size="9.00">2054</text>
</g>
<!-- Open&#45;&gt;2054 -->
<g id="edge7" class="edge"><title>Open&#45;&gt;2054</title>
<path fill="none" stroke="green" stroke-width="0.270085" d="M452.185,-194.398C449.058,-193.565 445.828,-192.794 442.749,-192.208 281.744,-161.571 233.844,-199.417 75.7487,-156.208 68.9122,-154.34 61.8538,-151.622 55.2486,-148.688"/>
<polygon fill="green" stroke="green" stroke-width="0.270085" points="56.5109,-145.413 45.9741,-144.306 53.5206,-151.742 56.5109,-145.413"/>
</g>
<!-- 2055 -->
<g id="node19" class="node"><title>2055</title>
<ellipse fill="white" stroke="black" cx="109.749" cy="-131.459" rx="25" ry="25"/>
<text text-anchor="middle" x="109.749" y="-129.259" font-family="Times New Roman,serif" font-size="9.00">2055</text>
</g>
<!-- Open&#45;&gt;2055 -->
<g id="edge8" class="edge"><title>Open&#45;&gt;2055</title>
<path fill="none" stroke="green" stroke-width="0.159736" d="M452.17,-194.475C449.045,-193.633 445.819,-192.839 442.749,-192.208 318.983,-166.78 282.13,-191.294 160.749,-156.208 153.94,-154.24 146.894,-151.48 140.292,-148.534"/>
<polygon fill="green" stroke="green" stroke-width="0.159736" points="141.553,-145.259 131.016,-144.157 138.566,-151.59 141.553,-145.259"/>
</g>
<!-- 2056 -->
<g id="node20" class="node"><title>2056</title>
<ellipse fill="white" stroke="black" cx="194.749" cy="-131.459" rx="25" ry="25"/>
<text text-anchor="middle" x="194.749" y="-129.259" font-family="Times New Roman,serif" font-size="9.00">2056</text>
</g>
<!-- Open&#45;&gt;2056 -->
<g id="edge9" class="edge"><title>Open&#45;&gt;2056</title>
<path fill="none" stroke="red" stroke-width="0.134718" d="M452.139,-194.617C449.017,-193.758 445.801,-192.921 442.749,-192.208 356.077,-171.958 330.558,-183.214 245.749,-156.208 239.121,-154.098 232.233,-151.323 225.744,-148.418"/>
<polygon fill="red" stroke="red" stroke-width="0.134718" points="227.138,-145.206 216.598,-144.13 224.166,-151.544 227.138,-145.206"/>
</g>
<!-- 2057 -->
<g id="node21" class="node"><title>2057</title>
<ellipse fill="white" stroke="black" cx="279.749" cy="-131.459" rx="25" ry="25"/>
<text text-anchor="middle" x="279.749" y="-129.259" font-family="Times New Roman,serif" font-size="9.00">2057</text>
</g>
<!-- Open&#45;&gt;2057 -->
<g id="edge10" class="edge"><title>Open&#45;&gt;2057</title>
<path fill="none" stroke="green" stroke-width="0.288042" d="M452.13,-194.688C419.501,-184.96 353.313,-164.964 330.749,-156.208 324.203,-153.668 317.311,-150.682 310.785,-147.7"/>
<polygon fill="green" stroke="green" stroke-width="0.288042" points="312.107,-144.455 301.566,-143.388 309.141,-150.795 312.107,-144.455"/>
</g>
<!-- 2058 -->
<g id="node22" class="node"><title>2058</title>
<ellipse fill="white" stroke="black" cx="364.749" cy="-131.459" rx="25" ry="25"/>
<text text-anchor="middle" x="364.749" y="-129.259" font-family="Times New Roman,serif" font-size="9.00">2058</text>
</g>
<!-- Open&#45;&gt;2058 -->
<g id="edge11" class="edge"><title>Open&#45;&gt;2058</title>
<path fill="none" stroke="red" stroke-width="0.382333" d="M458.173,-192.17C442.434,-182.111 414.985,-164.567 393.899,-151.09"/>
<polygon fill="red" stroke="red" stroke-width="0.382333" points="395.615,-148.034 385.304,-145.597 391.846,-153.932 395.615,-148.034"/>
</g>
<!-- 2059 -->
<g id="node23" class="node"><title>2059</title>
<ellipse fill="white" stroke="black" cx="449.749" cy="-131.459" rx="25" ry="25"/>
<text text-anchor="middle" x="449.749" y="-129.259" font-family="Times New Roman,serif" font-size="9.00">2059</text>
</g>
<!-- Open&#45;&gt;2059 -->
<g id="edge12" class="edge"><title>Open&#45;&gt;2059</title>
<path fill="none" stroke="red" stroke-width="0.253253" d="M468.257,-192.17C466.133,-185.317 462.932,-174.991 459.787,-164.844"/>
<polygon fill="red" stroke="red" stroke-width="0.253253" points="463.129,-163.804 456.825,-155.288 456.443,-165.876 463.129,-163.804"/>
</g>
<!-- 2060 -->
<g id="node24" class="node"><title>2060</title>
<ellipse fill="white" stroke="black" cx="534.749" cy="-131.459" rx="25" ry="25"/>
<text text-anchor="middle" x="534.749" y="-129.259" font-family="Times New Roman,serif" font-size="9.00">2060</text>
</g>
<!-- Open&#45;&gt;2060 -->
<g id="edge13" class="edge"><title>Open&#45;&gt;2060</title>
<path fill="none" stroke="red" stroke-width="0.309808" d="M478.342,-192.17C486.403,-183.637 499.553,-169.717 511.129,-157.463"/>
<polygon fill="red" stroke="red" stroke-width="0.309808" points="513.75,-159.785 518.073,-150.112 508.662,-154.978 513.75,-159.785"/>
</g>
<!-- 2061 -->
<g id="node25" class="node"><title>2061</title>
<ellipse fill="white" stroke="black" cx="619.749" cy="-131.459" rx="25" ry="25"/>
<text text-anchor="middle" x="619.749" y="-129.259" font-family="Times New Roman,serif" font-size="9.00">2061</text>
</g>
<!-- Open&#45;&gt;2061 -->
<g id="edge14" class="edge"><title>Open&#45;&gt;2061</title>
<path fill="none" stroke="red" stroke-width="0.265735" d="M489.48,-194.77C512.969,-187.58 554.116,-173.747 586.749,-156.208 588.521,-155.256 590.307,-154.221 592.083,-153.134"/>
<polygon fill="red" stroke="red" stroke-width="0.265735" points="594.341,-155.837 600.755,-147.405 590.482,-149.997 594.341,-155.837"/>
</g>
<!-- High -->
<g id="node2" class="node"><title>High</title>
<polygon fill="lightgray" stroke="black" points="541.749,-210.208 507.749,-210.208 507.749,-192.208 541.749,-192.208 541.749,-210.208"/>
<text text-anchor="middle" x="524.749" y="-199.008" font-family="Times New Roman,serif" font-size="9.00">High</text>
</g>
<!-- High&#45;&gt;2048 -->
<g id="edge15" class="edge"><title>High&#45;&gt;2048</title>
<path fill="none" stroke="green" stroke-width="0.390977" d="M541.804,-194.935C544.784,-194.021 547.856,-193.084 550.749,-192.208 604.451,-175.958 621.386,-180.94 671.749,-156.208 673.554,-155.321 675.367,-154.338 677.163,-153.29"/>
<polygon fill="green" stroke="green" stroke-width="0.390977" points="679.38,-156.024 685.889,-147.664 675.588,-150.141 679.38,-156.024"/>
</g>
<!-- High&#45;&gt;2049 -->
<g id="edge16" class="edge"><title>High&#45;&gt;2049</title>
<path fill="none" stroke="green" stroke-width="0.11581" d="M542.007,-194.567C544.909,-193.714 547.902,-192.892 550.749,-192.208 641.121,-170.499 671.085,-192.265 756.749,-156.208 758.603,-155.428 760.453,-154.527 762.277,-153.542"/>
<polygon fill="green" stroke="green" stroke-width="0.11581" points="764.425,-156.328 771.08,-148.085 760.737,-150.379 764.425,-156.328"/>
</g>
<!-- High&#45;&gt;2050 -->
<g id="edge17" class="edge"><title>High&#45;&gt;2050</title>
<path fill="none" stroke="red" stroke-width="0.110414" d="M541.979,-194.444C544.884,-193.606 547.885,-192.821 550.749,-192.208 678.183,-164.941 720.411,-203.752 841.749,-156.208 843.622,-155.474 845.487,-154.609 847.322,-153.652"/>
<polygon fill="red" stroke="red" stroke-width="0.110414" points="849.437,-156.462 856.155,-148.269 845.794,-150.484 849.437,-156.462"/>
</g>
<!-- High&#45;&gt;2051 -->
<g id="edge18" class="edge"><title>High&#45;&gt;2051</title>
<path fill="none" stroke="red" stroke-width="0.167875" d="M541.965,-194.376C544.872,-193.546 547.877,-192.781 550.749,-192.208 715.378,-159.354 769.613,-215.288 926.749,-156.208 928.632,-155.5 930.504,-154.656 932.346,-153.713"/>
<polygon fill="red" stroke="red" stroke-width="0.167875" points="934.442,-156.536 941.195,-148.372 930.825,-150.543 934.442,-156.536"/>
</g>
<!-- High&#45;&gt;2052 -->
<g id="edge19" class="edge"><title>High&#45;&gt;2052</title>
<path fill="none" stroke="green" stroke-width="0.367148" d="M541.957,-194.332C544.864,-193.508 547.872,-192.756 550.749,-192.208 752.632,-153.755 818.757,-226.845 1011.75,-156.208 1013.64,-155.517 1015.52,-154.685 1017.36,-153.753"/>
<polygon fill="green" stroke="green" stroke-width="0.367148" points="1019.44,-156.583 1026.22,-148.437 1015.84,-150.581 1019.44,-156.583"/>
</g>
<!-- High&#45;&gt;2053 -->
<g id="edge20" class="edge"><title>High&#45;&gt;2053</title>
<path fill="none" stroke="green" stroke-width="0.198827" d="M541.951,-194.302C544.859,-193.481 547.869,-192.739 550.749,-192.208 670.333,-170.179 982.31,-197.311 1096.75,-156.208 1098.64,-155.528 1100.52,-154.705 1102.37,-153.78"/>
<polygon fill="green" stroke="green" stroke-width="0.198827" points="1104.45,-156.616 1111.24,-148.482 1100.86,-150.607 1104.45,-156.616"/>
</g>
<!-- High&#45;&gt;2054 -->
<g id="edge21" class="edge"><title>High&#45;&gt;2054</title>
<path fill="none" stroke="red" stroke-width="0.248936" d="M507.737,-194.599C504.452,-193.678 501.016,-192.825 497.749,-192.208 312.779,-157.291 257.637,-204.682 75.7487,-156.208 68.9005,-154.383 61.8371,-151.685 55.2306,-148.754"/>
<polygon fill="red" stroke="red" stroke-width="0.248936" points="56.4932,-145.48 45.9566,-144.37 53.5016,-151.809 56.4932,-145.48"/>
</g>
<!-- High&#45;&gt;2055 -->
<g id="edge22" class="edge"><title>High&#45;&gt;2055</title>
<path fill="none" stroke="green" stroke-width="0.160474" d="M507.726,-194.656C504.442,-193.729 501.009,-192.86 497.749,-192.208 350.039,-162.69 305.877,-196.547 160.749,-156.208 153.92,-154.31 146.866,-151.58 140.261,-148.642"/>
<polygon fill="green" stroke="green" stroke-width="0.160474" points="141.523,-145.368 130.986,-144.262 138.534,-151.697 141.523,-145.368"/>
</g>
<!-- High&#45;&gt;2056 -->
<g id="edge23" class="edge"><title>High&#45;&gt;2056</title>
<path fill="none" stroke="red" stroke-width="0.206053" d="M507.707,-194.749C504.424,-193.814 500.997,-192.917 497.749,-192.208 387.216,-168.073 354.199,-188.435 245.749,-156.208 238.955,-154.189 231.915,-151.407 225.315,-148.456"/>
<polygon fill="red" stroke="red" stroke-width="0.206053" points="226.576,-145.181 216.038,-144.081 223.59,-151.512 226.576,-145.181"/>
</g>
<!-- High&#45;&gt;2057 -->
<g id="edge24" class="edge"><title>High&#45;&gt;2057</title>
<path fill="none" stroke="green" stroke-width="0.218455" d="M507.663,-194.933C504.385,-193.982 500.97,-193.031 497.749,-192.208 424.185,-173.41 402.724,-180.385 330.749,-156.208 324.155,-153.993 317.283,-151.173 310.797,-148.255"/>
<polygon fill="green" stroke="green" stroke-width="0.218455" points="312.19,-145.042 301.65,-143.97 309.221,-151.381 312.19,-145.042"/>
</g>
<!-- High&#45;&gt;2058 -->
<g id="edge25" class="edge"><title>High&#45;&gt;2058</title>
<path fill="none" stroke="green" stroke-width="0.108734" d="M507.642,-193.622C486.081,-185.247 447.944,-170.191 415.749,-156.208 409.308,-153.411 402.463,-150.312 395.949,-147.301"/>
<polygon fill="green" stroke="green" stroke-width="0.108734" points="397.268,-144.055 386.726,-142.999 394.309,-150.398 397.268,-144.055"/>
</g>
<!-- High&#45;&gt;2059 -->
<g id="edge26" class="edge"><title>High&#45;&gt;2059</title>
<path fill="none" stroke="green" stroke-width="0.252976" d="M515.851,-192.17C505.898,-183.18 489.327,-168.211 475.267,-155.511"/>
<polygon fill="green" stroke="green" stroke-width="0.252976" points="477.54,-152.847 467.773,-148.741 472.847,-158.041 477.54,-152.847"/>
</g>
<!-- High&#45;&gt;2060 -->
<g id="edge27" class="edge"><title>High&#45;&gt;2060</title>
<path fill="none" stroke="green" stroke-width="0.260436" d="M525.935,-192.17C526.903,-185.615 528.34,-175.881 529.774,-166.165"/>
<polygon fill="green" stroke="green" stroke-width="0.260436" points="533.249,-166.585 531.247,-156.181 526.324,-165.563 533.249,-166.585"/>
</g>
<!-- High&#45;&gt;2061 -->
<g id="edge28" class="edge"><title>High&#45;&gt;2061</title>
<path fill="none" stroke="red" stroke-width="0.247961" d="M536.192,-192.121C548.646,-183.312 569.137,-168.794 586.749,-156.208 588.342,-155.069 589.978,-153.898 591.628,-152.715"/>
<polygon fill="red" stroke="red" stroke-width="0.247961" points="593.789,-155.473 599.87,-146.797 589.706,-149.787 593.789,-155.473"/>
</g>
<!-- Low -->
<g id="node3" class="node"><title>Low</title>
<polygon fill="lightgray" stroke="black" points="593.249,-210.208 560.249,-210.208 560.249,-192.208 593.249,-192.208 593.249,-210.208"/>
<text text-anchor="middle" x="576.749" y="-199.008" font-family="Times New Roman,serif" font-size="9.00">Low</text>
</g>
<!-- Low&#45;&gt;2048 -->
<g id="edge29" class="edge"><title>Low&#45;&gt;2048</title>
<path fill="none" stroke="green" stroke-width="0.291111" d="M593.361,-193.646C612.709,-185.748 645.383,-171.613 671.749,-156.208 673.44,-155.22 675.152,-154.167 676.861,-153.075"/>
<polygon fill="green" stroke="green" stroke-width="0.291111" points="678.932,-155.9 685.265,-147.407 675.018,-150.097 678.932,-155.9"/>
</g>
<!-- Low&#45;&gt;2049 -->
<g id="edge30" class="edge"><title>Low&#45;&gt;2049</title>
<path fill="none" stroke="green" stroke-width="0.124781" d="M593.367,-194.682C596.154,-193.815 599.025,-192.959 601.749,-192.208 669.929,-173.415 692.347,-185.433 756.749,-156.208 758.581,-155.377 760.414,-154.436 762.225,-153.421"/>
<polygon fill="green" stroke="green" stroke-width="0.124781" points="764.406,-156.183 770.992,-147.884 760.669,-150.264 764.406,-156.183"/>
</g>
<!-- Low&#45;&gt;2050 -->
<g id="edge31" class="edge"><title>Low&#45;&gt;2050</title>
<path fill="none" stroke="red" stroke-width="0.105089" d="M593.32,-194.495C596.112,-193.651 598.997,-192.85 601.749,-192.208 706.786,-167.692 741.839,-196.85 841.749,-156.208 843.612,-155.45 845.47,-154.567 847.299,-153.595"/>
<polygon fill="red" stroke="red" stroke-width="0.105089" points="849.431,-156.393 856.117,-148.174 845.765,-150.43 849.431,-156.393"/>
</g>
<!-- Low&#45;&gt;2051 -->
<g id="edge32" class="edge"><title>Low&#45;&gt;2051</title>
<path fill="none" stroke="red" stroke-width="0.321664" d="M593.299,-194.403C596.094,-193.57 598.985,-192.797 601.749,-192.208 743.884,-161.912 791.102,-208.362 926.749,-156.208 928.626,-155.486 930.495,-154.631 932.333,-153.68"/>
<polygon fill="red" stroke="red" stroke-width="0.321664" points="934.44,-156.496 941.174,-148.316 930.809,-150.512 934.44,-156.496"/>
</g>
<!-- Low&#45;&gt;2052 -->
<g id="edge33" class="edge"><title>Low&#45;&gt;2052</title>
<path fill="none" stroke="green" stroke-width="0.717425" d="M593.288,-194.349C596.084,-193.522 598.979,-192.766 601.749,-192.208 781.075,-156.11 840.275,-219.909 1011.75,-156.208 1013.63,-155.508 1015.51,-154.669 1017.35,-153.731"/>
<polygon fill="green" stroke="green" stroke-width="0.717425" points="1019.44,-156.557 1026.21,-148.401 1015.83,-150.56 1019.44,-156.557"/>
</g>
<!-- Low&#45;&gt;2053 -->
<g id="edge34" class="edge"><title>Low&#45;&gt;2053</title>
<path fill="none" stroke="green" stroke-width="0.366202" d="M593.281,-194.313C596.078,-193.491 598.975,-192.745 601.749,-192.208 818.312,-150.3 889.405,-231.472 1096.75,-156.208 1098.64,-155.522 1100.52,-154.694 1102.36,-153.764"/>
<polygon fill="green" stroke="green" stroke-width="0.366202" points="1104.45,-156.598 1111.23,-148.457 1100.85,-150.593 1104.45,-156.598"/>
</g>
<!-- Low&#45;&gt;2054 -->
<g id="edge35" class="edge"><title>Low&#45;&gt;2054</title>
<path fill="none" stroke="green" stroke-width="0.110898" d="M560.103,-194.487C557.023,-193.6 553.811,-192.788 550.749,-192.208 342.726,-152.833 280.58,-209.761 75.7487,-156.208 68.892,-154.415 61.8248,-151.731 55.2174,-148.804"/>
<polygon fill="green" stroke="green" stroke-width="0.110898" points="56.4803,-145.53 45.9438,-144.419 53.4876,-151.858 56.4803,-145.53"/>
</g>
<!-- Low&#45;&gt;2055 -->
<g id="edge36" class="edge"><title>Low&#45;&gt;2055</title>
<path fill="none" stroke="red" stroke-width="0.45925" d="M560.095,-194.529C557.016,-193.638 553.807,-192.813 550.749,-192.208 379.987,-158.433 328.792,-201.618 160.749,-156.208 153.907,-154.359 146.846,-151.651 140.24,-148.718"/>
<polygon fill="red" stroke="red" stroke-width="0.45925" points="141.503,-145.443 130.966,-144.335 138.512,-151.772 141.503,-145.443"/>
</g>
<!-- Low&#45;&gt;2056 -->
<g id="edge37" class="edge"><title>Low&#45;&gt;2056</title>
<path fill="none" stroke="red" stroke-width="0.397283" d="M560.082,-194.593C557.004,-193.695 553.799,-192.852 550.749,-192.208 417.194,-164.022 377.055,-193.489 245.749,-156.208 238.931,-154.272 231.881,-151.526 225.277,-148.584"/>
<polygon fill="red" stroke="red" stroke-width="0.397283" points="226.539,-145.309 216.002,-144.205 223.551,-151.639 226.539,-145.309"/>
</g>
<!-- Low&#45;&gt;2057 -->
<g id="edge38" class="edge"><title>Low&#45;&gt;2057</title>
<path fill="none" stroke="red" stroke-width="0.207925" d="M560.057,-194.705C556.981,-193.796 553.783,-192.92 550.749,-192.208 454.287,-169.587 425.431,-185.393 330.749,-156.208 324.101,-154.159 317.205,-151.412 310.714,-148.514"/>
<polygon fill="red" stroke="red" stroke-width="0.207925" points="312.108,-145.302 301.568,-144.224 309.135,-151.64 312.108,-145.302"/>
</g>
<!-- Low&#45;&gt;2058 -->
<g id="edge39" class="edge"><title>Low&#45;&gt;2058</title>
<path fill="none" stroke="red" stroke-width="0.152064" d="M559.993,-194.95C556.924,-194.017 553.745,-193.068 550.749,-192.208 491.063,-175.074 474.119,-177.396 415.749,-156.208 409.149,-153.812 402.233,-150.889 395.701,-147.924"/>
<polygon fill="red" stroke="red" stroke-width="0.152064" points="397.025,-144.679 386.484,-143.606 394.055,-151.018 397.025,-144.679"/>
</g>
<!-- Low&#45;&gt;2059 -->
<g id="edge40" class="edge"><title>Low&#45;&gt;2059</title>
<path fill="none" stroke="green" stroke-width="0.223017" d="M561.681,-192.17C541.785,-181.557 506.27,-162.611 480.571,-148.902"/>
<polygon fill="green" stroke="green" stroke-width="0.223017" points="482.065,-145.732 471.594,-144.113 478.77,-151.908 482.065,-145.732"/>
</g>
<!-- Low&#45;&gt;2060 -->
<g id="edge41" class="edge"><title>Low&#45;&gt;2060</title>
<path fill="none" stroke="red" stroke-width="0.173165" d="M571.766,-192.17C567.068,-184.592 559.737,-172.767 552.834,-161.633"/>
<polygon fill="red" stroke="red" stroke-width="0.173165" points="555.693,-159.601 547.449,-152.946 549.743,-163.289 555.693,-159.601"/>
</g>
<!-- Low&#45;&gt;2061 -->
<g id="edge42" class="edge"><title>Low&#45;&gt;2061</title>
<path fill="none" stroke="green" stroke-width="0.133588" d="M581.85,-192.17C586.695,-184.537 594.275,-172.594 601.387,-161.389"/>
<polygon fill="green" stroke="green" stroke-width="0.133588" points="604.525,-162.976 606.929,-152.657 598.615,-159.225 604.525,-162.976"/>
</g>
<!-- Close -->
<g id="node4" class="node"><title>Close</title>
<polygon fill="lightgray" stroke="black" points="648.249,-210.208 611.249,-210.208 611.249,-192.208 648.249,-192.208 648.249,-210.208"/>
<text text-anchor="middle" x="629.749" y="-199.008" font-family="Times New Roman,serif" font-size="9.00">Close</text>
</g>
<!-- Close&#45;&gt;2048 -->
<g id="edge43" class="edge"><title>Close&#45;&gt;2048</title>
<path fill="none" stroke="red" stroke-width="0.200867" d="M638.647,-192.17C648.6,-183.18 665.17,-168.211 679.23,-155.511"/>
<polygon fill="red" stroke="red" stroke-width="0.200867" points="681.65,-158.041 686.725,-148.741 676.958,-152.847 681.65,-158.041"/>
</g>
<!-- Close&#45;&gt;2049 -->
<g id="edge44" class="edge"><title>Close&#45;&gt;2049</title>
<path fill="none" stroke="red" stroke-width="0.232956" d="M648.722,-194.38C679.172,-184.902 737.487,-166.203 756.749,-156.208 758.534,-155.282 760.331,-154.267 762.115,-153.195"/>
<polygon fill="red" stroke="red" stroke-width="0.232956" points="764.358,-155.911 770.809,-147.507 760.525,-150.053 764.358,-155.911"/>
</g>
<!-- Close&#45;&gt;2050 -->
<g id="edge45" class="edge"><title>Close&#45;&gt;2050</title>
<path fill="none" stroke="green" stroke-width="0.292758" d="M648.366,-194.65C651.487,-193.787 654.701,-192.94 657.749,-192.208 738.772,-172.745 765.277,-189.309 841.749,-156.208 843.595,-155.409 845.439,-154.494 847.259,-153.497"/>
<polygon fill="green" stroke="green" stroke-width="0.292758" points="849.419,-156.275 856.049,-148.011 845.712,-150.337 849.419,-156.275"/>
</g>
<!-- Close&#45;&gt;2051 -->
<g id="edge46" class="edge"><title>Close&#45;&gt;2051</title>
<path fill="none" stroke="red" stroke-width="0.229995" d="M648.331,-194.491C651.456,-193.648 654.68,-192.848 657.749,-192.208 775.828,-167.575 814.661,-200.772 926.749,-156.208 928.618,-155.465 930.48,-154.593 932.314,-153.63"/>
<polygon fill="red" stroke="red" stroke-width="0.229995" points="934.435,-156.435 941.141,-148.232 930.783,-150.463 934.435,-156.435"/>
</g>
<!-- Close&#45;&gt;2052 -->
<g id="edge47" class="edge"><title>Close&#45;&gt;2052</title>
<path fill="none" stroke="red" stroke-width="0.190452" d="M648.314,-194.408C651.441,-193.574 654.671,-192.8 657.749,-192.208 813.053,-162.369 863.885,-212.299 1011.75,-156.208 1013.63,-155.495 1015.5,-154.646 1017.34,-153.7"/>
<polygon fill="red" stroke="red" stroke-width="0.190452" points="1019.44,-156.52 1026.19,-148.35 1015.82,-150.531 1019.44,-156.52"/>
</g>
<!-- Close&#45;&gt;2053 -->
<g id="edge48" class="edge"><title>Close&#45;&gt;2053</title>
<path fill="none" stroke="red" stroke-width="0.119643" d="M648.304,-194.356C651.432,-193.528 654.665,-192.77 657.749,-192.208 850.35,-157.149 913.041,-223.852 1096.75,-156.208 1098.64,-155.513 1100.51,-154.678 1102.36,-153.744"/>
<polygon fill="red" stroke="red" stroke-width="0.119643" points="1104.44,-156.573 1111.21,-148.422 1100.84,-150.573 1104.44,-156.573"/>
</g>
<!-- Close&#45;&gt;2054 -->
<g id="edge49" class="edge"><title>Close&#45;&gt;2054</title>
<path fill="none" stroke="green" stroke-width="0.269901" d="M611.2,-194.32C608.071,-193.497 604.836,-192.749 601.749,-192.208 370.935,-151.799 302.668,-214.65 75.7487,-156.208 68.8855,-154.441 61.8155,-151.767 55.2074,-148.843"/>
<polygon fill="green" stroke="green" stroke-width="0.269901" points="56.4704,-145.569 45.9341,-144.456 53.477,-151.896 56.4704,-145.569"/>
</g>
<!-- Close&#45;&gt;2055 -->
<g id="edge50" class="edge"><title>Close&#45;&gt;2055</title>
<path fill="none" stroke="red" stroke-width="0.501054" d="M611.193,-194.355C608.065,-193.527 604.833,-192.769 601.749,-192.208 408.27,-157.026 350.86,-206.503 160.749,-156.208 153.897,-154.396 146.832,-151.703 140.225,-148.774"/>
<polygon fill="red" stroke="red" stroke-width="0.501054" points="141.488,-145.499 130.952,-144.389 138.496,-151.828 141.488,-145.499"/>
</g>
<!-- Close&#45;&gt;2056 -->
<g id="edge51" class="edge"><title>Close&#45;&gt;2056</title>
<path fill="none" stroke="red" stroke-width="0.28918" d="M611.184,-194.406C608.057,-193.572 604.827,-192.799 601.749,-192.208 445.568,-162.246 399.089,-198.364 245.749,-156.208 238.915,-154.329 231.858,-151.608 225.253,-148.672"/>
<polygon fill="red" stroke="red" stroke-width="0.28918" points="226.515,-145.397 215.978,-144.29 223.525,-151.727 226.515,-145.397"/>
</g>
<!-- Close&#45;&gt;2057 -->
<g id="edge52" class="edge"><title>Close&#45;&gt;2057</title>
<path fill="none" stroke="green" stroke-width="0.366512" d="M611.167,-194.489C608.042,-193.645 604.817,-192.847 601.749,-192.208 482.795,-167.452 447.386,-190.245 330.749,-156.208 323.945,-154.223 316.901,-151.455 310.3,-148.508"/>
<polygon fill="green" stroke="green" stroke-width="0.366512" points="311.561,-145.233 301.023,-144.131 308.574,-151.564 311.561,-145.233"/>
</g>
<!-- Close&#45;&gt;2058 -->
<g id="edge53" class="edge"><title>Close&#45;&gt;2058</title>
<path fill="none" stroke="green" stroke-width="0.164516" d="M611.132,-194.645C608.011,-193.782 604.797,-192.937 601.749,-192.208 519.857,-172.624 495.846,-182.174 415.749,-156.208 409.132,-154.063 402.249,-151.273 395.761,-148.364"/>
<polygon fill="green" stroke="green" stroke-width="0.164516" points="397.155,-145.152 386.615,-144.077 394.184,-151.49 397.155,-145.152"/>
</g>
<!-- Close&#45;&gt;2059 -->
<g id="edge54" class="edge"><title>Close&#45;&gt;2059</title>
<path fill="none" stroke="red" stroke-width="0.131956" d="M611.15,-194.554C585.872,-186.714 539.389,-171.743 500.749,-156.208 494.234,-153.589 487.356,-150.568 480.833,-147.577"/>
<polygon fill="red" stroke="red" stroke-width="0.131956" points="482.155,-144.332 471.613,-143.268 479.191,-150.673 482.155,-144.332"/>
</g>
<!-- Close&#45;&gt;2060 -->
<g id="edge55" class="edge"><title>Close&#45;&gt;2060</title>
<path fill="none" stroke="red" stroke-width="0.491233" d="M618.478,-192.17C604.839,-182.444 581.389,-165.72 562.769,-152.442"/>
<polygon fill="red" stroke="red" stroke-width="0.491233" points="564.78,-149.577 554.606,-146.621 560.716,-155.276 564.78,-149.577"/>
</g>
<!-- Close&#45;&gt;2061 -->
<g id="edge56" class="edge"><title>Close&#45;&gt;2061</title>
<path fill="none" stroke="red" stroke-width="0.174399" d="M628.562,-192.17C627.595,-185.615 626.158,-175.881 624.724,-166.165"/>
<polygon fill="red" stroke="red" stroke-width="0.174399" points="628.173,-165.563 623.25,-156.181 621.248,-166.585 628.173,-165.563"/>
</g>
<!-- Volume -->
<g id="node5" class="node"><title>Volume</title>
<polygon fill="lightgray" stroke="black" points="710.749,-210.208 666.749,-210.208 666.749,-192.208 710.749,-192.208 710.749,-210.208"/>
<text text-anchor="middle" x="688.749" y="-199.008" font-family="Times New Roman,serif" font-size="9.00">Volume</text>
</g>
<!-- Volume&#45;&gt;2048 -->
<g id="edge57" class="edge"><title>Volume&#45;&gt;2048</title>
<path fill="none" stroke="red" stroke-width="0.239449" d="M690.647,-192.17C692.224,-185.493 694.58,-175.519 696.916,-165.625"/>
<polygon fill="red" stroke="red" stroke-width="0.239449" points="700.325,-166.42 699.217,-155.883 693.512,-164.811 700.325,-166.42"/>
</g>
<!-- Volume&#45;&gt;2049 -->
<g id="edge58" class="edge"><title>Volume&#45;&gt;2049</title>
<path fill="none" stroke="green" stroke-width="0.353342" d="M701.657,-192.123C715.428,-183.436 737.82,-169.132 756.749,-156.208 758.366,-155.104 760.021,-153.96 761.686,-152.798"/>
<polygon fill="green" stroke="green" stroke-width="0.353342" points="763.827,-155.57 769.968,-146.936 759.783,-149.856 763.827,-155.57"/>
</g>
<!-- Volume&#45;&gt;2050 -->
<g id="edge59" class="edge"><title>Volume&#45;&gt;2050</title>
<path fill="none" stroke="red" stroke-width="0.206282" d="M711.035,-194.253C750.551,-183.628 829.876,-161.971 841.749,-156.208 843.558,-155.33 845.374,-154.352 847.172,-153.309"/>
<polygon fill="red" stroke="red" stroke-width="0.206282" points="849.385,-156.048 855.905,-147.697 845.6,-150.159 849.385,-156.048"/>
</g>
<!-- Volume&#45;&gt;2051 -->
<g id="edge60" class="edge"><title>Volume&#45;&gt;2051</title>
<path fill="none" stroke="red" stroke-width="0.246704" d="M711.049,-194.225C713.967,-193.509 716.923,-192.817 719.749,-192.208 811.032,-172.525 840.666,-192.4 926.749,-156.208 928.603,-155.428 930.454,-154.528 932.278,-153.543"/>
<polygon fill="red" stroke="red" stroke-width="0.246704" points="934.425,-156.331 941.082,-148.088 930.738,-150.381 934.425,-156.331"/>
</g>
<!-- Volume&#45;&gt;2052 -->
<g id="edge61" class="edge"><title>Volume&#45;&gt;2052</title>
<path fill="none" stroke="red" stroke-width="0.165596" d="M711.022,-194.091C713.944,-193.397 716.909,-192.747 719.749,-192.208 848.215,-167.82 889.991,-203.887 1011.75,-156.208 1013.62,-155.475 1015.49,-154.61 1017.32,-153.653"/>
<polygon fill="red" stroke="red" stroke-width="0.165596" points="1019.44,-156.463 1026.16,-148.271 1015.79,-150.485 1019.44,-156.463"/>
</g>
<!-- Volume&#45;&gt;2053 -->
<g id="edge62" class="edge"><title>Volume&#45;&gt;2053</title>
<path fill="none" stroke="red" stroke-width="0.256774" d="M711.008,-194.017C713.933,-193.335 716.902,-192.708 719.749,-192.208 885.528,-163.089 939.191,-215.423 1096.75,-156.208 1098.63,-155.5 1100.5,-154.656 1102.35,-153.714"/>
<polygon fill="red" stroke="red" stroke-width="0.256774" points="1104.44,-156.537 1111.19,-148.373 1100.82,-150.544 1104.44,-156.537"/>
</g>
<!-- Volume&#45;&gt;2054 -->
<g id="edge63" class="edge"><title>Volume&#45;&gt;2054</title>
<path fill="none" stroke="green" stroke-width="0.452007" d="M666.476,-194.087C663.232,-193.357 659.918,-192.698 656.749,-192.208 401.071,-152.668 326.497,-219.926 75.7487,-156.208 68.8798,-154.463 61.8074,-151.799 55.1987,-148.877"/>
<polygon fill="green" stroke="green" stroke-width="0.452007" points="56.4618,-145.603 45.9257,-144.489 53.4678,-151.93 56.4618,-145.603"/>
</g>
<!-- Volume&#45;&gt;2055 -->
<g id="edge64" class="edge"><title>Volume&#45;&gt;2055</title>
<path fill="none" stroke="green" stroke-width="0.313761" d="M666.471,-194.117C663.228,-193.383 659.915,-192.715 656.749,-192.208 438.502,-157.275 374.674,-211.774 160.749,-156.208 153.889,-154.426 146.821,-151.747 140.213,-148.821"/>
<polygon fill="green" stroke="green" stroke-width="0.313761" points="141.476,-145.547 130.94,-144.435 138.483,-151.875 141.476,-145.547"/>
</g>
<!-- Volume&#45;&gt;2056 -->
<g id="edge65" class="edge"><title>Volume&#45;&gt;2056</title>
<path fill="none" stroke="red" stroke-width="0.130276" d="M666.464,-194.16C663.222,-193.42 659.911,-192.739 656.749,-192.208 475.909,-161.878 422.877,-203.629 245.749,-156.208 238.903,-154.375 231.84,-151.673 225.234,-148.743"/>
<polygon fill="red" stroke="red" stroke-width="0.130276" points="226.496,-145.468 215.96,-144.359 223.505,-151.797 226.496,-145.468"/>
</g>
<!-- Volume&#45;&gt;2057 -->
<g id="edge66" class="edge"><title>Volume&#45;&gt;2057</title>
<path fill="none" stroke="red" stroke-width="0.173224" d="M666.452,-194.226C663.212,-193.476 659.905,-192.774 656.749,-192.208 513.269,-166.472 471.124,-195.496 330.749,-156.208 323.924,-154.298 316.87,-151.563 310.266,-148.623"/>
<polygon fill="red" stroke="red" stroke-width="0.173224" points="311.528,-145.349 300.991,-144.244 308.539,-151.679 311.528,-145.349"/>
</g>
<!-- Volume&#45;&gt;2058 -->
<g id="edge67" class="edge"><title>Volume&#45;&gt;2058</title>
<path fill="none" stroke="red" stroke-width="0.431372" d="M666.431,-194.336C663.194,-193.57 659.894,-192.835 656.749,-192.208 550.536,-171.05 519.463,-187.388 415.749,-156.208 409.087,-154.205 402.185,-151.479 395.692,-148.587"/>
<polygon fill="red" stroke="red" stroke-width="0.431372" points="397.086,-145.375 386.546,-144.295 394.112,-151.712 397.086,-145.375"/>
</g>
<!-- Volume&#45;&gt;2059 -->
<g id="edge68" class="edge"><title>Volume&#45;&gt;2059</title>
<path fill="none" stroke="green" stroke-width="0.232733" d="M666.728,-194.647C663.387,-193.82 659.978,-192.984 656.749,-192.208 587.564,-175.579 568.035,-179.353 500.749,-156.208 494.171,-153.946 487.306,-151.104 480.823,-148.18"/>
<polygon fill="green" stroke="green" stroke-width="0.232733" points="482.215,-144.968 471.675,-143.896 479.247,-151.307 482.215,-144.968"/>
</g>
<!-- Volume&#45;&gt;2060 -->
<g id="edge69" class="edge"><title>Volume&#45;&gt;2060</title>
<path fill="none" stroke="red" stroke-width="0.100234" d="M669.305,-192.121C648.536,-183.431 614.693,-169.125 585.749,-156.208 579.337,-153.347 572.504,-150.219 565.993,-147.201"/>
<polygon fill="red" stroke="red" stroke-width="0.100234" points="567.311,-143.954 556.769,-142.901 564.354,-150.299 567.311,-143.954"/>
</g>
<!-- Volume&#45;&gt;2061 -->
<g id="edge70" class="edge"><title>Volume&#45;&gt;2061</title>
<path fill="none" stroke="green" stroke-width="0.400373" d="M680.563,-192.17C671.67,-183.439 657.034,-169.069 644.35,-156.614"/>
<polygon fill="green" stroke="green" stroke-width="0.400373" points="646.752,-154.068 637.165,-149.559 641.848,-159.063 646.752,-154.068"/>
</g>
<!-- Shares -->
<g id="node6" class="node"><title>Shares</title>
<polygon fill="lightgray" stroke="black" points="768.749,-210.208 728.749,-210.208 728.749,-192.208 768.749,-192.208 768.749,-210.208"/>
<text text-anchor="middle" x="748.749" y="-199.008" font-family="Times New Roman,serif" font-size="9.00">Shares</text>
</g>
<!-- Shares&#45;&gt;2048 -->
<g id="edge71" class="edge"><title>Shares&#45;&gt;2048</title>
<path fill="none" stroke="green" stroke-width="0.509416" d="M743.529,-192.17C738.522,-184.461 730.661,-172.357 723.321,-161.056"/>
<polygon fill="green" stroke="green" stroke-width="0.509416" points="726.248,-159.137 717.866,-152.657 720.378,-162.95 726.248,-159.137"/>
</g>
<!-- Shares&#45;&gt;2049 -->
<g id="edge72" class="edge"><title>Shares&#45;&gt;2049</title>
<path fill="none" stroke="green" stroke-width="0.345764" d="M753.613,-192.17C758.199,-184.592 765.355,-172.767 772.094,-161.633"/>
<polygon fill="green" stroke="green" stroke-width="0.345764" points="775.168,-163.313 777.351,-152.946 769.179,-159.689 775.168,-163.313"/>
</g>
<!-- Shares&#45;&gt;2050 -->
<g id="edge73" class="edge"><title>Shares&#45;&gt;2050</title>
<path fill="none" stroke="green" stroke-width="0.244505" d="M768.513,-192.104C787.712,-183.945 817.44,-170.545 841.749,-156.208 843.436,-155.213 845.145,-154.155 846.852,-153.058"/>
<polygon fill="green" stroke="green" stroke-width="0.244505" points="848.926,-155.881 855.249,-147.379 845.005,-150.082 848.926,-155.881"/>
</g>
<!-- Shares&#45;&gt;2051 -->
<g id="edge74" class="edge"><title>Shares&#45;&gt;2051</title>
<path fill="none" stroke="green" stroke-width="0.141641" d="M768.796,-197.786C802.644,-193.152 872.717,-181.189 926.749,-156.208 928.575,-155.364 930.403,-154.413 932.211,-153.391"/>
<polygon fill="green" stroke="green" stroke-width="0.141641" points="934.401,-156.146 940.969,-147.833 930.65,-150.236 934.401,-156.146"/>
</g>
<!-- Shares&#45;&gt;2052 -->
<g id="edge75" class="edge"><title>Shares&#45;&gt;2052</title>
<path fill="none" stroke="red" stroke-width="0.101035" d="M769.068,-199.915C814.397,-198.609 926.496,-191.729 1011.75,-156.208 1013.61,-155.434 1015.46,-154.539 1017.28,-153.558"/>
<polygon fill="red" stroke="red" stroke-width="0.101035" points="1019.43,-156.348 1026.09,-148.112 1015.75,-150.394 1019.43,-156.348"/>
</g>
<!-- Shares&#45;&gt;2053 -->
<g id="edge76" class="edge"><title>Shares&#45;&gt;2053</title>
<path fill="none" stroke="red" stroke-width="0.201113" d="M768.88,-198.97C833.673,-194.782 1036.11,-180.062 1096.75,-156.208 1098.62,-155.472 1100.49,-154.605 1102.32,-153.646"/>
<polygon fill="red" stroke="red" stroke-width="0.201113" points="1104.44,-156.455 1111.15,-148.259 1100.79,-150.479 1104.44,-156.455"/>
</g>
<!-- Shares&#45;&gt;2054 -->
<g id="edge77" class="edge"><title>Shares&#45;&gt;2054</title>
<path fill="none" stroke="green" stroke-width="0.12442" d="M728.59,-194.056C725.646,-193.33 722.635,-192.681 719.749,-192.208 436.856,-145.828 353.8,-225.97 75.7487,-156.208 68.8746,-154.483 61.7999,-151.828 55.1906,-148.909"/>
<polygon fill="green" stroke="green" stroke-width="0.12442" points="56.4539,-145.635 45.9179,-144.52 53.4593,-151.962 56.4539,-145.635"/>
</g>
<!-- Shares&#45;&gt;2055 -->
<g id="edge78" class="edge"><title>Shares&#45;&gt;2055</title>
<path fill="none" stroke="green" stroke-width="0.204407" d="M728.586,-194.078C725.643,-193.349 722.633,-192.694 719.749,-192.208 474.242,-150.889 401.965,-217.815 160.749,-156.208 153.882,-154.454 146.81,-151.787 140.202,-148.864"/>
<polygon fill="green" stroke="green" stroke-width="0.204407" points="141.465,-145.59 130.929,-144.477 138.471,-151.917 141.465,-145.59"/>
</g>
<!-- Shares&#45;&gt;2056 -->
<g id="edge79" class="edge"><title>Shares&#45;&gt;2056</title>
<path fill="none" stroke="red" stroke-width="0.530296" d="M728.581,-194.108C725.639,-193.375 722.63,-192.71 719.749,-192.208 511.61,-155.947 450.147,-209.665 245.749,-156.208 238.892,-154.415 231.825,-151.73 225.218,-148.804"/>
<polygon fill="red" stroke="red" stroke-width="0.530296" points="226.48,-145.529 215.944,-144.418 223.488,-151.857 226.48,-145.529"/>
</g>
<!-- Shares&#45;&gt;2057 -->
<g id="edge80" class="edge"><title>Shares&#45;&gt;2057</title>
<path fill="none" stroke="red" stroke-width="0.247745" d="M728.573,-194.152C725.632,-193.412 722.626,-192.734 719.749,-192.208 548.949,-161 498.359,-201.522 330.749,-156.208 323.907,-154.358 316.847,-151.649 310.241,-148.717"/>
<polygon fill="red" stroke="red" stroke-width="0.247745" points="311.503,-145.442 300.966,-144.334 308.512,-151.771 311.503,-145.442"/>
</g>
<!-- Shares&#45;&gt;2058 -->
<g id="edge81" class="edge"><title>Shares&#45;&gt;2058</title>
<path fill="none" stroke="green" stroke-width="0.290725" d="M728.56,-194.219C725.621,-193.47 722.619,-192.771 719.749,-192.208 586.233,-166.043 546.624,-193.394 415.749,-156.208 408.931,-154.271 401.881,-151.524 395.278,-148.582"/>
<polygon fill="green" stroke="green" stroke-width="0.290725" points="396.54,-145.307 386.003,-144.203 393.552,-151.637 396.54,-145.307"/>
</g>
<!-- Shares&#45;&gt;2059 -->
<g id="edge82" class="edge"><title>Shares&#45;&gt;2059</title>
<path fill="none" stroke="red" stroke-width="0.585139" d="M728.536,-194.337C725.6,-193.571 722.606,-192.835 719.749,-192.208 623.402,-171.063 595.001,-185.298 500.749,-156.208 494.102,-154.157 487.207,-151.409 480.715,-148.51"/>
<polygon fill="red" stroke="red" stroke-width="0.585139" points="482.109,-145.298 471.569,-144.22 479.136,-151.636 482.109,-145.298"/>
</g>
<!-- Shares&#45;&gt;2060 -->
<g id="edge83" class="edge"><title>Shares&#45;&gt;2060</title>
<path fill="none" stroke="green" stroke-width="0.252227" d="M728.472,-194.596C725.546,-193.791 722.571,-192.976 719.749,-192.208 660.247,-176.008 643.696,-177.303 585.749,-156.208 579.151,-153.806 572.237,-150.88 565.704,-147.914"/>
<polygon fill="green" stroke="green" stroke-width="0.252227" points="567.028,-144.67 556.488,-143.597 564.058,-151.009 567.028,-144.67"/>
</g>
<!-- Shares&#45;&gt;2061 -->
<g id="edge84" class="edge"><title>Shares&#45;&gt;2061</title>
<path fill="none" stroke="green" stroke-width="0.519584" d="M733.444,-192.17C713.116,-181.494 676.736,-162.388 650.597,-148.66"/>
<polygon fill="green" stroke="green" stroke-width="0.519584" points="651.96,-145.423 641.479,-143.872 648.705,-151.62 651.96,-145.423"/>
</g>
<!-- Money -->
<g id="node7" class="node"><title>Money</title>
<polygon fill="lightgray" stroke="black" points="433.749,-210.208 389.749,-210.208 389.749,-192.208 433.749,-192.208 433.749,-210.208"/>
<text text-anchor="middle" x="411.749" y="-199.008" font-family="Times New Roman,serif" font-size="9.00">Money</text>
</g>
<!-- Money&#45;&gt;2048 -->
<g id="edge85" class="edge"><title>Money&#45;&gt;2048</title>
<path fill="none" stroke="green" stroke-width="0.24577" d="M434.04,-194.181C436.959,-193.473 439.919,-192.794 442.749,-192.208 543.635,-171.312 576.452,-195.365 671.749,-156.208 673.609,-155.444 675.465,-154.555 677.293,-153.579"/>
<polygon fill="green" stroke="green" stroke-width="0.24577" points="679.43,-156.374 686.107,-148.148 675.757,-150.415 679.43,-156.374"/>
</g>
<!-- Money&#45;&gt;2049 -->
<g id="edge86" class="edge"><title>Money&#45;&gt;2049</title>
<path fill="none" stroke="red" stroke-width="0.144673" d="M434.017,-194.068C436.94,-193.378 439.907,-192.735 442.749,-192.208 580.864,-166.597 625.733,-206.87 756.749,-156.208 758.625,-155.483 760.493,-154.624 762.33,-153.672"/>
<polygon fill="red" stroke="red" stroke-width="0.144673" points="764.439,-156.486 771.168,-148.302 760.804,-150.503 764.439,-156.486"/>
</g>
<!-- Money&#45;&gt;2050 -->
<g id="edge87" class="edge"><title>Money&#45;&gt;2050</title>
<path fill="none" stroke="red" stroke-width="0.361246" d="M434.006,-194.003C436.931,-193.323 439.901,-192.701 442.749,-192.208 618.197,-161.862 674.915,-218.413 841.749,-156.208 843.634,-155.505 845.508,-154.665 847.35,-153.726"/>
<polygon fill="red" stroke="red" stroke-width="0.361246" points="849.443,-156.551 856.202,-148.392 845.831,-150.555 849.443,-156.551"/>
</g>
<!-- Money&#45;&gt;2051 -->
<g id="edge88" class="edge"><title>Money&#45;&gt;2051</title>
<path fill="none" stroke="green" stroke-width="0.154489" d="M433.998,-193.96C436.925,-193.288 439.897,-192.678 442.749,-192.208 655.581,-157.119 724.049,-229.975 926.749,-156.208 928.639,-155.52 930.518,-154.691 932.363,-153.761"/>
<polygon fill="green" stroke="green" stroke-width="0.154489" points="934.445,-156.593 941.224,-148.451 930.847,-150.589 934.445,-156.593"/>
</g>
<!-- Money&#45;&gt;2052 -->
<g id="edge89" class="edge"><title>Money&#45;&gt;2052</title>
<path fill="none" stroke="green" stroke-width="0.153191" d="M433.994,-193.93C436.921,-193.262 439.894,-192.663 442.749,-192.208 567.87,-172.29 892.453,-198.877 1011.75,-156.208 1013.64,-155.531 1015.52,-154.71 1017.37,-153.786"/>
<polygon fill="green" stroke="green" stroke-width="0.153191" points="1019.45,-156.623 1026.24,-148.492 1015.86,-150.613 1019.45,-156.623"/>
</g>
<!-- Money&#45;&gt;2053 -->
<g id="edge90" class="edge"><title>Money&#45;&gt;2053</title>
<path fill="none" stroke="red" stroke-width="0.45012" d="M433.99,-193.908C436.918,-193.244 439.893,-192.651 442.749,-192.208 586.585,-169.914 959.498,-204.665 1096.75,-156.208 1098.65,-155.538 1100.53,-154.723 1102.38,-153.804"/>
<polygon fill="red" stroke="red" stroke-width="0.45012" points="1104.45,-156.646 1111.25,-148.523 1100.87,-150.631 1104.45,-156.646"/>
</g>
<!-- Money&#45;&gt;2054 -->
<g id="edge91" class="edge"><title>Money&#45;&gt;2054</title>
<path fill="none" stroke="green" stroke-width="0.339953" d="M389.656,-199.634C335.219,-197.724 190.708,-189.64 75.7487,-156.208 68.9434,-154.229 61.8986,-151.464 55.2967,-148.517"/>
<polygon fill="green" stroke="green" stroke-width="0.339953" points="56.558,-145.242 46.0206,-144.141 53.5711,-151.573 56.558,-145.242"/>
</g>
<!-- Money&#45;&gt;2055 -->
<g id="edge92" class="edge"><title>Money&#45;&gt;2055</title>
<path fill="none" stroke="red" stroke-width="0.400142" d="M389.463,-198.279C345.077,-194.009 242.834,-182.021 160.749,-156.208 154.113,-154.122 147.222,-151.358 140.732,-148.455"/>
<polygon fill="red" stroke="red" stroke-width="0.400142" points="142.126,-145.243 131.586,-144.166 139.154,-151.581 142.126,-145.243"/>
</g>
<!-- Money&#45;&gt;2056 -->
<g id="edge93" class="edge"><title>Money&#45;&gt;2056</title>
<path fill="none" stroke="red" stroke-width="0.209171" d="M389.618,-195.651C357.435,-188.731 296.068,-174.431 245.749,-156.208 239.147,-153.817 232.231,-150.896 225.698,-147.932"/>
<polygon fill="red" stroke="red" stroke-width="0.209171" points="227.022,-144.687 216.482,-143.613 224.052,-151.026 227.022,-144.687"/>
</g>
<!-- Money&#45;&gt;2057 -->
<g id="edge94" class="edge"><title>Money&#45;&gt;2057</title>
<path fill="none" stroke="red" stroke-width="0.200237" d="M396.088,-192.17C375.074,-181.385 337.295,-161.995 310.495,-148.24"/>
<polygon fill="red" stroke="red" stroke-width="0.200237" points="312.013,-145.085 301.518,-143.633 308.817,-151.313 312.013,-145.085"/>
</g>
<!-- Money&#45;&gt;2058 -->
<g id="edge95" class="edge"><title>Money&#45;&gt;2058</title>
<path fill="none" stroke="red" stroke-width="0.109834" d="M406.173,-192.17C400.786,-184.406 392.306,-172.182 384.417,-160.811"/>
<polygon fill="red" stroke="red" stroke-width="0.109834" points="387.137,-158.591 378.561,-152.37 381.386,-162.581 387.137,-158.591"/>
</g>
<!-- Money&#45;&gt;2059 -->
<g id="edge96" class="edge"><title>Money&#45;&gt;2059</title>
<path fill="none" stroke="green" stroke-width="0.181464" d="M416.257,-192.17C420.404,-184.777 426.819,-173.341 432.929,-162.447"/>
<polygon fill="green" stroke="green" stroke-width="0.181464" points="436.093,-163.96 437.933,-153.526 429.988,-160.535 436.093,-163.96"/>
</g>
<!-- Money&#45;&gt;2060 -->
<g id="edge97" class="edge"><title>Money&#45;&gt;2060</title>
<path fill="none" stroke="green" stroke-width="0.26415" d="M430.5,-192.16C449.048,-183.943 478.019,-170.408 501.749,-156.208 503.43,-155.202 505.134,-154.136 506.836,-153.033"/>
<polygon fill="green" stroke="green" stroke-width="0.26415" points="508.918,-155.85 515.223,-147.335 504.984,-150.06 508.918,-155.85"/>
</g>
<!-- Money&#45;&gt;2061 -->
<g id="edge98" class="edge"><title>Money&#45;&gt;2061</title>
<path fill="none" stroke="green" stroke-width="0.378667" d="M433.759,-194.506C436.779,-193.73 439.84,-192.947 442.749,-192.208 506.688,-175.966 526.906,-183.972 586.749,-156.208 588.574,-155.362 590.401,-154.409 592.208,-153.385"/>
<polygon fill="green" stroke="green" stroke-width="0.378667" points="594.4,-156.139 600.965,-147.823 590.647,-150.23 594.4,-156.139"/>
</g>
<!-- Buy -->
<g id="node8" class="node"><title>Buy</title>
<ellipse fill="lightblue" stroke="black" cx="624.749" cy="-35.3553" rx="22.7556" ry="22.7556"/>
<text text-anchor="middle" x="624.749" y="-33.1553" font-family="Times New Roman,serif" font-size="9.00">Buy</text>
</g>
<!-- Buy&#45;&gt;Buy -->
<g id="edge155" class="edge"><title>Buy&#45;&gt;Buy</title>
<path fill="none" stroke="red" stroke-width="0.275253" d="M641.019,-51.2284C653.15,-56.7714 665.376,-51.4803 665.376,-35.3553 665.376,-23.7655 659.06,-17.7725 651.003,-17.3764"/>
<polygon fill="red" stroke="red" stroke-width="0.275253" points="650.081,-13.9937 641.019,-19.4823 651.526,-20.843 650.081,-13.9937"/>
</g>
<!-- Hodl -->
<g id="node9" class="node"><title>Hodl</title>
<ellipse fill="lightblue" stroke="black" cx="707.749" cy="-35.3553" rx="25" ry="25"/>
<text text-anchor="middle" x="707.749" y="-33.1553" font-family="Times New Roman,serif" font-size="9.00">Hodl</text>
</g>
<!-- Hodl&#45;&gt;Hodl -->
<g id="edge156" class="edge"><title>Hodl&#45;&gt;Hodl</title>
<path fill="none" stroke="red" stroke-width="0.287185" d="M726.648,-51.9315C738.801,-56.2557 750.497,-50.7303 750.497,-35.3553 750.497,-24.4247 744.586,-18.4723 736.801,-17.4983"/>
<polygon fill="red" stroke="red" stroke-width="0.287185" points="736.132,-14.0549 726.648,-18.7792 737.008,-20.9999 736.132,-14.0549"/>
</g>
<!-- Sell -->
<g id="node10" class="node"><title>Sell</title>
<ellipse fill="lightblue" stroke="black" cx="438.749" cy="-35.3553" rx="20.5122" ry="20.5122"/>
<text text-anchor="middle" x="438.749" y="-33.1553" font-family="Times New Roman,serif" font-size="9.00">Sell</text>
</g>
<!-- Sell&#45;&gt;Sell -->
<g id="edge157" class="edge"><title>Sell&#45;&gt;Sell</title>
<path fill="none" stroke="red" stroke-width="0.297625" d="M452.967,-50.6088C464.844,-57.1273 477.255,-52.0428 477.255,-35.3553 477.255,-23.3612 470.843,-17.3612 462.827,-17.3553"/>
<polygon fill="red" stroke="red" stroke-width="0.297625" points="461.661,-14.0468 452.967,-20.1019 463.539,-20.7901 461.661,-14.0468"/>
</g>
<!-- Quantity -->
<g id="node11" class="node"><title>Quantity</title>
<ellipse fill="lightblue" stroke="black" cx="530.749" cy="-35.3553" rx="35.2113" ry="35.2113"/>
<text text-anchor="middle" x="530.749" y="-33.1553" font-family="Times New Roman,serif" font-size="9.00">Quantity</text>
</g>
<!-- Quantity&#45;&gt;Quantity -->
<g id="edge158" class="edge"><title>Quantity&#45;&gt;Quantity</title>
<path fill="none" stroke="red" stroke-width="0.257868" d="M561.453,-53.2455C573.768,-54.2562 584.104,-48.2928 584.104,-35.3553 584.104,-26.2587 578.994,-20.6099 571.679,-18.409"/>
<polygon fill="red" stroke="red" stroke-width="0.257868" points="571.732,-14.8991 561.453,-17.4652 571.089,-21.8695 571.732,-14.8991"/>
</g>
<!-- 2048&#45;&gt;Buy -->
<g id="edge99" class="edge"><title>2048&#45;&gt;Buy</title>
<path fill="none" stroke="green" stroke-width="0.152557" d="M688.943,-111.867C676.535,-97.2713 659.15,-76.8221 645.602,-60.8847"/>
<polygon fill="green" stroke="green" stroke-width="0.152557" points="648.057,-58.3687 638.913,-53.0167 642.723,-62.9026 648.057,-58.3687"/>
</g>
<!-- 2048&#45;&gt;Hodl -->
<g id="edge100" class="edge"><title>2048&#45;&gt;Hodl</title>
<path fill="none" stroke="green" stroke-width="0.122006" d="M705.506,-106.713C705.858,-95.6795 706.282,-82.3587 706.667,-70.2894"/>
<polygon fill="green" stroke="green" stroke-width="0.122006" points="710.171,-70.2007 706.992,-60.0942 703.175,-69.9775 710.171,-70.2007"/>
</g>
<!-- 2048&#45;&gt;Sell -->
<g id="edge101" class="edge"><title>2048&#45;&gt;Sell</title>
<path fill="none" stroke="green" stroke-width="0.110594" d="M686.05,-114.904C681.582,-111.797 676.673,-108.839 671.749,-106.711 594.86,-73.4754 563.681,-103.846 486.749,-70.7107 478.09,-66.9811 469.455,-61.4952 461.946,-55.9969"/>
<polygon fill="green" stroke="green" stroke-width="0.110594" points="463.768,-52.9818 453.713,-49.6413 459.49,-58.5227 463.768,-52.9818"/>
</g>
<!-- 2048&#45;&gt;Quantity -->
<g id="edge102" class="edge"><title>2048&#45;&gt;Quantity</title>
<path fill="none" stroke="red" stroke-width="0.490706" d="M685.629,-115.74C681.182,-112.589 676.389,-109.403 671.749,-106.711 638.374,-87.3484 627.206,-88.0747 592.749,-70.7107 585.408,-67.0115 577.677,-62.9038 570.259,-58.8525"/>
<polygon fill="red" stroke="red" stroke-width="0.490706" points="571.53,-55.5559 561.084,-53.7862 568.146,-61.6838 571.53,-55.5559"/>
</g>
<!-- 2048&#45;&gt;2048 -->
<g id="edge159" class="edge"><title>2048&#45;&gt;2048</title>
<path fill="none" stroke="green" stroke-width="0.129274" d="M726.304,-143.761C737.45,-145.654 747.497,-141.553 747.497,-131.459 747.497,-124.678 742.962,-120.601 736.605,-119.23"/>
<polygon fill="green" stroke="green" stroke-width="0.129274" points="736.329,-115.728 726.304,-119.158 736.279,-122.728 736.329,-115.728"/>
</g>
<!-- 2049&#45;&gt;Buy -->
<g id="edge103" class="edge"><title>2049&#45;&gt;Buy</title>
<path fill="none" stroke="red" stroke-width="0.171827" d="M770.666,-115.676C766.217,-112.529 761.413,-109.36 756.749,-106.711 721.785,-86.8529 708.834,-90.3528 673.749,-70.7107 665.93,-66.3333 657.817,-61.0058 650.497,-55.8653"/>
<polygon fill="red" stroke="red" stroke-width="0.171827" points="652.492,-52.9889 642.332,-49.9848 648.401,-58.6691 652.492,-52.9889"/>
</g>
<!-- 2049&#45;&gt;Hodl -->
<g id="edge104" class="edge"><title>2049&#45;&gt;Hodl</title>
<path fill="none" stroke="red" stroke-width="0.279739" d="M773.938,-112.315C761.573,-98.125 744.218,-78.2076 730.381,-62.3281"/>
<polygon fill="red" stroke="red" stroke-width="0.279739" points="732.719,-59.6838 723.511,-54.4438 727.441,-64.2825 732.719,-59.6838"/>
</g>
<!-- 2049&#45;&gt;Sell -->
<g id="edge105" class="edge"><title>2049&#45;&gt;Sell</title>
<path fill="none" stroke="green" stroke-width="0.168956" d="M771.141,-114.685C766.668,-111.589 761.734,-108.691 756.749,-106.711 644.241,-62.0116 599.314,-115.264 486.749,-70.7107 477.982,-67.2409 469.318,-61.8281 461.814,-56.3168"/>
<polygon fill="green" stroke="green" stroke-width="0.168956" points="463.639,-53.3021 453.601,-49.9124 459.334,-58.822 463.639,-53.3021"/>
</g>
<!-- 2049&#45;&gt;Quantity -->
<g id="edge106" class="edge"><title>2049&#45;&gt;Quantity</title>
<path fill="none" stroke="green" stroke-width="0.11152" d="M771.012,-114.991C766.546,-111.879 761.647,-108.898 756.749,-106.711 688.608,-76.2858 662.562,-97.0717 592.749,-70.7107 584.805,-67.7112 576.639,-63.8328 568.949,-59.7672"/>
<polygon fill="green" stroke="green" stroke-width="0.11152" points="570.63,-56.6974 560.18,-54.95 567.259,-62.8326 570.63,-56.6974"/>
</g>
<!-- 2049&#45;&gt;2049 -->
<g id="edge160" class="edge"><title>2049&#45;&gt;2049</title>
<path fill="none" stroke="green" stroke-width="0.527652" d="M811.304,-143.761C822.45,-145.654 832.497,-141.553 832.497,-131.459 832.497,-124.678 827.962,-120.601 821.605,-119.23"/>
<polygon fill="green" stroke="green" stroke-width="0.527652" points="821.329,-115.728 811.304,-119.158 821.279,-122.728 821.329,-115.728"/>
</g>
<!-- 2050&#45;&gt;Buy -->
<g id="edge107" class="edge"><title>2050&#45;&gt;Buy</title>
<path fill="none" stroke="red" stroke-width="0.325623" d="M856.02,-114.973C851.553,-111.862 846.653,-108.886 841.749,-106.711 771.944,-75.7516 743.742,-101.239 673.749,-70.7107 665.535,-67.1282 657.294,-62.0599 649.976,-56.9138"/>
<polygon fill="red" stroke="red" stroke-width="0.325623" points="651.989,-54.0495 641.867,-50.9211 647.829,-59.6792 651.989,-54.0495"/>
</g>
<!-- 2050&#45;&gt;Hodl -->
<g id="edge108" class="edge"><title>2050&#45;&gt;Hodl</title>
<path fill="none" stroke="red" stroke-width="0.195084" d="M855.164,-115.681C850.824,-112.6 846.192,-109.457 841.749,-106.711 807.76,-85.7017 766.868,-64.8265 739.267,-51.3394"/>
<polygon fill="red" stroke="red" stroke-width="0.195084" points="740.617,-48.1041 730.092,-46.8889 737.562,-54.4023 740.617,-48.1041"/>
</g>
<!-- 2050&#45;&gt;Sell -->
<g id="edge109" class="edge"><title>2050&#45;&gt;Sell</title>
<path fill="none" stroke="red" stroke-width="0.231662" d="M856.187,-114.568C851.711,-111.478 846.765,-108.613 841.749,-106.711 693.464,-50.484 635.106,-126.745 486.749,-70.7107 477.929,-67.3794 469.249,-62.0055 461.748,-56.4873"/>
<polygon fill="red" stroke="red" stroke-width="0.231662" points="463.575,-53.4722 453.545,-50.0569 459.256,-58.9811 463.575,-53.4722"/>
</g>
<!-- 2050&#45;&gt;Quantity -->
<g id="edge110" class="edge"><title>2050&#45;&gt;Quantity</title>
<path fill="none" stroke="red" stroke-width="0.130248" d="M856.125,-114.726C851.652,-111.628 846.723,-108.719 841.749,-106.711 738.062,-64.8524 698.72,-106.393 592.749,-70.7107 584.702,-68.0011 576.488,-64.2563 568.783,-60.2312"/>
<polygon fill="red" stroke="red" stroke-width="0.130248" points="570.462,-57.1606 560.011,-55.4226 567.098,-63.2988 570.462,-57.1606"/>
</g>
<!-- 2050&#45;&gt;2050 -->
<g id="edge161" class="edge"><title>2050&#45;&gt;2050</title>
<path fill="none" stroke="green" stroke-width="0.332216" d="M896.304,-143.761C907.45,-145.654 917.497,-141.553 917.497,-131.459 917.497,-124.678 912.962,-120.601 906.605,-119.23"/>
<polygon fill="green" stroke="green" stroke-width="0.332216" points="906.329,-115.728 896.304,-119.158 906.279,-122.728 906.329,-115.728"/>
</g>
<!-- 2051&#45;&gt;Buy -->
<g id="edge111" class="edge"><title>2051&#45;&gt;Buy</title>
<path fill="none" stroke="red" stroke-width="0.252929" d="M941.128,-114.717C936.656,-111.62 931.725,-108.713 926.749,-106.711 821.382,-64.3116 779.374,-112.46 673.749,-70.7107 665.276,-67.3618 656.859,-62.2764 649.453,-57.0368"/>
<polygon fill="red" stroke="red" stroke-width="0.252929" points="651.382,-54.1084 641.281,-50.9102 647.183,-59.7092 651.382,-54.1084"/>
</g>
<!-- 2051&#45;&gt;Hodl -->
<g id="edge112" class="edge"><title>2051&#45;&gt;Hodl</title>
<path fill="none" stroke="green" stroke-width="0.239505" d="M940.85,-115.331C936.392,-112.202 931.538,-109.127 926.749,-106.711 864.861,-75.4822 786.212,-54.2563 741.985,-43.826"/>
<polygon fill="green" stroke="green" stroke-width="0.239505" points="742.57,-40.369 732.039,-41.5261 740.993,-47.189 742.57,-40.369"/>
</g>
<!-- 2051&#45;&gt;Sell -->
<g id="edge113" class="edge"><title>2051&#45;&gt;Sell</title>
<path fill="none" stroke="green" stroke-width="0.193479" d="M941.214,-114.496C936.737,-111.41 931.783,-108.564 926.749,-106.711 742.619,-38.9305 670.966,-138.252 486.749,-70.7107 477.897,-67.4652 469.208,-62.1154 461.708,-56.5929"/>
<polygon fill="green" stroke="green" stroke-width="0.193479" points="463.536,-53.5775 453.512,-50.1464 459.208,-59.0796 463.536,-53.5775"/>
</g>
<!-- 2051&#45;&gt;Quantity -->
<g id="edge114" class="edge"><title>2051&#45;&gt;Quantity</title>
<path fill="none" stroke="red" stroke-width="0.212845" d="M941.178,-114.592C936.702,-111.501 931.759,-108.628 926.749,-106.711 787.311,-53.3352 735.086,-115.786 592.749,-70.7107 584.654,-68.1472 576.418,-64.4698 568.706,-60.4652"/>
<polygon fill="red" stroke="red" stroke-width="0.212845" points="570.385,-57.3942 559.933,-55.6609 567.023,-63.5339 570.385,-57.3942"/>
</g>
<!-- 2051&#45;&gt;2051 -->
<g id="edge162" class="edge"><title>2051&#45;&gt;2051</title>
<path fill="none" stroke="green" stroke-width="0.107073" d="M981.304,-143.761C992.45,-145.654 1002.5,-141.553 1002.5,-131.459 1002.5,-124.678 997.962,-120.601 991.605,-119.23"/>
<polygon fill="green" stroke="green" stroke-width="0.107073" points="991.329,-115.728 981.304,-119.158 991.279,-122.728 991.329,-115.728"/>
</g>
<!-- 2052&#45;&gt;Buy -->
<g id="edge115" class="edge"><title>2052&#45;&gt;Buy</title>
<path fill="none" stroke="red" stroke-width="0.224333" d="M1026.18,-114.587C1021.7,-111.496 1016.76,-108.625 1011.75,-106.711 870.626,-52.7922 815.2,-123.759 673.749,-70.7107 665.219,-67.5116 656.783,-62.4733 649.378,-57.2311"/>
<polygon fill="red" stroke="red" stroke-width="0.224333" points="651.308,-54.303 641.215,-51.0815 647.096,-59.8941 651.308,-54.303"/>
</g>
<!-- 2052&#45;&gt;Hodl -->
<g id="edge116" class="edge"><title>2052&#45;&gt;Hodl</title>
<path fill="none" stroke="green" stroke-width="0.116572" d="M1025.99,-115.032C1021.53,-111.918 1016.63,-108.926 1011.75,-106.711 919.78,-65.0193 800.572,-46.7411 742.549,-39.8839"/>
<polygon fill="green" stroke="green" stroke-width="0.116572" points="742.779,-36.3876 732.448,-38.7334 741.987,-43.3426 742.779,-36.3876"/>
</g>
<!-- 2052&#45;&gt;Sell -->
<g id="edge117" class="edge"><title>2052&#45;&gt;Sell</title>
<path fill="none" stroke="green" stroke-width="0.349882" d="M1026.23,-114.446C1021.75,-111.363 1016.8,-108.531 1011.75,-106.711 791.738,-27.3639 706.862,-149.773 486.749,-70.7107 477.876,-67.5236 469.181,-62.1902 461.682,-56.6648"/>
<polygon fill="green" stroke="green" stroke-width="0.349882" points="463.51,-53.649 453.49,-50.2073 459.177,-59.1466 463.51,-53.649"/>
</g>
<!-- 2052&#45;&gt;Quantity -->
<g id="edge118" class="edge"><title>2052&#45;&gt;Quantity</title>
<path fill="none" stroke="red" stroke-width="0.172162" d="M1026.21,-114.511C1021.73,-111.424 1016.78,-108.574 1011.75,-106.711 836.479,-41.7864 771.537,-125.205 592.749,-70.7107 584.627,-68.235 576.379,-64.5981 568.663,-60.6057"/>
<polygon fill="red" stroke="red" stroke-width="0.172162" points="570.341,-57.5346 559.889,-55.8041 566.981,-63.6752 570.341,-57.5346"/>
</g>
<!-- 2052&#45;&gt;2052 -->
<g id="edge163" class="edge"><title>2052&#45;&gt;2052</title>
<path fill="none" stroke="red" stroke-width="0.184632" d="M1066.3,-143.761C1077.45,-145.654 1087.5,-141.553 1087.5,-131.459 1087.5,-124.678 1082.96,-120.601 1076.61,-119.23"/>
<polygon fill="red" stroke="red" stroke-width="0.184632" points="1076.33,-115.728 1066.3,-119.158 1076.28,-122.728 1076.33,-115.728"/>
</g>
<!-- 2053&#45;&gt;Buy -->
<g id="edge119" class="edge"><title>2053&#45;&gt;Buy</title>
<path fill="none" stroke="red" stroke-width="0.19727" d="M1111.21,-114.508C1106.73,-111.421 1101.78,-108.572 1096.75,-106.711 919.791,-41.2425 851.106,-135.088 673.749,-70.7107 665.185,-67.6022 656.739,-62.5925 649.335,-57.3486"/>
<polygon fill="red" stroke="red" stroke-width="0.19727" points="651.265,-54.4207 641.177,-51.1851 647.046,-60.0059 651.265,-54.4207"/>
</g>
<!-- 2053&#45;&gt;Hodl -->
<g id="edge120" class="edge"><title>2053&#45;&gt;Hodl</title>
<path fill="none" stroke="green" stroke-width="0.15641" d="M1111.07,-114.856C1106.6,-111.751 1101.69,-108.806 1096.75,-106.711 973.561,-54.4298 812.352,-40.9744 742.509,-37.5304"/>
<polygon fill="green" stroke="green" stroke-width="0.15641" points="742.642,-34.0329 732.493,-37.0753 742.324,-41.0257 742.642,-34.0329"/>
</g>
<!-- 2053&#45;&gt;Sell -->
<g id="edge121" class="edge"><title>2053&#45;&gt;Sell</title>
<path fill="none" stroke="red" stroke-width="0.298227" d="M1111.24,-114.411C1106.77,-111.329 1101.8,-108.507 1096.75,-106.711 840.837,-15.7898 742.778,-161.3 486.749,-70.7107 477.861,-67.5658 469.162,-62.2444 461.664,-56.7168"/>
<polygon fill="red" stroke="red" stroke-width="0.298227" points="463.492,-53.7008 453.474,-50.2514 459.154,-59.195 463.492,-53.7008"/>
</g>
<!-- 2053&#45;&gt;Quantity -->
<g id="edge122" class="edge"><title>2053&#45;&gt;Quantity</title>
<path fill="none" stroke="red" stroke-width="0.209247" d="M1111.23,-114.457C1106.75,-111.373 1101.79,-108.538 1096.75,-106.711 885.605,-30.2223 808.029,-134.637 592.749,-70.7107 584.609,-68.2936 576.353,-64.6836 568.635,-60.6995"/>
<polygon fill="red" stroke="red" stroke-width="0.209247" points="570.313,-57.6282 559.86,-55.8995 566.954,-63.7694 570.313,-57.6282"/>
</g>
<!-- 2053&#45;&gt;2053 -->
<g id="edge164" class="edge"><title>2053&#45;&gt;2053</title>
<path fill="none" stroke="red" stroke-width="0.214151" d="M1151.3,-143.761C1162.45,-145.654 1172.5,-141.553 1172.5,-131.459 1172.5,-124.678 1167.96,-120.601 1161.61,-119.23"/>
<polygon fill="red" stroke="red" stroke-width="0.214151" points="1161.33,-115.728 1151.3,-119.158 1161.28,-122.728 1161.33,-115.728"/>
</g>
<!-- 2054&#45;&gt;Buy -->
<g id="edge123" class="edge"><title>2054&#45;&gt;Buy</title>
<path fill="none" stroke="green" stroke-width="0.27927" d="M45.9357,-118.469C54.8624,-113.986 65.5352,-109.348 75.7487,-106.711 187.259,-77.9211 488.808,-120.306 592.749,-70.7107 597.291,-68.5432 601.504,-65.4224 605.282,-61.9344"/>
<polygon fill="green" stroke="green" stroke-width="0.27927" points="608.045,-64.1082 612.393,-54.4467 602.969,-59.2879 608.045,-64.1082"/>
</g>
<!-- 2054&#45;&gt;Hodl -->
<g id="edge124" class="edge"><title>2054&#45;&gt;Hodl</title>
<path fill="none" stroke="red" stroke-width="0.260705" d="M45.9233,-118.42C54.8481,-113.93 65.5228,-109.299 75.7487,-106.711 205.023,-73.9885 553.692,-126.637 674.749,-70.7107 678.916,-68.7857 682.827,-66.0806 686.397,-63.0242"/>
<polygon fill="red" stroke="red" stroke-width="0.260705" points="688.938,-65.4346 693.636,-55.9384 684.042,-60.4321 688.938,-65.4346"/>
</g>
<!-- 2054&#45;&gt;Sell -->
<g id="edge125" class="edge"><title>2054&#45;&gt;Sell</title>
<path fill="none" stroke="red" stroke-width="0.219728" d="M46.615,-118.844C55.4642,-114.525 65.9006,-109.905 75.7487,-106.711 195.524,-67.8644 344.866,-47.2426 408.146,-39.7237"/>
<polygon fill="red" stroke="red" stroke-width="0.219728" points="408.713,-43.1814 418.242,-38.5494 407.904,-36.2283 408.713,-43.1814"/>
</g>
<!-- 2054&#45;&gt;Quantity -->
<g id="edge126" class="edge"><title>2054&#45;&gt;Quantity</title>
<path fill="none" stroke="green" stroke-width="0.244476" d="M45.9597,-118.56C54.8901,-114.092 65.5591,-109.439 75.7487,-106.711 252.877,-59.29 316.135,-137.898 486.749,-70.7107 490.198,-69.3524 493.599,-67.633 496.889,-65.6908"/>
<polygon fill="green" stroke="green" stroke-width="0.244476" points="498.89,-68.5636 505.295,-60.1241 495.025,-62.7273 498.89,-68.5636"/>
</g>
<!-- 2054&#45;&gt;2054 -->
<g id="edge165" class="edge"><title>2054&#45;&gt;2054</title>
<path fill="none" stroke="red" stroke-width="0.173814" d="M46.3044,-143.761C57.4504,-145.654 67.4975,-141.553 67.4975,-131.459 67.4975,-124.678 62.9621,-120.601 56.6052,-119.23"/>
<polygon fill="red" stroke="red" stroke-width="0.173814" points="56.329,-115.728 46.3044,-119.158 56.2794,-122.728 56.329,-115.728"/>
</g>
<!-- 2055&#45;&gt;Buy -->
<g id="edge127" class="edge"><title>2055&#45;&gt;Buy</title>
<path fill="none" stroke="green" stroke-width="0.147149" d="M130.954,-118.538C139.883,-114.067 150.553,-109.417 160.749,-106.711 346.965,-57.2786 419.432,-154.862 592.749,-70.7107 597.277,-68.5123 601.482,-65.3756 605.257,-61.8811"/>
<polygon fill="green" stroke="green" stroke-width="0.147149" points="608.02,-64.0539 612.367,-54.3917 602.943,-59.2345 608.02,-64.0539"/>
</g>
<!-- 2055&#45;&gt;Hodl -->
<g id="edge128" class="edge"><title>2055&#45;&gt;Hodl</title>
<path fill="none" stroke="red" stroke-width="0.140819" d="M130.936,-118.471C139.863,-113.989 150.536,-109.35 160.749,-106.711 271.61,-78.0649 571.042,-119.245 674.749,-70.7107 678.906,-68.7651 682.812,-66.0483 686.38,-62.9863"/>
<polygon fill="red" stroke="red" stroke-width="0.140819" points="688.923,-65.3947 693.617,-55.8966 684.024,-60.3941 688.923,-65.3947"/>
</g>
<!-- 2055&#45;&gt;Sell -->
<g id="edge129" class="edge"><title>2055&#45;&gt;Sell</title>
<path fill="none" stroke="red" stroke-width="0.146202" d="M131.712,-119.128C140.574,-114.849 150.995,-110.181 160.749,-106.711 248.732,-75.4059 357.034,-52.204 408.642,-42.0376"/>
<polygon fill="red" stroke="red" stroke-width="0.146202" points="409.329,-45.4697 418.476,-40.1237 407.991,-38.5987 409.329,-45.4697"/>
</g>
<!-- 2055&#45;&gt;Quantity -->
<g id="edge130" class="edge"><title>2055&#45;&gt;Quantity</title>
<path fill="none" stroke="red" stroke-width="0.289641" d="M130.991,-118.675C139.927,-114.225 150.591,-109.554 160.749,-106.711 301.124,-67.4231 351.729,-125.652 486.749,-70.7107 490.182,-69.3135 493.572,-67.5668 496.855,-65.6063"/>
<polygon fill="red" stroke="red" stroke-width="0.289641" points="498.87,-68.4695 505.249,-60.0106 494.987,-62.6449 498.87,-68.4695"/>
</g>
<!-- 2055&#45;&gt;2055 -->
<g id="edge166" class="edge"><title>2055&#45;&gt;2055</title>
<path fill="none" stroke="green" stroke-width="0.150256" d="M131.304,-143.761C142.45,-145.654 152.497,-141.553 152.497,-131.459 152.497,-124.678 147.962,-120.601 141.605,-119.23"/>
<polygon fill="green" stroke="green" stroke-width="0.150256" points="141.329,-115.728 131.304,-119.158 141.279,-122.728 141.329,-115.728"/>
</g>
<!-- 2056&#45;&gt;Buy -->
<g id="edge131" class="edge"><title>2056&#45;&gt;Buy</title>
<path fill="none" stroke="green" stroke-width="0.255706" d="M215.982,-118.642C224.916,-114.186 235.581,-109.52 245.749,-106.711 395.198,-65.4154 453.963,-139.84 592.749,-70.7107 597.254,-68.4666 601.448,-65.3062 605.218,-61.8021"/>
<polygon fill="green" stroke="green" stroke-width="0.255706" points="607.982,-63.9736 612.327,-54.3103 602.904,-59.1555 607.982,-63.9736"/>
</g>
<!-- 2056&#45;&gt;Hodl -->
<g id="edge132" class="edge"><title>2056&#45;&gt;Hodl</title>
<path fill="none" stroke="red" stroke-width="0.362218" d="M215.955,-118.541C224.884,-114.07 235.554,-109.42 245.749,-106.711 430.666,-57.566 502.015,-153.007 674.749,-70.7107 678.892,-68.7364 682.791,-66.0035 686.355,-62.9336"/>
<polygon fill="red" stroke="red" stroke-width="0.362218" points="688.9,-65.3393 693.59,-55.8386 683.999,-60.3414 688.9,-65.3393"/>
</g>
<!-- 2056&#45;&gt;Sell -->
<g id="edge133" class="edge"><title>2056&#45;&gt;Sell</title>
<path fill="none" stroke="red" stroke-width="0.162247" d="M216.655,-119.753C225.6,-115.515 236.093,-110.71 245.749,-106.711 302.972,-83.0089 371.38,-59.086 409.46,-46.1504"/>
<polygon fill="red" stroke="red" stroke-width="0.162247" points="411.01,-49.3211 419.362,-42.8026 408.768,-42.6899 411.01,-49.3211"/>
</g>
<!-- 2056&#45;&gt;Quantity -->
<g id="edge134" class="edge"><title>2056&#45;&gt;Quantity</title>
<path fill="none" stroke="green" stroke-width="0.272137" d="M216.546,-118.624C225.386,-114.275 235.834,-109.691 245.749,-106.711 349.463,-75.5304 387.236,-113.443 486.749,-70.7107 490.155,-69.248 493.526,-67.4554 496.795,-65.4642"/>
<polygon fill="green" stroke="green" stroke-width="0.272137" points="498.834,-68.3112 505.169,-59.8195 494.921,-62.5067 498.834,-68.3112"/>
</g>
<!-- 2056&#45;&gt;2056 -->
<g id="edge167" class="edge"><title>2056&#45;&gt;2056</title>
<path fill="none" stroke="red" stroke-width="0.22202" d="M216.304,-143.761C227.45,-145.654 237.497,-141.553 237.497,-131.459 237.497,-124.678 232.962,-120.601 226.605,-119.23"/>
<polygon fill="red" stroke="red" stroke-width="0.22202" points="226.329,-115.728 216.304,-119.158 226.279,-122.728 226.329,-115.728"/>
</g>
<!-- 2057&#45;&gt;Buy -->
<g id="edge135" class="edge"><title>2057&#45;&gt;Buy</title>
<path fill="none" stroke="red" stroke-width="0.240771" d="M301.03,-118.81C309.971,-114.38 320.629,-109.688 330.749,-106.711 443.507,-73.5313 488.423,-124.853 592.749,-70.7107 597.13,-68.4368 601.23,-65.316 604.935,-61.8763"/>
<polygon fill="red" stroke="red" stroke-width="0.240771" points="607.571,-64.1838 611.952,-54.5371 602.512,-59.3463 607.571,-64.1838"/>
</g>
<!-- 2057&#45;&gt;Hodl -->
<g id="edge136" class="edge"><title>2057&#45;&gt;Hodl</title>
<path fill="none" stroke="green" stroke-width="0.297415" d="M300.983,-118.646C309.917,-114.191 320.583,-109.525 330.749,-106.711 478.902,-65.7023 536.658,-138.252 674.749,-70.7107 678.872,-68.694 682.758,-65.937 686.317,-62.8554"/>
<polygon fill="green" stroke="green" stroke-width="0.297415" points="688.867,-65.257 693.548,-55.7525 683.961,-60.2632 688.867,-65.257"/>
</g>
<!-- 2057&#45;&gt;Sell -->
<g id="edge137" class="edge"><title>2057&#45;&gt;Sell</title>
<path fill="none" stroke="green" stroke-width="0.441744" d="M300.863,-117.963C329.648,-100.927 381.192,-70.4205 412.452,-51.9193"/>
<polygon fill="green" stroke="green" stroke-width="0.441744" points="414.631,-54.6966 421.454,-46.5912 411.066,-48.6726 414.631,-54.6966"/>
</g>
<!-- 2057&#45;&gt;Quantity -->
<g id="edge138" class="edge"><title>2057&#45;&gt;Quantity</title>
<path fill="none" stroke="red" stroke-width="0.328528" d="M301.675,-119.022C310.532,-114.729 320.959,-110.078 330.749,-106.711 398.035,-83.5657 422.519,-101.331 486.749,-70.7107 489.906,-69.2053 493.048,-67.4416 496.116,-65.5221"/>
<polygon fill="red" stroke="red" stroke-width="0.328528" points="498.232,-68.3153 504.517,-59.7859 494.285,-62.5343 498.232,-68.3153"/>
</g>
<!-- 2057&#45;&gt;2057 -->
<g id="edge168" class="edge"><title>2057&#45;&gt;2057</title>
<path fill="none" stroke="green" stroke-width="0.196888" d="M301.304,-143.761C312.45,-145.654 322.497,-141.553 322.497,-131.459 322.497,-124.678 317.962,-120.601 311.605,-119.23"/>
<polygon fill="green" stroke="green" stroke-width="0.196888" points="311.329,-115.728 301.304,-119.158 311.279,-122.728 311.329,-115.728"/>
</g>
<!-- 2058&#45;&gt;Buy -->
<g id="edge139" class="edge"><title>2058&#45;&gt;Buy</title>
<path fill="none" stroke="red" stroke-width="0.186171" d="M386.63,-118.89C395.482,-114.578 405.915,-109.95 415.749,-106.711 491.995,-81.5933 522.717,-109.954 592.749,-70.7107 597.055,-68.2975 601.115,-65.1034 604.804,-61.6328"/>
<polygon fill="red" stroke="red" stroke-width="0.186171" points="607.445,-63.9344 611.815,-54.2825 602.38,-59.1029 607.445,-63.9344"/>
</g>
<!-- 2058&#45;&gt;Hodl -->
<g id="edge140" class="edge"><title>2058&#45;&gt;Hodl</title>
<path fill="none" stroke="red" stroke-width="0.19917" d="M386.032,-118.818C394.974,-114.39 405.632,-109.696 415.749,-106.711 527.214,-73.8171 571.228,-123.532 674.749,-70.7107 678.837,-68.6245 682.704,-65.8281 686.253,-62.7276"/>
<polygon fill="red" stroke="red" stroke-width="0.19917" points="688.809,-65.1226 693.478,-55.6117 683.897,-60.1354 688.809,-65.1226"/>
</g>
<!-- 2058&#45;&gt;Sell -->
<g id="edge141" class="edge"><title>2058&#45;&gt;Sell</title>
<path fill="none" stroke="green" stroke-width="0.297261" d="M379.724,-111.416C391.34,-96.6435 407.511,-76.0797 419.99,-60.2107"/>
<polygon fill="green" stroke="green" stroke-width="0.297261" points="423.06,-61.9684 426.49,-51.9442 417.558,-57.6414 423.06,-61.9684"/>
</g>
<!-- 2058&#45;&gt;Quantity -->
<g id="edge142" class="edge"><title>2058&#45;&gt;Quantity</title>
<path fill="none" stroke="red" stroke-width="0.250582" d="M386.888,-119.924C419.509,-104.353 477.627,-76.4188 486.749,-70.7107 489.714,-68.855 492.718,-66.8397 495.69,-64.7466"/>
<polygon fill="red" stroke="red" stroke-width="0.250582" points="497.93,-67.4445 503.927,-58.71 493.792,-61.7986 497.93,-67.4445"/>
</g>
<!-- 2058&#45;&gt;2058 -->
<g id="edge169" class="edge"><title>2058&#45;&gt;2058</title>
<path fill="none" stroke="red" stroke-width="0.104527" d="M386.304,-143.761C397.45,-145.654 407.497,-141.553 407.497,-131.459 407.497,-124.678 402.962,-120.601 396.605,-119.23"/>
<polygon fill="red" stroke="red" stroke-width="0.104527" points="396.329,-115.728 386.304,-119.158 396.279,-122.728 396.329,-115.728"/>
</g>
<!-- 2059&#45;&gt;Buy -->
<g id="edge143" class="edge"><title>2059&#45;&gt;Buy</title>
<path fill="none" stroke="green" stroke-width="0.275323" d="M471.704,-119.868C480.655,-115.646 491.141,-110.823 500.749,-106.711 541.115,-89.4346 556.434,-95.3917 592.749,-70.7107 596.646,-68.0618 600.415,-64.8573 603.915,-61.4831"/>
<polygon fill="green" stroke="green" stroke-width="0.275323" points="606.712,-63.6223 611.092,-53.9754 601.652,-58.7851 606.712,-63.6223"/>
</g>
<!-- 2059&#45;&gt;Hodl -->
<g id="edge144" class="edge"><title>2059&#45;&gt;Hodl</title>
<path fill="none" stroke="green" stroke-width="0.346922" d="M471.636,-118.907C480.488,-114.598 490.921,-109.967 500.749,-106.711 575.713,-81.8758 605.626,-108.901 674.749,-70.7107 678.576,-68.5959 682.231,-65.8891 685.62,-62.9251"/>
<polygon fill="green" stroke="green" stroke-width="0.346922" points="688.304,-65.1952 693.004,-55.6997 683.409,-60.1919 688.304,-65.1952"/>
</g>
<!-- 2059&#45;&gt;Sell -->
<g id="edge145" class="edge"><title>2059&#45;&gt;Sell</title>
<path fill="none" stroke="green" stroke-width="0.120508" d="M446.973,-106.713C445.527,-94.3396 443.744,-79.0895 442.209,-65.9539"/>
<polygon fill="green" stroke="green" stroke-width="0.120508" points="445.679,-65.4941 441.041,-55.9681 438.726,-66.3068 445.679,-65.4941"/>
</g>
<!-- 2059&#45;&gt;Quantity -->
<g id="edge146" class="edge"><title>2059&#45;&gt;Quantity</title>
<path fill="none" stroke="red" stroke-width="0.299737" d="M465.752,-111.867C475.849,-100.136 489.202,-84.6239 501.176,-70.712"/>
<polygon fill="red" stroke="red" stroke-width="0.299737" points="504.162,-72.6089 508.033,-62.7465 498.856,-68.0423 504.162,-72.6089"/>
</g>
<!-- 2059&#45;&gt;2059 -->
<g id="edge170" class="edge"><title>2059&#45;&gt;2059</title>
<path fill="none" stroke="green" stroke-width="0.154891" d="M471.304,-143.761C482.45,-145.654 492.497,-141.553 492.497,-131.459 492.497,-124.678 487.962,-120.601 481.605,-119.23"/>
<polygon fill="green" stroke="green" stroke-width="0.154891" points="481.329,-115.728 471.304,-119.158 481.279,-122.728 481.329,-115.728"/>
</g>
<!-- 2060&#45;&gt;Buy -->
<g id="edge147" class="edge"><title>2060&#45;&gt;Buy</title>
<path fill="none" stroke="green" stroke-width="0.27132" d="M551.595,-113.294C563.221,-101.401 579.001,-85.1681 592.749,-70.7107 596.084,-67.2035 599.593,-63.4751 603.017,-59.8167"/>
<polygon fill="green" stroke="green" stroke-width="0.27132" points="605.58,-62.2 609.84,-52.4992 600.46,-57.4262 605.58,-62.2"/>
</g>
<!-- 2060&#45;&gt;Hodl -->
<g id="edge148" class="edge"><title>2060&#45;&gt;Hodl</title>
<path fill="none" stroke="red" stroke-width="0.17873" d="M556.728,-119.924C565.682,-115.71 576.164,-110.877 585.749,-106.711 624.88,-89.699 639.411,-94.6251 674.749,-70.7107 678.37,-68.2598 681.904,-65.3558 685.231,-62.2903"/>
<polygon fill="red" stroke="red" stroke-width="0.17873" points="687.952,-64.52 692.564,-54.9818 683.01,-59.5619 687.952,-64.52"/>
</g>
<!-- 2060&#45;&gt;Sell -->
<g id="edge149" class="edge"><title>2060&#45;&gt;Sell</title>
<path fill="none" stroke="green" stroke-width="0.170623" d="M517.141,-113.199C501.181,-97.5547 477.606,-74.4453 460.479,-57.6567"/>
<polygon fill="green" stroke="green" stroke-width="0.170623" points="462.706,-54.9381 453.114,-50.4373 457.806,-59.937 462.706,-54.9381"/>
</g>
<!-- 2060&#45;&gt;Quantity -->
<g id="edge150" class="edge"><title>2060&#45;&gt;Quantity</title>
<path fill="none" stroke="red" stroke-width="0.127351" d="M533.739,-106.713C533.403,-98.801 533.017,-89.7127 532.636,-80.7532"/>
<polygon fill="red" stroke="red" stroke-width="0.127351" points="536.133,-80.6042 532.211,-70.7619 529.139,-80.9015 536.133,-80.6042"/>
</g>
<!-- 2060&#45;&gt;2060 -->
<g id="edge171" class="edge"><title>2060&#45;&gt;2060</title>
<path fill="none" stroke="green" stroke-width="0.165732" d="M556.304,-143.761C567.45,-145.654 577.497,-141.553 577.497,-131.459 577.497,-124.678 572.962,-120.601 566.605,-119.23"/>
<polygon fill="green" stroke="green" stroke-width="0.165732" points="566.329,-115.728 556.304,-119.158 566.279,-122.728 566.329,-115.728"/>
</g>
<!-- 2061&#45;&gt;Buy -->
<g id="edge151" class="edge"><title>2061&#45;&gt;Buy</title>
<path fill="none" stroke="green" stroke-width="0.249012" d="M621.01,-106.713C621.63,-95.0576 622.385,-80.8498 623.053,-68.2611"/>
<polygon fill="green" stroke="green" stroke-width="0.249012" points="626.555,-68.3307 623.59,-58.159 619.565,-67.9592 626.555,-68.3307"/>
</g>
<!-- 2061&#45;&gt;Hodl -->
<g id="edge152" class="edge"><title>2061&#45;&gt;Hodl</title>
<path fill="none" stroke="red" stroke-width="0.265541" d="M636.301,-112.759C649.821,-98.3008 669.099,-77.6858 684.223,-61.5126"/>
<polygon fill="red" stroke="red" stroke-width="0.265541" points="686.997,-63.6708 691.271,-53.9762 681.884,-58.8897 686.997,-63.6708"/>
</g>
<!-- 2061&#45;&gt;Sell -->
<g id="edge153" class="edge"><title>2061&#45;&gt;Sell</title>
<path fill="none" stroke="green" stroke-width="0.188657" d="M600.787,-115.454C596.332,-112.319 591.495,-109.21 586.749,-106.711 544.952,-84.702 528.573,-92.6652 486.749,-70.7107 478.531,-66.3972 470.121,-60.8362 462.682,-55.45"/>
<polygon fill="green" stroke="green" stroke-width="0.188657" points="464.568,-52.4891 454.466,-49.2928 460.37,-58.0907 464.568,-52.4891"/>
</g>
<!-- 2061&#45;&gt;Quantity -->
<g id="edge154" class="edge"><title>2061&#45;&gt;Quantity</title>
<path fill="none" stroke="green" stroke-width="0.359795" d="M603.009,-112.759C591.431,-100.518 575.68,-83.8631 561.838,-69.2276"/>
<polygon fill="green" stroke="green" stroke-width="0.359795" points="564.22,-66.6526 554.806,-61.7922 559.134,-71.4625 564.22,-66.6526"/>
</g>
<!-- 2061&#45;&gt;2061 -->
<g id="edge172" class="edge"><title>2061&#45;&gt;2061</title>
<path fill="none" stroke="green" stroke-width="0.183805" d="M641.304,-143.761C652.45,-145.654 662.497,-141.553 662.497,-131.459 662.497,-124.678 657.962,-120.601 651.605,-119.23"/>
<polygon fill="green" stroke="green" stroke-width="0.183805" points="651.329,-115.728 641.304,-119.158 651.279,-122.728 651.329,-115.728"/>
</g>
</g>
</svg>
