<?xml version="1.0" encoding="UTF-8" standalone="no"?>
<!DOCTYPE svg PUBLIC "-//W3C//DTD SVG 1.1//EN"
 "http://www.w3.org/Graphics/SVG/1.1/DTD/svg11.dtd">
<!-- Generated by graphviz version 2.38.0 (20140413.2041)
 -->
<!-- Title: %3 Pages: 1 -->
<svg width="1180pt" height="205pt"
 viewBox="0.00 0.00 1180.50 205.48" xmlns="http://www.w3.org/2000/svg" xmlns:xlink="http://www.w3.org/1999/xlink">
<g id="graph0" class="graph" transform="scale(1 1) rotate(0) translate(4 201.48)">
<title>%3</title>
<polygon fill="white" stroke="none" points="-4,4 -4,-201.48 1176.5,-201.48 1176.5,4 -4,4"/>
<!-- Open -->
<g id="node1" class="node"><title>Open</title>
<polygon fill="lightgray" stroke="black" points="489.249,-197.48 452.249,-197.48 452.249,-179.48 489.249,-179.48 489.249,-197.48"/>
<text text-anchor="middle" x="470.749" y="-186.28" font-family="Times New Roman,serif" font-size="9.00">Open</text>
</g>
<!-- 4621 -->
<g id="node9" class="node"><title>4621</title>
<ellipse fill="white" stroke="black" cx="704.749" cy="-118.731" rx="25" ry="25"/>
<text text-anchor="middle" x="704.749" y="-116.531" font-family="Times New Roman,serif" font-size="9.00">4621</text>
</g>
<!-- Open&#45;&gt;4621 -->
<g id="edge1" class="edge"><title>Open&#45;&gt;4621</title>
<path fill="none" stroke="green" stroke-width="0.110466" d="M489.374,-181.953C492.494,-181.087 495.705,-180.231 498.749,-179.48 575.001,-160.68 599.863,-175.108 671.749,-143.48 673.59,-142.67 675.43,-141.746 677.247,-140.743"/>
<polygon fill="green" stroke="green" stroke-width="0.110466" points="679.415,-143.516 686.03,-135.24 675.698,-137.584 679.415,-143.516"/>
</g>
<!-- 4622 -->
<g id="node10" class="node"><title>4622</title>
<ellipse fill="white" stroke="black" cx="789.749" cy="-118.731" rx="25" ry="25"/>
<text text-anchor="middle" x="789.749" y="-116.531" font-family="Times New Roman,serif" font-size="9.00">4622</text>
</g>
<!-- Open&#45;&gt;4622 -->
<g id="edge2" class="edge"><title>Open&#45;&gt;4622</title>
<path fill="none" stroke="red" stroke-width="0.138068" d="M489.334,-181.778C492.459,-180.933 495.682,-180.129 498.749,-179.48 612.02,-155.519 649.283,-186.556 756.749,-143.48 758.616,-142.732 760.477,-141.856 762.309,-140.89"/>
<polygon fill="red" stroke="red" stroke-width="0.138068" points="764.434,-143.692 771.132,-135.484 760.777,-137.723 764.434,-143.692"/>
</g>
<!-- 4623 -->
<g id="node11" class="node"><title>4623</title>
<ellipse fill="white" stroke="black" cx="874.749" cy="-118.731" rx="25" ry="25"/>
<text text-anchor="middle" x="874.749" y="-116.531" font-family="Times New Roman,serif" font-size="9.00">4623</text>
</g>
<!-- Open&#45;&gt;4623 -->
<g id="edge3" class="edge"><title>Open&#45;&gt;4623</title>
<path fill="none" stroke="green" stroke-width="0.318067" d="M489.316,-181.688C492.442,-180.853 495.672,-180.077 498.749,-179.48 649.23,-150.315 698.52,-198.077 841.749,-143.48 843.628,-142.764 845.499,-141.912 847.338,-140.965"/>
<polygon fill="green" stroke="green" stroke-width="0.318067" points="849.441,-143.784 856.182,-135.61 845.815,-137.796 849.441,-143.784"/>
</g>
<!-- 4624 -->
<g id="node12" class="node"><title>4624</title>
<ellipse fill="white" stroke="black" cx="959.749" cy="-118.731" rx="25" ry="25"/>
<text text-anchor="middle" x="959.749" y="-116.531" font-family="Times New Roman,serif" font-size="9.00">4624</text>
</g>
<!-- Open&#45;&gt;4624 -->
<g id="edge4" class="edge"><title>Open&#45;&gt;4624</title>
<path fill="none" stroke="green" stroke-width="0.404993" d="M489.305,-181.633C492.433,-180.805 495.666,-180.045 498.749,-179.48 686.521,-145.097 747.682,-209.628 926.749,-143.48 928.636,-142.783 930.512,-141.947 932.355,-141.011"/>
<polygon fill="green" stroke="green" stroke-width="0.404993" points="934.444,-143.839 941.211,-135.687 930.837,-137.84 934.444,-143.839"/>
</g>
<!-- 4625 -->
<g id="node13" class="node"><title>4625</title>
<ellipse fill="white" stroke="black" cx="1044.75" cy="-118.731" rx="25" ry="25"/>
<text text-anchor="middle" x="1044.75" y="-116.531" font-family="Times New Roman,serif" font-size="9.00">4625</text>
</g>
<!-- Open&#45;&gt;4625 -->
<g id="edge5" class="edge"><title>Open&#45;&gt;4625</title>
<path fill="none" stroke="red" stroke-width="0.238521" d="M489.299,-181.597C492.428,-180.773 495.662,-180.023 498.749,-179.48 723.851,-139.87 796.805,-221.194 1011.75,-143.48 1013.64,-142.796 1015.52,-141.97 1017.37,-141.042"/>
<polygon fill="red" stroke="red" stroke-width="0.238521" points="1019.45,-143.877 1026.23,-135.738 1015.85,-137.87 1019.45,-143.877"/>
</g>
<!-- 4626 -->
<g id="node14" class="node"><title>4626</title>
<ellipse fill="white" stroke="black" cx="1129.75" cy="-118.731" rx="25" ry="25"/>
<text text-anchor="middle" x="1129.75" y="-116.531" font-family="Times New Roman,serif" font-size="9.00">4626</text>
</g>
<!-- Open&#45;&gt;4626 -->
<g id="edge6" class="edge"><title>Open&#45;&gt;4626</title>
<path fill="none" stroke="red" stroke-width="0.121589" d="M489.294,-181.57C492.424,-180.75 495.659,-180.008 498.749,-179.48 629.977,-157.06 971.328,-188.124 1096.75,-143.48 1098.64,-142.806 1100.53,-141.987 1102.37,-141.064"/>
<polygon fill="red" stroke="red" stroke-width="0.121589" points="1104.45,-143.904 1111.24,-135.776 1100.86,-137.892 1104.45,-143.904"/>
</g>
<!-- 4627 -->
<g id="node15" class="node"><title>4627</title>
<ellipse fill="white" stroke="black" cx="24.7487" cy="-118.731" rx="25" ry="25"/>
<text text-anchor="middle" x="24.7487" y="-116.531" font-family="Times New Roman,serif" font-size="9.00">4627</text>
</g>
<!-- Open&#45;&gt;4627 -->
<g id="edge7" class="edge"><title>Open&#45;&gt;4627</title>
<path fill="none" stroke="green" stroke-width="0.674242" d="M452.185,-181.67C449.058,-180.838 445.828,-180.066 442.749,-179.48 281.744,-148.843 233.844,-186.689 75.7487,-143.48 68.9122,-141.612 61.8538,-138.895 55.2486,-135.96"/>
<polygon fill="green" stroke="green" stroke-width="0.674242" points="56.5109,-132.685 45.9741,-131.578 53.5206,-139.014 56.5109,-132.685"/>
</g>
<!-- 4628 -->
<g id="node16" class="node"><title>4628</title>
<ellipse fill="white" stroke="black" cx="109.749" cy="-118.731" rx="25" ry="25"/>
<text text-anchor="middle" x="109.749" y="-116.531" font-family="Times New Roman,serif" font-size="9.00">4628</text>
</g>
<!-- Open&#45;&gt;4628 -->
<g id="edge8" class="edge"><title>Open&#45;&gt;4628</title>
<path fill="none" stroke="green" stroke-width="0.211672" d="M452.17,-181.747C449.045,-180.906 445.819,-180.111 442.749,-179.48 318.983,-154.052 282.13,-178.566 160.749,-143.48 153.94,-141.512 146.894,-138.752 140.292,-135.806"/>
<polygon fill="green" stroke="green" stroke-width="0.211672" points="141.553,-132.532 131.016,-131.429 138.566,-138.862 141.553,-132.532"/>
</g>
<!-- 4629 -->
<g id="node17" class="node"><title>4629</title>
<ellipse fill="white" stroke="black" cx="194.749" cy="-118.731" rx="25" ry="25"/>
<text text-anchor="middle" x="194.749" y="-116.531" font-family="Times New Roman,serif" font-size="9.00">4629</text>
</g>
<!-- Open&#45;&gt;4629 -->
<g id="edge9" class="edge"><title>Open&#45;&gt;4629</title>
<path fill="none" stroke="green" stroke-width="0.379268" d="M452.139,-181.889C449.017,-181.03 445.801,-180.193 442.749,-179.48 356.077,-159.23 330.558,-170.486 245.749,-143.48 239.121,-141.37 232.233,-138.595 225.744,-135.69"/>
<polygon fill="green" stroke="green" stroke-width="0.379268" points="227.138,-132.478 216.598,-131.402 224.166,-138.816 227.138,-132.478"/>
</g>
<!-- 4630 -->
<g id="node18" class="node"><title>4630</title>
<ellipse fill="white" stroke="black" cx="279.749" cy="-118.731" rx="25" ry="25"/>
<text text-anchor="middle" x="279.749" y="-116.531" font-family="Times New Roman,serif" font-size="9.00">4630</text>
</g>
<!-- Open&#45;&gt;4630 -->
<g id="edge10" class="edge"><title>Open&#45;&gt;4630</title>
<path fill="none" stroke="red" stroke-width="0.45494" d="M452.13,-181.96C419.501,-172.232 353.313,-152.236 330.749,-143.48 324.203,-140.94 317.311,-137.954 310.785,-134.972"/>
<polygon fill="red" stroke="red" stroke-width="0.45494" points="312.107,-131.727 301.566,-130.66 309.141,-138.067 312.107,-131.727"/>
</g>
<!-- 4631 -->
<g id="node19" class="node"><title>4631</title>
<ellipse fill="white" stroke="black" cx="364.749" cy="-118.731" rx="25" ry="25"/>
<text text-anchor="middle" x="364.749" y="-116.531" font-family="Times New Roman,serif" font-size="9.00">4631</text>
</g>
<!-- Open&#45;&gt;4631 -->
<g id="edge11" class="edge"><title>Open&#45;&gt;4631</title>
<path fill="none" stroke="red" stroke-width="0.223169" d="M458.173,-179.443C442.434,-169.383 414.985,-151.839 393.899,-138.362"/>
<polygon fill="red" stroke="red" stroke-width="0.223169" points="395.615,-135.306 385.304,-132.869 391.846,-141.204 395.615,-135.306"/>
</g>
<!-- 4632 -->
<g id="node20" class="node"><title>4632</title>
<ellipse fill="white" stroke="black" cx="449.749" cy="-118.731" rx="25" ry="25"/>
<text text-anchor="middle" x="449.749" y="-116.531" font-family="Times New Roman,serif" font-size="9.00">4632</text>
</g>
<!-- Open&#45;&gt;4632 -->
<g id="edge12" class="edge"><title>Open&#45;&gt;4632</title>
<path fill="none" stroke="green" stroke-width="0.329708" d="M468.257,-179.443C466.133,-172.59 462.932,-162.263 459.787,-152.116"/>
<polygon fill="green" stroke="green" stroke-width="0.329708" points="463.129,-151.076 456.825,-142.56 456.443,-153.148 463.129,-151.076"/>
</g>
<!-- 4633 -->
<g id="node21" class="node"><title>4633</title>
<ellipse fill="white" stroke="black" cx="534.749" cy="-118.731" rx="25" ry="25"/>
<text text-anchor="middle" x="534.749" y="-116.531" font-family="Times New Roman,serif" font-size="9.00">4633</text>
</g>
<!-- Open&#45;&gt;4633 -->
<g id="edge13" class="edge"><title>Open&#45;&gt;4633</title>
<path fill="none" stroke="red" stroke-width="0.313314" d="M478.342,-179.443C486.403,-170.909 499.553,-156.989 511.129,-144.735"/>
<polygon fill="red" stroke="red" stroke-width="0.313314" points="513.75,-147.057 518.073,-137.384 508.662,-142.25 513.75,-147.057"/>
</g>
<!-- 4634 -->
<g id="node22" class="node"><title>4634</title>
<ellipse fill="white" stroke="black" cx="619.749" cy="-118.731" rx="25" ry="25"/>
<text text-anchor="middle" x="619.749" y="-116.531" font-family="Times New Roman,serif" font-size="9.00">4634</text>
</g>
<!-- Open&#45;&gt;4634 -->
<g id="edge14" class="edge"><title>Open&#45;&gt;4634</title>
<path fill="none" stroke="green" stroke-width="0.244499" d="M489.48,-182.042C512.969,-174.852 554.116,-161.019 586.749,-143.48 588.521,-142.528 590.307,-141.493 592.083,-140.406"/>
<polygon fill="green" stroke="green" stroke-width="0.244499" points="594.341,-143.109 600.755,-134.677 590.482,-137.269 594.341,-143.109"/>
</g>
<!-- High -->
<g id="node2" class="node"><title>High</title>
<polygon fill="lightgray" stroke="black" points="541.749,-197.48 507.749,-197.48 507.749,-179.48 541.749,-179.48 541.749,-197.48"/>
<text text-anchor="middle" x="524.749" y="-186.28" font-family="Times New Roman,serif" font-size="9.00">High</text>
</g>
<!-- High&#45;&gt;4621 -->
<g id="edge15" class="edge"><title>High&#45;&gt;4621</title>
<path fill="none" stroke="red" stroke-width="0.107481" d="M541.804,-182.208C544.784,-181.293 547.856,-180.356 550.749,-179.48 604.451,-163.23 621.386,-168.212 671.749,-143.48 673.554,-142.593 675.367,-141.61 677.163,-140.562"/>
<polygon fill="red" stroke="red" stroke-width="0.107481" points="679.38,-143.297 685.889,-134.937 675.588,-137.413 679.38,-143.297"/>
</g>
<!-- High&#45;&gt;4622 -->
<g id="edge16" class="edge"><title>High&#45;&gt;4622</title>
<path fill="none" stroke="red" stroke-width="0.305594" d="M542.007,-181.839C544.909,-180.986 547.902,-180.164 550.749,-179.48 641.121,-157.771 671.085,-179.537 756.749,-143.48 758.603,-142.7 760.453,-141.799 762.277,-140.814"/>
<polygon fill="red" stroke="red" stroke-width="0.305594" points="764.425,-143.601 771.08,-135.357 760.737,-137.651 764.425,-143.601"/>
</g>
<!-- High&#45;&gt;4623 -->
<g id="edge17" class="edge"><title>High&#45;&gt;4623</title>
<path fill="none" stroke="green" stroke-width="0.126434" d="M541.979,-181.716C544.884,-180.878 547.885,-180.093 550.749,-179.48 678.183,-152.213 720.411,-191.024 841.749,-143.48 843.622,-142.746 845.487,-141.881 847.322,-140.924"/>
<polygon fill="green" stroke="green" stroke-width="0.126434" points="849.437,-143.734 856.155,-135.541 845.794,-137.756 849.437,-143.734"/>
</g>
<!-- High&#45;&gt;4624 -->
<g id="edge18" class="edge"><title>High&#45;&gt;4624</title>
<path fill="none" stroke="green" stroke-width="0.374073" d="M541.965,-181.648C544.872,-180.818 547.877,-180.053 550.749,-179.48 715.378,-146.626 769.613,-202.56 926.749,-143.48 928.632,-142.772 930.504,-141.928 932.346,-140.985"/>
<polygon fill="green" stroke="green" stroke-width="0.374073" points="934.442,-143.808 941.195,-135.644 930.825,-137.815 934.442,-143.808"/>
</g>
<!-- High&#45;&gt;4625 -->
<g id="edge19" class="edge"><title>High&#45;&gt;4625</title>
<path fill="none" stroke="red" stroke-width="0.228912" d="M541.957,-181.605C544.864,-180.78 547.872,-180.028 550.749,-179.48 752.632,-141.027 818.757,-214.117 1011.75,-143.48 1013.64,-142.789 1015.52,-141.957 1017.36,-141.025"/>
<polygon fill="red" stroke="red" stroke-width="0.228912" points="1019.44,-143.856 1026.22,-135.709 1015.84,-137.853 1019.44,-143.856"/>
</g>
<!-- High&#45;&gt;4626 -->
<g id="edge20" class="edge"><title>High&#45;&gt;4626</title>
<path fill="none" stroke="green" stroke-width="0.101423" d="M541.951,-181.575C544.859,-180.753 547.869,-180.011 550.749,-179.48 670.333,-157.451 982.31,-184.583 1096.75,-143.48 1098.64,-142.8 1100.52,-141.977 1102.37,-141.052"/>
<polygon fill="green" stroke="green" stroke-width="0.101423" points="1104.45,-143.888 1111.24,-135.754 1100.86,-137.879 1104.45,-143.888"/>
</g>
<!-- High&#45;&gt;4627 -->
<g id="edge21" class="edge"><title>High&#45;&gt;4627</title>
<path fill="none" stroke="red" stroke-width="0.305916" d="M507.737,-181.871C504.452,-180.95 501.016,-180.097 497.749,-179.48 312.779,-144.563 257.637,-191.954 75.7487,-143.48 68.9005,-141.655 61.8371,-138.957 55.2306,-136.027"/>
<polygon fill="red" stroke="red" stroke-width="0.305916" points="56.4932,-132.752 45.9566,-131.643 53.5016,-139.081 56.4932,-132.752"/>
</g>
<!-- High&#45;&gt;4628 -->
<g id="edge22" class="edge"><title>High&#45;&gt;4628</title>
<path fill="none" stroke="green" stroke-width="0.256134" d="M507.726,-181.928C504.442,-181.002 501.009,-180.132 497.749,-179.48 350.039,-149.962 305.877,-183.819 160.749,-143.48 153.92,-141.582 146.866,-138.852 140.261,-135.914"/>
<polygon fill="green" stroke="green" stroke-width="0.256134" points="141.523,-132.64 130.986,-131.534 138.534,-138.969 141.523,-132.64"/>
</g>
<!-- High&#45;&gt;4629 -->
<g id="edge23" class="edge"><title>High&#45;&gt;4629</title>
<path fill="none" stroke="red" stroke-width="0.409266" d="M507.707,-182.021C504.424,-181.086 500.997,-180.189 497.749,-179.48 387.216,-155.345 354.199,-175.707 245.749,-143.48 238.955,-141.461 231.915,-138.679 225.315,-135.728"/>
<polygon fill="red" stroke="red" stroke-width="0.409266" points="226.576,-132.453 216.038,-131.353 223.59,-138.785 226.576,-132.453"/>
</g>
<!-- High&#45;&gt;4630 -->
<g id="edge24" class="edge"><title>High&#45;&gt;4630</title>
<path fill="none" stroke="red" stroke-width="0.144766" d="M507.663,-182.205C504.385,-181.254 500.97,-180.303 497.749,-179.48 424.185,-160.682 402.724,-167.657 330.749,-143.48 324.155,-141.265 317.283,-138.445 310.797,-135.527"/>
<polygon fill="red" stroke="red" stroke-width="0.144766" points="312.19,-132.315 301.65,-131.242 309.221,-138.653 312.19,-132.315"/>
</g>
<!-- High&#45;&gt;4631 -->
<g id="edge25" class="edge"><title>High&#45;&gt;4631</title>
<path fill="none" stroke="red" stroke-width="0.227813" d="M507.642,-180.894C486.081,-172.519 447.944,-157.463 415.749,-143.48 409.308,-140.683 402.463,-137.584 395.949,-134.573"/>
<polygon fill="red" stroke="red" stroke-width="0.227813" points="397.268,-131.327 386.726,-130.271 394.309,-137.67 397.268,-131.327"/>
</g>
<!-- High&#45;&gt;4632 -->
<g id="edge26" class="edge"><title>High&#45;&gt;4632</title>
<path fill="none" stroke="red" stroke-width="0.256299" d="M515.851,-179.443C505.898,-170.452 489.327,-155.483 475.267,-142.783"/>
<polygon fill="red" stroke="red" stroke-width="0.256299" points="477.54,-140.119 467.773,-136.013 472.847,-145.313 477.54,-140.119"/>
</g>
<!-- High&#45;&gt;4633 -->
<g id="edge27" class="edge"><title>High&#45;&gt;4633</title>
<path fill="none" stroke="green" stroke-width="0.107962" d="M525.935,-179.443C526.903,-172.887 528.34,-163.153 529.774,-153.437"/>
<polygon fill="green" stroke="green" stroke-width="0.107962" points="533.249,-153.857 531.247,-143.453 526.324,-152.835 533.249,-153.857"/>
</g>
<!-- High&#45;&gt;4634 -->
<g id="edge28" class="edge"><title>High&#45;&gt;4634</title>
<path fill="none" stroke="green" stroke-width="0.440255" d="M536.192,-179.393C548.646,-170.584 569.137,-156.066 586.749,-143.48 588.342,-142.341 589.978,-141.17 591.628,-139.987"/>
<polygon fill="green" stroke="green" stroke-width="0.440255" points="593.789,-142.745 599.87,-134.069 589.706,-137.059 593.789,-142.745"/>
</g>
<!-- Low -->
<g id="node3" class="node"><title>Low</title>
<polygon fill="lightgray" stroke="black" points="593.249,-197.48 560.249,-197.48 560.249,-179.48 593.249,-179.48 593.249,-197.48"/>
<text text-anchor="middle" x="576.749" y="-186.28" font-family="Times New Roman,serif" font-size="9.00">Low</text>
</g>
<!-- Low&#45;&gt;4621 -->
<g id="edge29" class="edge"><title>Low&#45;&gt;4621</title>
<path fill="none" stroke="green" stroke-width="0.190859" d="M593.361,-180.918C612.709,-173.02 645.383,-158.885 671.749,-143.48 673.44,-142.492 675.152,-141.439 676.861,-140.347"/>
<polygon fill="green" stroke="green" stroke-width="0.190859" points="678.932,-143.172 685.265,-134.679 675.018,-137.369 678.932,-143.172"/>
</g>
<!-- Low&#45;&gt;4622 -->
<g id="edge30" class="edge"><title>Low&#45;&gt;4622</title>
<path fill="none" stroke="green" stroke-width="0.193553" d="M593.367,-181.954C596.154,-181.087 599.025,-180.231 601.749,-179.48 669.929,-160.687 692.347,-172.705 756.749,-143.48 758.581,-142.649 760.414,-141.708 762.225,-140.693"/>
<polygon fill="green" stroke="green" stroke-width="0.193553" points="764.406,-143.455 770.992,-135.156 760.669,-137.537 764.406,-143.455"/>
</g>
<!-- Low&#45;&gt;4623 -->
<g id="edge31" class="edge"><title>Low&#45;&gt;4623</title>
<path fill="none" stroke="red" stroke-width="0.351394" d="M593.32,-181.767C596.112,-180.923 598.997,-180.122 601.749,-179.48 706.786,-154.964 741.839,-184.122 841.749,-143.48 843.612,-142.722 845.47,-141.839 847.299,-140.867"/>
<polygon fill="red" stroke="red" stroke-width="0.351394" points="849.431,-143.665 856.117,-135.446 845.765,-137.702 849.431,-143.665"/>
</g>
<!-- Low&#45;&gt;4624 -->
<g id="edge32" class="edge"><title>Low&#45;&gt;4624</title>
<path fill="none" stroke="red" stroke-width="0.110851" d="M593.299,-181.675C596.094,-180.842 598.985,-180.069 601.749,-179.48 743.884,-149.184 791.102,-195.634 926.749,-143.48 928.626,-142.758 930.495,-141.903 932.333,-140.952"/>
<polygon fill="red" stroke="red" stroke-width="0.110851" points="934.44,-143.768 941.174,-135.588 930.809,-137.784 934.44,-143.768"/>
</g>
<!-- Low&#45;&gt;4625 -->
<g id="edge33" class="edge"><title>Low&#45;&gt;4625</title>
<path fill="none" stroke="green" stroke-width="0.171048" d="M593.288,-181.621C596.084,-180.795 598.979,-180.038 601.749,-179.48 781.075,-143.383 840.275,-207.181 1011.75,-143.48 1013.63,-142.78 1015.51,-141.941 1017.35,-141.003"/>
<polygon fill="green" stroke="green" stroke-width="0.171048" points="1019.44,-143.829 1026.21,-135.673 1015.83,-137.832 1019.44,-143.829"/>
</g>
<!-- Low&#45;&gt;4626 -->
<g id="edge34" class="edge"><title>Low&#45;&gt;4626</title>
<path fill="none" stroke="red" stroke-width="0.170213" d="M593.281,-181.585C596.078,-180.763 598.975,-180.017 601.749,-179.48 818.312,-137.572 889.405,-218.744 1096.75,-143.48 1098.64,-142.794 1100.52,-141.966 1102.36,-141.037"/>
<polygon fill="red" stroke="red" stroke-width="0.170213" points="1104.45,-143.87 1111.23,-135.729 1100.85,-137.865 1104.45,-143.87"/>
</g>
<!-- Low&#45;&gt;4627 -->
<g id="edge35" class="edge"><title>Low&#45;&gt;4627</title>
<path fill="none" stroke="green" stroke-width="0.303155" d="M560.103,-181.759C557.023,-180.872 553.811,-180.06 550.749,-179.48 342.726,-140.105 280.58,-197.033 75.7487,-143.48 68.892,-141.688 61.8248,-139.003 55.2174,-136.076"/>
<polygon fill="green" stroke="green" stroke-width="0.303155" points="56.4803,-132.802 45.9438,-131.691 53.4876,-139.13 56.4803,-132.802"/>
</g>
<!-- Low&#45;&gt;4628 -->
<g id="edge36" class="edge"><title>Low&#45;&gt;4628</title>
<path fill="none" stroke="red" stroke-width="0.171583" d="M560.095,-181.801C557.016,-180.91 553.807,-180.085 550.749,-179.48 379.987,-145.705 328.792,-188.89 160.749,-143.48 153.907,-141.631 146.846,-138.923 140.24,-135.99"/>
<polygon fill="red" stroke="red" stroke-width="0.171583" points="141.503,-132.715 130.966,-131.607 138.512,-139.044 141.503,-132.715"/>
</g>
<!-- Low&#45;&gt;4629 -->
<g id="edge37" class="edge"><title>Low&#45;&gt;4629</title>
<path fill="none" stroke="green" stroke-width="0.343652" d="M560.082,-181.865C557.004,-180.967 553.799,-180.124 550.749,-179.48 417.194,-151.294 377.055,-180.762 245.749,-143.48 238.931,-141.544 231.881,-138.798 225.277,-135.856"/>
<polygon fill="green" stroke="green" stroke-width="0.343652" points="226.539,-132.581 216.002,-131.477 223.551,-138.911 226.539,-132.581"/>
</g>
<!-- Low&#45;&gt;4630 -->
<g id="edge38" class="edge"><title>Low&#45;&gt;4630</title>
<path fill="none" stroke="red" stroke-width="0.115984" d="M560.057,-181.977C556.981,-181.068 553.783,-180.192 550.749,-179.48 454.287,-156.859 425.431,-172.665 330.749,-143.48 324.101,-141.431 317.205,-138.684 310.714,-135.786"/>
<polygon fill="red" stroke="red" stroke-width="0.115984" points="312.108,-132.574 301.568,-131.496 309.135,-138.912 312.108,-132.574"/>
</g>
<!-- Low&#45;&gt;4631 -->
<g id="edge39" class="edge"><title>Low&#45;&gt;4631</title>
<path fill="none" stroke="red" stroke-width="0.216707" d="M559.993,-182.223C556.924,-181.289 553.745,-180.34 550.749,-179.48 491.063,-162.346 474.119,-164.668 415.749,-143.48 409.149,-141.084 402.233,-138.161 395.701,-135.196"/>
<polygon fill="red" stroke="red" stroke-width="0.216707" points="397.025,-131.951 386.484,-130.878 394.055,-138.29 397.025,-131.951"/>
</g>
<!-- Low&#45;&gt;4632 -->
<g id="edge40" class="edge"><title>Low&#45;&gt;4632</title>
<path fill="none" stroke="red" stroke-width="0.119091" d="M561.681,-179.443C541.785,-168.829 506.27,-149.883 480.571,-136.174"/>
<polygon fill="red" stroke="red" stroke-width="0.119091" points="482.065,-133.004 471.594,-131.385 478.77,-139.18 482.065,-133.004"/>
</g>
<!-- Low&#45;&gt;4633 -->
<g id="edge41" class="edge"><title>Low&#45;&gt;4633</title>
<path fill="none" stroke="green" stroke-width="0.146271" d="M571.766,-179.443C567.068,-171.864 559.737,-160.039 552.834,-148.905"/>
<polygon fill="green" stroke="green" stroke-width="0.146271" points="555.693,-146.873 547.449,-140.218 549.743,-150.561 555.693,-146.873"/>
</g>
<!-- Low&#45;&gt;4634 -->
<g id="edge42" class="edge"><title>Low&#45;&gt;4634</title>
<path fill="none" stroke="green" stroke-width="0.224254" d="M581.85,-179.443C586.695,-171.809 594.275,-159.866 601.387,-148.661"/>
<polygon fill="green" stroke="green" stroke-width="0.224254" points="604.525,-150.248 606.929,-139.929 598.615,-146.497 604.525,-150.248"/>
</g>
<!-- Close -->
<g id="node4" class="node"><title>Close</title>
<polygon fill="lightgray" stroke="black" points="648.249,-197.48 611.249,-197.48 611.249,-179.48 648.249,-179.48 648.249,-197.48"/>
<text text-anchor="middle" x="629.749" y="-186.28" font-family="Times New Roman,serif" font-size="9.00">Close</text>
</g>
<!-- Close&#45;&gt;4621 -->
<g id="edge43" class="edge"><title>Close&#45;&gt;4621</title>
<path fill="none" stroke="red" stroke-width="0.224793" d="M638.647,-179.443C648.6,-170.452 665.17,-155.483 679.23,-142.783"/>
<polygon fill="red" stroke="red" stroke-width="0.224793" points="681.65,-145.313 686.725,-136.013 676.958,-140.119 681.65,-145.313"/>
</g>
<!-- Close&#45;&gt;4622 -->
<g id="edge44" class="edge"><title>Close&#45;&gt;4622</title>
<path fill="none" stroke="green" stroke-width="0.159618" d="M648.722,-181.652C679.172,-172.174 737.487,-153.475 756.749,-143.48 758.534,-142.554 760.331,-141.539 762.115,-140.468"/>
<polygon fill="green" stroke="green" stroke-width="0.159618" points="764.358,-143.183 770.809,-134.779 760.525,-137.325 764.358,-143.183"/>
</g>
<!-- Close&#45;&gt;4623 -->
<g id="edge45" class="edge"><title>Close&#45;&gt;4623</title>
<path fill="none" stroke="red" stroke-width="0.447665" d="M648.366,-181.922C651.487,-181.059 654.701,-180.212 657.749,-179.48 738.772,-160.017 765.277,-176.581 841.749,-143.48 843.595,-142.681 845.439,-141.766 847.259,-140.769"/>
<polygon fill="red" stroke="red" stroke-width="0.447665" points="849.419,-143.547 856.049,-135.283 845.712,-137.609 849.419,-143.547"/>
</g>
<!-- Close&#45;&gt;4624 -->
<g id="edge46" class="edge"><title>Close&#45;&gt;4624</title>
<path fill="none" stroke="red" stroke-width="0.462691" d="M648.331,-181.764C651.456,-180.92 654.68,-180.12 657.749,-179.48 775.828,-154.847 814.661,-188.044 926.749,-143.48 928.618,-142.737 930.48,-141.865 932.314,-140.902"/>
<polygon fill="red" stroke="red" stroke-width="0.462691" points="934.435,-143.707 941.141,-135.504 930.783,-137.735 934.435,-143.707"/>
</g>
<!-- Close&#45;&gt;4625 -->
<g id="edge47" class="edge"><title>Close&#45;&gt;4625</title>
<path fill="none" stroke="red" stroke-width="0.345072" d="M648.314,-181.68C651.441,-180.846 654.671,-180.072 657.749,-179.48 813.053,-149.641 863.885,-199.571 1011.75,-143.48 1013.63,-142.767 1015.5,-141.918 1017.34,-140.972"/>
<polygon fill="red" stroke="red" stroke-width="0.345072" points="1019.44,-143.792 1026.19,-135.622 1015.82,-137.803 1019.44,-143.792"/>
</g>
<!-- Close&#45;&gt;4626 -->
<g id="edge48" class="edge"><title>Close&#45;&gt;4626</title>
<path fill="none" stroke="red" stroke-width="0.226663" d="M648.304,-181.628C651.432,-180.8 654.665,-180.042 657.749,-179.48 850.35,-144.421 913.041,-211.124 1096.75,-143.48 1098.64,-142.785 1100.51,-141.95 1102.36,-141.016"/>
<polygon fill="red" stroke="red" stroke-width="0.226663" points="1104.44,-143.845 1111.21,-135.695 1100.84,-137.845 1104.44,-143.845"/>
</g>
<!-- Close&#45;&gt;4627 -->
<g id="edge49" class="edge"><title>Close&#45;&gt;4627</title>
<path fill="none" stroke="green" stroke-width="0.216022" d="M611.2,-181.592C608.071,-180.769 604.836,-180.021 601.749,-179.48 370.935,-139.071 302.668,-201.922 75.7487,-143.48 68.8855,-141.713 61.8155,-139.039 55.2074,-136.115"/>
<polygon fill="green" stroke="green" stroke-width="0.216022" points="56.4704,-132.841 45.9341,-131.728 53.477,-139.168 56.4704,-132.841"/>
</g>
<!-- Close&#45;&gt;4628 -->
<g id="edge50" class="edge"><title>Close&#45;&gt;4628</title>
<path fill="none" stroke="red" stroke-width="0.124682" d="M611.193,-181.627C608.065,-180.799 604.833,-180.041 601.749,-179.48 408.27,-144.298 350.86,-193.775 160.749,-143.48 153.897,-141.668 146.832,-138.975 140.225,-136.046"/>
<polygon fill="red" stroke="red" stroke-width="0.124682" points="141.488,-132.771 130.952,-131.661 138.496,-139.1 141.488,-132.771"/>
</g>
<!-- Close&#45;&gt;4629 -->
<g id="edge51" class="edge"><title>Close&#45;&gt;4629</title>
<path fill="none" stroke="red" stroke-width="0.10877" d="M611.184,-181.678C608.057,-180.845 604.827,-180.071 601.749,-179.48 445.568,-149.518 399.089,-185.636 245.749,-143.48 238.915,-141.602 231.858,-138.88 225.253,-135.944"/>
<polygon fill="red" stroke="red" stroke-width="0.10877" points="226.515,-132.669 215.978,-131.563 223.525,-138.999 226.515,-132.669"/>
</g>
<!-- Close&#45;&gt;4630 -->
<g id="edge52" class="edge"><title>Close&#45;&gt;4630</title>
<path fill="none" stroke="red" stroke-width="0.165174" d="M611.167,-181.761C608.042,-180.917 604.817,-180.119 601.749,-179.48 482.795,-154.724 447.386,-177.517 330.749,-143.48 323.945,-141.495 316.901,-138.727 310.3,-135.78"/>
<polygon fill="red" stroke="red" stroke-width="0.165174" points="311.561,-132.505 301.023,-131.403 308.574,-138.836 311.561,-132.505"/>
</g>
<!-- Close&#45;&gt;4631 -->
<g id="edge53" class="edge"><title>Close&#45;&gt;4631</title>
<path fill="none" stroke="green" stroke-width="0.247284" d="M611.132,-181.917C608.011,-181.054 604.797,-180.209 601.749,-179.48 519.857,-159.896 495.846,-169.446 415.749,-143.48 409.132,-141.335 402.249,-138.546 395.761,-135.636"/>
<polygon fill="green" stroke="green" stroke-width="0.247284" points="397.155,-132.424 386.615,-131.349 394.184,-138.762 397.155,-132.424"/>
</g>
<!-- Close&#45;&gt;4632 -->
<g id="edge54" class="edge"><title>Close&#45;&gt;4632</title>
<path fill="none" stroke="green" stroke-width="0.14691" d="M611.15,-181.826C585.872,-173.986 539.389,-159.015 500.749,-143.48 494.234,-140.861 487.356,-137.84 480.833,-134.85"/>
<polygon fill="green" stroke="green" stroke-width="0.14691" points="482.155,-131.604 471.613,-130.54 479.191,-137.945 482.155,-131.604"/>
</g>
<!-- Close&#45;&gt;4633 -->
<g id="edge55" class="edge"><title>Close&#45;&gt;4633</title>
<path fill="none" stroke="green" stroke-width="0.388513" d="M618.478,-179.443C604.839,-169.716 581.389,-152.992 562.769,-139.714"/>
<polygon fill="green" stroke="green" stroke-width="0.388513" points="564.78,-136.849 554.606,-133.893 560.716,-142.548 564.78,-136.849"/>
</g>
<!-- Close&#45;&gt;4634 -->
<g id="edge56" class="edge"><title>Close&#45;&gt;4634</title>
<path fill="none" stroke="red" stroke-width="0.399095" d="M628.562,-179.443C627.595,-172.887 626.158,-163.153 624.724,-153.437"/>
<polygon fill="red" stroke="red" stroke-width="0.399095" points="628.173,-152.835 623.25,-143.453 621.248,-153.857 628.173,-152.835"/>
</g>
<!-- Volume -->
<g id="node5" class="node"><title>Volume</title>
<polygon fill="lightgray" stroke="black" points="710.749,-197.48 666.749,-197.48 666.749,-179.48 710.749,-179.48 710.749,-197.48"/>
<text text-anchor="middle" x="688.749" y="-186.28" font-family="Times New Roman,serif" font-size="9.00">Volume</text>
</g>
<!-- Volume&#45;&gt;4621 -->
<g id="edge57" class="edge"><title>Volume&#45;&gt;4621</title>
<path fill="none" stroke="green" stroke-width="0.227757" d="M690.647,-179.443C692.224,-172.765 694.58,-162.791 696.916,-152.897"/>
<polygon fill="green" stroke="green" stroke-width="0.227757" points="700.325,-153.692 699.217,-143.155 693.512,-152.083 700.325,-153.692"/>
</g>
<!-- Volume&#45;&gt;4622 -->
<g id="edge58" class="edge"><title>Volume&#45;&gt;4622</title>
<path fill="none" stroke="green" stroke-width="0.234109" d="M701.657,-179.396C715.428,-170.708 737.82,-156.404 756.749,-143.48 758.366,-142.376 760.021,-141.232 761.686,-140.07"/>
<polygon fill="green" stroke="green" stroke-width="0.234109" points="763.827,-142.842 769.968,-134.209 759.783,-137.128 763.827,-142.842"/>
</g>
<!-- Volume&#45;&gt;4623 -->
<g id="edge59" class="edge"><title>Volume&#45;&gt;4623</title>
<path fill="none" stroke="green" stroke-width="0.297782" d="M711.035,-181.526C750.551,-170.9 829.876,-149.243 841.749,-143.48 843.558,-142.602 845.374,-141.625 847.172,-140.581"/>
<polygon fill="green" stroke="green" stroke-width="0.297782" points="849.385,-143.32 855.905,-134.969 845.6,-137.431 849.385,-143.32"/>
</g>
<!-- Volume&#45;&gt;4624 -->
<g id="edge60" class="edge"><title>Volume&#45;&gt;4624</title>
<path fill="none" stroke="green" stroke-width="0.130878" d="M711.049,-181.497C713.967,-180.781 716.923,-180.089 719.749,-179.48 811.032,-159.797 840.666,-179.672 926.749,-143.48 928.603,-142.701 930.454,-141.8 932.278,-140.816"/>
<polygon fill="green" stroke="green" stroke-width="0.130878" points="934.425,-143.603 941.082,-135.36 930.738,-137.653 934.425,-143.603"/>
</g>
<!-- Volume&#45;&gt;4625 -->
<g id="edge61" class="edge"><title>Volume&#45;&gt;4625</title>
<path fill="none" stroke="red" stroke-width="0.234466" d="M711.022,-181.363C713.944,-180.669 716.909,-180.019 719.749,-179.48 848.215,-155.092 889.991,-191.159 1011.75,-143.48 1013.62,-142.747 1015.49,-141.882 1017.32,-140.925"/>
<polygon fill="red" stroke="red" stroke-width="0.234466" points="1019.44,-143.735 1026.16,-135.543 1015.79,-137.757 1019.44,-143.735"/>
</g>
<!-- Volume&#45;&gt;4626 -->
<g id="edge62" class="edge"><title>Volume&#45;&gt;4626</title>
<path fill="none" stroke="green" stroke-width="0.209262" d="M711.008,-181.289C713.933,-180.607 716.902,-179.98 719.749,-179.48 885.528,-150.361 939.191,-202.695 1096.75,-143.48 1098.63,-142.773 1100.5,-141.928 1102.35,-140.986"/>
<polygon fill="green" stroke="green" stroke-width="0.209262" points="1104.44,-143.809 1111.19,-135.645 1100.82,-137.816 1104.44,-143.809"/>
</g>
<!-- Volume&#45;&gt;4627 -->
<g id="edge63" class="edge"><title>Volume&#45;&gt;4627</title>
<path fill="none" stroke="red" stroke-width="0.202192" d="M666.476,-181.359C663.232,-180.629 659.918,-179.97 656.749,-179.48 401.071,-139.941 326.497,-207.198 75.7487,-143.48 68.8798,-141.735 61.8074,-139.071 55.1987,-136.149"/>
<polygon fill="red" stroke="red" stroke-width="0.202192" points="56.4618,-132.875 45.9257,-131.761 53.4678,-139.202 56.4618,-132.875"/>
</g>
<!-- Volume&#45;&gt;4628 -->
<g id="edge64" class="edge"><title>Volume&#45;&gt;4628</title>
<path fill="none" stroke="green" stroke-width="0.104042" d="M666.471,-181.389C663.228,-180.655 659.915,-179.987 656.749,-179.48 438.502,-144.547 374.674,-199.046 160.749,-143.48 153.889,-141.698 146.821,-139.019 140.213,-136.093"/>
<polygon fill="green" stroke="green" stroke-width="0.104042" points="141.476,-132.819 130.94,-131.707 138.483,-139.147 141.476,-132.819"/>
</g>
<!-- Volume&#45;&gt;4629 -->
<g id="edge65" class="edge"><title>Volume&#45;&gt;4629</title>
<path fill="none" stroke="green" stroke-width="0.172936" d="M666.464,-181.432C663.222,-180.692 659.911,-180.011 656.749,-179.48 475.909,-149.15 422.877,-190.901 245.749,-143.48 238.903,-141.647 231.84,-138.946 225.234,-136.015"/>
<polygon fill="green" stroke="green" stroke-width="0.172936" points="226.496,-132.74 215.96,-131.631 223.505,-139.069 226.496,-132.74"/>
</g>
<!-- Volume&#45;&gt;4630 -->
<g id="edge66" class="edge"><title>Volume&#45;&gt;4630</title>
<path fill="none" stroke="green" stroke-width="0.249219" d="M666.452,-181.498C663.212,-180.748 659.905,-180.046 656.749,-179.48 513.269,-153.744 471.124,-182.768 330.749,-143.48 323.924,-141.57 316.87,-138.835 310.266,-135.896"/>
<polygon fill="green" stroke="green" stroke-width="0.249219" points="311.528,-132.621 300.991,-131.516 308.539,-138.951 311.528,-132.621"/>
</g>
<!-- Volume&#45;&gt;4631 -->
<g id="edge67" class="edge"><title>Volume&#45;&gt;4631</title>
<path fill="none" stroke="green" stroke-width="0.483669" d="M666.431,-181.608C663.194,-180.842 659.894,-180.107 656.749,-179.48 550.536,-158.322 519.463,-174.661 415.749,-143.48 409.087,-141.478 402.185,-138.751 395.692,-135.859"/>
<polygon fill="green" stroke="green" stroke-width="0.483669" points="397.086,-132.647 386.546,-131.567 394.112,-138.984 397.086,-132.647"/>
</g>
<!-- Volume&#45;&gt;4632 -->
<g id="edge68" class="edge"><title>Volume&#45;&gt;4632</title>
<path fill="none" stroke="red" stroke-width="0.247946" d="M666.728,-181.919C663.387,-181.092 659.978,-180.256 656.749,-179.48 587.564,-162.851 568.035,-166.625 500.749,-143.48 494.171,-141.218 487.306,-138.376 480.823,-135.452"/>
<polygon fill="red" stroke="red" stroke-width="0.247946" points="482.215,-132.24 471.675,-131.169 479.247,-138.579 482.215,-132.24"/>
</g>
<!-- Volume&#45;&gt;4633 -->
<g id="edge69" class="edge"><title>Volume&#45;&gt;4633</title>
<path fill="none" stroke="red" stroke-width="0.235362" d="M669.305,-179.393C648.536,-170.704 614.693,-156.398 585.749,-143.48 579.337,-140.619 572.504,-137.491 565.993,-134.473"/>
<polygon fill="red" stroke="red" stroke-width="0.235362" points="567.311,-131.227 556.769,-130.173 564.354,-137.571 567.311,-131.227"/>
</g>
<!-- Volume&#45;&gt;4634 -->
<g id="edge70" class="edge"><title>Volume&#45;&gt;4634</title>
<path fill="none" stroke="green" stroke-width="0.16195" d="M680.563,-179.443C671.67,-170.711 657.034,-156.341 644.35,-143.886"/>
<polygon fill="green" stroke="green" stroke-width="0.16195" points="646.752,-141.34 637.165,-136.831 641.848,-146.335 646.752,-141.34"/>
</g>
<!-- Shares -->
<g id="node6" class="node"><title>Shares</title>
<polygon fill="lightgray" stroke="black" points="768.749,-197.48 728.749,-197.48 728.749,-179.48 768.749,-179.48 768.749,-197.48"/>
<text text-anchor="middle" x="748.749" y="-186.28" font-family="Times New Roman,serif" font-size="9.00">Shares</text>
</g>
<!-- Shares&#45;&gt;4621 -->
<g id="edge71" class="edge"><title>Shares&#45;&gt;4621</title>
<path fill="none" stroke="green" stroke-width="0.12269" d="M743.529,-179.443C738.522,-171.734 730.661,-159.629 723.321,-148.328"/>
<polygon fill="green" stroke="green" stroke-width="0.12269" points="726.248,-146.409 717.866,-139.929 720.378,-150.222 726.248,-146.409"/>
</g>
<!-- Shares&#45;&gt;4622 -->
<g id="edge72" class="edge"><title>Shares&#45;&gt;4622</title>
<path fill="none" stroke="red" stroke-width="0.141638" d="M753.613,-179.443C758.199,-171.864 765.355,-160.039 772.094,-148.905"/>
<polygon fill="red" stroke="red" stroke-width="0.141638" points="775.168,-150.585 777.351,-140.218 769.179,-146.961 775.168,-150.585"/>
</g>
<!-- Shares&#45;&gt;4623 -->
<g id="edge73" class="edge"><title>Shares&#45;&gt;4623</title>
<path fill="none" stroke="green" stroke-width="0.317564" d="M768.513,-179.376C787.712,-171.217 817.44,-157.817 841.749,-143.48 843.436,-142.485 845.145,-141.427 846.852,-140.331"/>
<polygon fill="green" stroke="green" stroke-width="0.317564" points="848.926,-143.153 855.249,-134.651 845.005,-137.354 848.926,-143.153"/>
</g>
<!-- Shares&#45;&gt;4624 -->
<g id="edge74" class="edge"><title>Shares&#45;&gt;4624</title>
<path fill="none" stroke="red" stroke-width="0.182609" d="M768.796,-185.058C802.644,-180.424 872.717,-168.461 926.749,-143.48 928.575,-142.636 930.403,-141.685 932.211,-140.663"/>
<polygon fill="red" stroke="red" stroke-width="0.182609" points="934.401,-143.418 940.969,-135.105 930.65,-137.508 934.401,-143.418"/>
</g>
<!-- Shares&#45;&gt;4625 -->
<g id="edge75" class="edge"><title>Shares&#45;&gt;4625</title>
<path fill="none" stroke="green" stroke-width="0.32544" d="M769.068,-187.187C814.397,-185.881 926.496,-179.001 1011.75,-143.48 1013.61,-142.707 1015.46,-141.811 1017.28,-140.83"/>
<polygon fill="green" stroke="green" stroke-width="0.32544" points="1019.43,-143.62 1026.09,-135.384 1015.75,-137.666 1019.43,-143.62"/>
</g>
<!-- Shares&#45;&gt;4626 -->
<g id="edge76" class="edge"><title>Shares&#45;&gt;4626</title>
<path fill="none" stroke="green" stroke-width="0.251587" d="M768.88,-186.242C833.673,-182.054 1036.11,-167.334 1096.75,-143.48 1098.62,-142.744 1100.49,-141.877 1102.32,-140.918"/>
<polygon fill="green" stroke="green" stroke-width="0.251587" points="1104.44,-143.727 1111.15,-135.531 1100.79,-137.751 1104.44,-143.727"/>
</g>
<!-- Shares&#45;&gt;4627 -->
<g id="edge77" class="edge"><title>Shares&#45;&gt;4627</title>
<path fill="none" stroke="red" stroke-width="0.23855" d="M728.59,-181.328C725.646,-180.602 722.635,-179.953 719.749,-179.48 436.856,-133.1 353.8,-213.242 75.7487,-143.48 68.8746,-141.756 61.7999,-139.101 55.1906,-136.181"/>
<polygon fill="red" stroke="red" stroke-width="0.23855" points="56.4539,-132.907 45.9179,-131.792 53.4593,-139.234 56.4539,-132.907"/>
</g>
<!-- Shares&#45;&gt;4628 -->
<g id="edge78" class="edge"><title>Shares&#45;&gt;4628</title>
<path fill="none" stroke="green" stroke-width="0.191043" d="M728.586,-181.35C725.643,-180.622 722.633,-179.966 719.749,-179.48 474.242,-138.161 401.965,-205.087 160.749,-143.48 153.882,-141.726 146.81,-139.059 140.202,-136.136"/>
<polygon fill="green" stroke="green" stroke-width="0.191043" points="141.465,-132.862 130.929,-131.749 138.471,-139.19 141.465,-132.862"/>
</g>
<!-- Shares&#45;&gt;4629 -->
<g id="edge79" class="edge"><title>Shares&#45;&gt;4629</title>
<path fill="none" stroke="red" stroke-width="0.127178" d="M728.581,-181.38C725.639,-180.647 722.63,-179.982 719.749,-179.48 511.61,-143.219 450.147,-196.937 245.749,-143.48 238.892,-141.687 231.825,-139.002 225.218,-136.076"/>
<polygon fill="red" stroke="red" stroke-width="0.127178" points="226.48,-132.801 215.944,-131.69 223.488,-139.129 226.48,-132.801"/>
</g>
<!-- Shares&#45;&gt;4630 -->
<g id="edge80" class="edge"><title>Shares&#45;&gt;4630</title>
<path fill="none" stroke="red" stroke-width="0.209575" d="M728.573,-181.424C725.632,-180.684 722.626,-180.006 719.749,-179.48 548.949,-148.272 498.359,-188.794 330.749,-143.48 323.907,-141.631 316.847,-138.921 310.241,-135.989"/>
<polygon fill="red" stroke="red" stroke-width="0.209575" points="311.503,-132.714 300.966,-131.606 308.512,-139.043 311.503,-132.714"/>
</g>
<!-- Shares&#45;&gt;4631 -->
<g id="edge81" class="edge"><title>Shares&#45;&gt;4631</title>
<path fill="none" stroke="red" stroke-width="0.267551" d="M728.56,-181.491C725.621,-180.742 722.619,-180.043 719.749,-179.48 586.233,-153.315 546.624,-180.666 415.749,-143.48 408.931,-141.543 401.881,-138.796 395.278,-135.854"/>
<polygon fill="red" stroke="red" stroke-width="0.267551" points="396.54,-132.579 386.003,-131.475 393.552,-138.909 396.54,-132.579"/>
</g>
<!-- Shares&#45;&gt;4632 -->
<g id="edge82" class="edge"><title>Shares&#45;&gt;4632</title>
<path fill="none" stroke="green" stroke-width="0.390274" d="M728.536,-181.609C725.6,-180.843 722.606,-180.107 719.749,-179.48 623.402,-158.335 595.001,-172.57 500.749,-143.48 494.102,-141.429 487.207,-138.681 480.715,-135.783"/>
<polygon fill="green" stroke="green" stroke-width="0.390274" points="482.109,-132.571 471.569,-131.492 479.136,-138.908 482.109,-132.571"/>
</g>
<!-- Shares&#45;&gt;4633 -->
<g id="edge83" class="edge"><title>Shares&#45;&gt;4633</title>
<path fill="none" stroke="green" stroke-width="0.187752" d="M728.472,-181.868C725.546,-181.064 722.571,-180.249 719.749,-179.48 660.247,-163.281 643.696,-164.575 585.749,-143.48 579.151,-141.078 572.237,-138.153 565.704,-135.187"/>
<polygon fill="green" stroke="green" stroke-width="0.187752" points="567.028,-131.942 556.488,-130.869 564.058,-138.281 567.028,-131.942"/>
</g>
<!-- Shares&#45;&gt;4634 -->
<g id="edge84" class="edge"><title>Shares&#45;&gt;4634</title>
<path fill="none" stroke="red" stroke-width="0.248839" d="M733.444,-179.443C713.116,-168.766 676.736,-149.66 650.597,-135.933"/>
<polygon fill="red" stroke="red" stroke-width="0.248839" points="651.96,-132.695 641.479,-131.144 648.705,-138.892 651.96,-132.695"/>
</g>
<!-- Money -->
<g id="node7" class="node"><title>Money</title>
<polygon fill="lightgray" stroke="black" points="433.749,-197.48 389.749,-197.48 389.749,-179.48 433.749,-179.48 433.749,-197.48"/>
<text text-anchor="middle" x="411.749" y="-186.28" font-family="Times New Roman,serif" font-size="9.00">Money</text>
</g>
<!-- Money&#45;&gt;4621 -->
<g id="edge85" class="edge"><title>Money&#45;&gt;4621</title>
<path fill="none" stroke="red" stroke-width="0.175547" d="M434.04,-181.453C436.959,-180.745 439.919,-180.066 442.749,-179.48 543.635,-158.584 576.452,-182.637 671.749,-143.48 673.609,-142.716 675.465,-141.827 677.293,-140.851"/>
<polygon fill="red" stroke="red" stroke-width="0.175547" points="679.43,-143.646 686.107,-135.42 675.757,-137.687 679.43,-143.646"/>
</g>
<!-- Money&#45;&gt;4622 -->
<g id="edge86" class="edge"><title>Money&#45;&gt;4622</title>
<path fill="none" stroke="green" stroke-width="0.190793" d="M434.017,-181.34C436.94,-180.65 439.907,-180.007 442.749,-179.48 580.864,-153.869 625.733,-194.142 756.749,-143.48 758.625,-142.755 760.493,-141.896 762.33,-140.944"/>
<polygon fill="green" stroke="green" stroke-width="0.190793" points="764.439,-143.758 771.168,-135.574 760.804,-137.775 764.439,-143.758"/>
</g>
<!-- Money&#45;&gt;4623 -->
<g id="edge87" class="edge"><title>Money&#45;&gt;4623</title>
<path fill="none" stroke="green" stroke-width="0.256201" d="M434.006,-181.275C436.931,-180.595 439.901,-179.973 442.749,-179.48 618.197,-149.134 674.915,-205.685 841.749,-143.48 843.634,-142.777 845.508,-141.937 847.35,-140.998"/>
<polygon fill="green" stroke="green" stroke-width="0.256201" points="849.443,-143.823 856.202,-135.664 845.831,-137.827 849.443,-143.823"/>
</g>
<!-- Money&#45;&gt;4624 -->
<g id="edge88" class="edge"><title>Money&#45;&gt;4624</title>
<path fill="none" stroke="green" stroke-width="0.244645" d="M433.998,-181.232C436.925,-180.56 439.897,-179.95 442.749,-179.48 655.581,-144.391 724.049,-217.247 926.749,-143.48 928.639,-142.792 930.518,-141.963 932.363,-141.033"/>
<polygon fill="green" stroke="green" stroke-width="0.244645" points="934.445,-143.866 941.224,-135.723 930.847,-137.861 934.445,-143.866"/>
</g>
<!-- Money&#45;&gt;4625 -->
<g id="edge89" class="edge"><title>Money&#45;&gt;4625</title>
<path fill="none" stroke="green" stroke-width="0.346679" d="M433.994,-181.202C436.921,-180.535 439.894,-179.935 442.749,-179.48 567.87,-159.562 892.453,-186.149 1011.75,-143.48 1013.64,-142.803 1015.52,-141.982 1017.37,-141.058"/>
<polygon fill="green" stroke="green" stroke-width="0.346679" points="1019.45,-143.896 1026.24,-135.764 1015.86,-137.885 1019.45,-143.896"/>
</g>
<!-- Money&#45;&gt;4626 -->
<g id="edge90" class="edge"><title>Money&#45;&gt;4626</title>
<path fill="none" stroke="green" stroke-width="0.310861" d="M433.99,-181.18C436.918,-180.516 439.893,-179.923 442.749,-179.48 586.585,-157.186 959.498,-191.937 1096.75,-143.48 1098.65,-142.811 1100.53,-141.996 1102.38,-141.076"/>
<polygon fill="green" stroke="green" stroke-width="0.310861" points="1104.45,-143.918 1111.25,-135.795 1100.87,-137.903 1104.45,-143.918"/>
</g>
<!-- Money&#45;&gt;4627 -->
<g id="edge91" class="edge"><title>Money&#45;&gt;4627</title>
<path fill="none" stroke="red" stroke-width="0.244816" d="M389.656,-186.906C335.219,-184.996 190.708,-176.912 75.7487,-143.48 68.9434,-141.501 61.8986,-138.736 55.2967,-135.789"/>
<polygon fill="red" stroke="red" stroke-width="0.244816" points="56.558,-132.515 46.0206,-131.413 53.5711,-138.845 56.558,-132.515"/>
</g>
<!-- Money&#45;&gt;4628 -->
<g id="edge92" class="edge"><title>Money&#45;&gt;4628</title>
<path fill="none" stroke="red" stroke-width="0.26458" d="M389.463,-185.551C345.077,-181.281 242.834,-169.293 160.749,-143.48 154.113,-141.394 147.222,-138.63 140.732,-135.727"/>
<polygon fill="red" stroke="red" stroke-width="0.26458" points="142.126,-132.515 131.586,-131.438 139.154,-138.853 142.126,-132.515"/>
</g>
<!-- Money&#45;&gt;4629 -->
<g id="edge93" class="edge"><title>Money&#45;&gt;4629</title>
<path fill="none" stroke="green" stroke-width="0.320809" d="M389.618,-182.923C357.435,-176.003 296.068,-161.703 245.749,-143.48 239.147,-141.089 232.231,-138.168 225.698,-135.204"/>
<polygon fill="green" stroke="green" stroke-width="0.320809" points="227.022,-131.959 216.482,-130.885 224.052,-138.298 227.022,-131.959"/>
</g>
<!-- Money&#45;&gt;4630 -->
<g id="edge94" class="edge"><title>Money&#45;&gt;4630</title>
<path fill="none" stroke="green" stroke-width="0.187871" d="M396.088,-179.443C375.074,-168.657 337.295,-149.267 310.495,-135.512"/>
<polygon fill="green" stroke="green" stroke-width="0.187871" points="312.013,-132.357 301.518,-130.905 308.817,-138.585 312.013,-132.357"/>
</g>
<!-- Money&#45;&gt;4631 -->
<g id="edge95" class="edge"><title>Money&#45;&gt;4631</title>
<path fill="none" stroke="green" stroke-width="0.309475" d="M406.173,-179.443C400.786,-171.678 392.306,-159.454 384.417,-148.083"/>
<polygon fill="green" stroke="green" stroke-width="0.309475" points="387.137,-145.863 378.561,-139.642 381.386,-149.853 387.137,-145.863"/>
</g>
<!-- Money&#45;&gt;4632 -->
<g id="edge96" class="edge"><title>Money&#45;&gt;4632</title>
<path fill="none" stroke="red" stroke-width="0.521299" d="M416.257,-179.443C420.404,-172.049 426.819,-160.613 432.929,-149.719"/>
<polygon fill="red" stroke="red" stroke-width="0.521299" points="436.093,-151.232 437.933,-140.798 429.988,-147.807 436.093,-151.232"/>
</g>
<!-- Money&#45;&gt;4633 -->
<g id="edge97" class="edge"><title>Money&#45;&gt;4633</title>
<path fill="none" stroke="green" stroke-width="0.318754" d="M430.5,-179.432C449.048,-171.215 478.019,-157.68 501.749,-143.48 503.43,-142.474 505.134,-141.408 506.836,-140.305"/>
<polygon fill="green" stroke="green" stroke-width="0.318754" points="508.918,-143.122 515.223,-134.607 504.984,-137.332 508.918,-143.122"/>
</g>
<!-- Money&#45;&gt;4634 -->
<g id="edge98" class="edge"><title>Money&#45;&gt;4634</title>
<path fill="none" stroke="red" stroke-width="0.420011" d="M433.759,-181.778C436.779,-181.002 439.84,-180.219 442.749,-179.48 506.688,-163.238 526.906,-171.244 586.749,-143.48 588.574,-142.634 590.401,-141.681 592.208,-140.657"/>
<polygon fill="red" stroke="red" stroke-width="0.420011" points="594.4,-143.411 600.965,-135.095 590.647,-137.502 594.4,-143.411"/>
</g>
<!-- Decide -->
<g id="node8" class="node"><title>Decide</title>
<ellipse fill="lightblue" stroke="black" cx="576.749" cy="-28.9914" rx="28.9828" ry="28.9828"/>
<text text-anchor="middle" x="576.749" y="-26.7914" font-family="Times New Roman,serif" font-size="9.00">Decide</text>
</g>
<!-- Decide&#45;&gt;Decide -->
<g id="edge113" class="edge"><title>Decide&#45;&gt;Decide</title>
<path fill="none" stroke="green" stroke-width="0.14728" d="M600.927,-45.004C612.985,-47.2195 623.74,-41.882 623.74,-28.9914 623.74,-19.9277 618.423,-14.5981 611.074,-13.0026"/>
<polygon fill="green" stroke="green" stroke-width="0.14728" points="610.935,-9.50239 600.927,-12.9788 610.918,-16.5024 610.935,-9.50239"/>
</g>
<!-- 4621&#45;&gt;Decide -->
<g id="edge99" class="edge"><title>4621&#45;&gt;Decide</title>
<path fill="none" stroke="red" stroke-width="0.312135" d="M684.926,-103.315C680.601,-100.211 676.035,-96.9677 671.749,-93.9828 651.04,-79.5615 627.518,-63.7132 609.06,-51.3964"/>
<polygon fill="red" stroke="red" stroke-width="0.312135" points="610.967,-48.4607 600.704,-45.8299 607.086,-54.2866 610.967,-48.4607"/>
</g>
<!-- 4621&#45;&gt;4621 -->
<g id="edge114" class="edge"><title>4621&#45;&gt;4621</title>
<path fill="none" stroke="red" stroke-width="0.188967" d="M726.304,-131.033C737.45,-132.926 747.497,-128.825 747.497,-118.731 747.497,-111.95 742.962,-107.873 736.605,-106.503"/>
<polygon fill="red" stroke="red" stroke-width="0.188967" points="736.329,-103.001 726.304,-106.43 736.279,-110 736.329,-103.001"/>
</g>
<!-- 4622&#45;&gt;Decide -->
<g id="edge100" class="edge"><title>4622&#45;&gt;Decide</title>
<path fill="none" stroke="red" stroke-width="0.398325" d="M770.795,-102.712C766.339,-99.5774 761.5,-96.4727 756.749,-93.9828 710.026,-69.4985 651.881,-50.7376 614.542,-40.0389"/>
<polygon fill="red" stroke="red" stroke-width="0.398325" points="615.163,-36.5778 604.588,-37.2371 613.266,-43.3159 615.163,-36.5778"/>
</g>
<!-- 4622&#45;&gt;4622 -->
<g id="edge115" class="edge"><title>4622&#45;&gt;4622</title>
<path fill="none" stroke="red" stroke-width="0.258593" d="M811.304,-131.033C822.45,-132.926 832.497,-128.825 832.497,-118.731 832.497,-111.95 827.962,-107.873 821.605,-106.503"/>
<polygon fill="red" stroke="red" stroke-width="0.258593" points="821.329,-103.001 811.304,-106.43 821.279,-110 821.329,-103.001"/>
</g>
<!-- 4623&#45;&gt;Decide -->
<g id="edge101" class="edge"><title>4623&#45;&gt;Decide</title>
<path fill="none" stroke="red" stroke-width="0.251273" d="M855.978,-102.339C851.513,-99.2232 846.624,-96.2209 841.749,-93.9828 765.938,-59.1803 668.905,-41.9673 615.806,-34.6202"/>
<polygon fill="red" stroke="red" stroke-width="0.251273" points="616.167,-31.1374 605.791,-33.2801 615.239,-38.0756 616.167,-31.1374"/>
</g>
<!-- 4623&#45;&gt;4623 -->
<g id="edge116" class="edge"><title>4623&#45;&gt;4623</title>
<path fill="none" stroke="red" stroke-width="0.333041" d="M896.304,-131.033C907.45,-132.926 917.497,-128.825 917.497,-118.731 917.497,-111.95 912.962,-107.873 906.605,-106.503"/>
<polygon fill="red" stroke="red" stroke-width="0.333041" points="906.329,-103.001 896.304,-106.43 906.279,-110 906.329,-103.001"/>
</g>
<!-- 4624&#45;&gt;Decide -->
<g id="edge102" class="edge"><title>4624&#45;&gt;Decide</title>
<path fill="none" stroke="red" stroke-width="0.153668" d="M941.068,-102.135C936.599,-99.0296 931.685,-96.0832 926.749,-93.9828 820.462,-48.7548 682.703,-35.4573 616.161,-31.5748"/>
<polygon fill="red" stroke="red" stroke-width="0.153668" points="616.284,-28.0764 606.109,-31.029 615.904,-35.0661 616.284,-28.0764"/>
</g>
<!-- 4624&#45;&gt;4624 -->
<g id="edge117" class="edge"><title>4624&#45;&gt;4624</title>
<path fill="none" stroke="red" stroke-width="0.219593" d="M981.304,-131.033C992.45,-132.926 1002.5,-128.825 1002.5,-118.731 1002.5,-111.95 997.962,-107.873 991.605,-106.503"/>
<polygon fill="red" stroke="red" stroke-width="0.219593" points="991.329,-103.001 981.304,-106.43 991.279,-110 991.329,-103.001"/>
</g>
<!-- 4625&#45;&gt;Decide -->
<g id="edge103" class="edge"><title>4625&#45;&gt;Decide</title>
<path fill="none" stroke="green" stroke-width="0.334562" d="M1026.12,-102.007C1021.65,-98.9085 1016.72,-95.9971 1011.75,-93.9828 874.244,-38.2743 694.794,-30.2701 616.348,-29.6454"/>
<polygon fill="green" stroke="green" stroke-width="0.334562" points="615.979,-26.1439 605.964,-29.602 615.95,-33.1438 615.979,-26.1439"/>
</g>
<!-- 4625&#45;&gt;4625 -->
<g id="edge118" class="edge"><title>4625&#45;&gt;4625</title>
<path fill="none" stroke="red" stroke-width="0.196833" d="M1066.3,-131.033C1077.45,-132.926 1087.5,-128.825 1087.5,-118.731 1087.5,-111.95 1082.96,-107.873 1076.61,-106.503"/>
<polygon fill="red" stroke="red" stroke-width="0.196833" points="1076.33,-103.001 1066.3,-106.43 1076.28,-110 1076.33,-103.001"/>
</g>
<!-- 4626&#45;&gt;Decide -->
<g id="edge104" class="edge"><title>4626&#45;&gt;Decide</title>
<path fill="none" stroke="red" stroke-width="0.119665" d="M1111.16,-101.92C1106.68,-98.8257 1101.74,-95.9382 1096.75,-93.9828 1008.82,-59.5629 721.488,-38.8831 616.024,-32.296"/>
<polygon fill="red" stroke="red" stroke-width="0.119665" points="616.014,-28.7888 605.817,-31.6672 615.583,-35.7756 616.014,-28.7888"/>
</g>
<!-- 4626&#45;&gt;4626 -->
<g id="edge119" class="edge"><title>4626&#45;&gt;4626</title>
<path fill="none" stroke="green" stroke-width="0.179811" d="M1151.3,-131.033C1162.45,-132.926 1172.5,-128.825 1172.5,-118.731 1172.5,-111.95 1167.96,-107.873 1161.61,-106.503"/>
<polygon fill="green" stroke="green" stroke-width="0.179811" points="1161.33,-103.001 1151.3,-106.43 1161.28,-110 1161.33,-103.001"/>
</g>
<!-- 4627&#45;&gt;Decide -->
<g id="edge105" class="edge"><title>4627&#45;&gt;Decide</title>
<path fill="none" stroke="red" stroke-width="0.280573" d="M46.016,-106.034C54.955,-101.597 65.6153,-96.9123 75.7487,-93.9828 242.934,-45.6506 452.02,-33.7977 537.548,-30.9113"/>
<polygon fill="red" stroke="red" stroke-width="0.280573" points="537.708,-34.4081 547.593,-30.595 537.488,-27.4116 537.708,-34.4081"/>
</g>
<!-- 4627&#45;&gt;4627 -->
<g id="edge120" class="edge"><title>4627&#45;&gt;4627</title>
<path fill="none" stroke="red" stroke-width="0.434254" d="M46.3044,-131.033C57.4504,-132.926 67.4975,-128.825 67.4975,-118.731 67.4975,-111.95 62.9621,-107.873 56.6052,-106.503"/>
<polygon fill="red" stroke="red" stroke-width="0.434254" points="56.329,-103.001 46.3044,-106.43 56.2794,-110 56.329,-103.001"/>
</g>
<!-- 4628&#45;&gt;Decide -->
<g id="edge106" class="edge"><title>4628&#45;&gt;Decide</title>
<path fill="none" stroke="green" stroke-width="0.31774" d="M131.553,-105.918C140.394,-101.573 150.841,-96.985 160.749,-93.9828 295.223,-53.2359 462.393,-37.5975 537.267,-32.3375"/>
<polygon fill="green" stroke="green" stroke-width="0.31774" points="537.889,-35.8035 547.63,-31.635 537.416,-28.8195 537.889,-35.8035"/>
</g>
<!-- 4628&#45;&gt;4628 -->
<g id="edge121" class="edge"><title>4628&#45;&gt;4628</title>
<path fill="none" stroke="red" stroke-width="0.356904" d="M131.304,-131.033C142.45,-132.926 152.497,-128.825 152.497,-118.731 152.497,-111.95 147.962,-107.873 141.605,-106.503"/>
<polygon fill="red" stroke="red" stroke-width="0.356904" points="141.329,-103.001 131.304,-106.43 141.279,-110 141.329,-103.001"/>
</g>
<!-- 4629&#45;&gt;Decide -->
<g id="edge107" class="edge"><title>4629&#45;&gt;Decide</title>
<path fill="none" stroke="green" stroke-width="0.285263" d="M216.614,-106.113C225.463,-101.795 235.9,-97.1744 245.749,-93.9828 348.385,-60.722 474.832,-42.182 537.584,-34.4084"/>
<polygon fill="green" stroke="green" stroke-width="0.285263" points="538.313,-37.8457 547.818,-33.1666 537.469,-30.8967 538.313,-37.8457"/>
</g>
<!-- 4629&#45;&gt;4629 -->
<g id="edge122" class="edge"><title>4629&#45;&gt;4629</title>
<path fill="none" stroke="green" stroke-width="0.138013" d="M216.304,-131.033C227.45,-132.926 237.497,-128.825 237.497,-118.731 237.497,-111.95 232.962,-107.873 226.605,-106.503"/>
<polygon fill="green" stroke="green" stroke-width="0.138013" points="226.329,-103.001 216.304,-106.43 226.279,-110 226.329,-103.001"/>
</g>
<!-- 4630&#45;&gt;Decide -->
<g id="edge108" class="edge"><title>4630&#45;&gt;Decide</title>
<path fill="none" stroke="red" stroke-width="0.288361" d="M301.473,-106.555C310.391,-102.248 320.914,-97.5186 330.749,-93.9828 402.472,-68.1956 489.39,-48.0766 538.353,-37.7152"/>
<polygon fill="red" stroke="red" stroke-width="0.288361" points="539.135,-41.1275 548.206,-35.6538 537.701,-34.2759 539.135,-41.1275"/>
</g>
<!-- 4630&#45;&gt;4630 -->
<g id="edge123" class="edge"><title>4630&#45;&gt;4630</title>
<path fill="none" stroke="green" stroke-width="0.19918" d="M301.304,-131.033C312.45,-132.926 322.497,-128.825 322.497,-118.731 322.497,-111.95 317.962,-107.873 311.605,-106.503"/>
<polygon fill="green" stroke="green" stroke-width="0.19918" points="311.329,-103.001 301.304,-106.43 311.279,-110 311.329,-103.001"/>
</g>
<!-- 4631&#45;&gt;Decide -->
<g id="edge109" class="edge"><title>4631&#45;&gt;Decide</title>
<path fill="none" stroke="green" stroke-width="0.103655" d="M386.715,-107.166C395.668,-102.948 406.152,-98.1203 415.749,-93.9828 458.051,-75.7444 507.363,-56.4249 540.156,-43.8458"/>
<polygon fill="green" stroke="green" stroke-width="0.103655" points="541.687,-47.0078 549.777,-40.1669 539.186,-40.4695 541.687,-47.0078"/>
</g>
<!-- 4631&#45;&gt;4631 -->
<g id="edge124" class="edge"><title>4631&#45;&gt;4631</title>
<path fill="none" stroke="red" stroke-width="0.175791" d="M386.304,-131.033C397.45,-132.926 407.497,-128.825 407.497,-118.731 407.497,-111.95 402.962,-107.873 396.605,-106.503"/>
<polygon fill="red" stroke="red" stroke-width="0.175791" points="396.329,-103.001 386.304,-106.43 396.279,-110 396.329,-103.001"/>
</g>
<!-- 4632&#45;&gt;Decide -->
<g id="edge110" class="edge"><title>4632&#45;&gt;Decide</title>
<path fill="none" stroke="green" stroke-width="0.229101" d="M469.872,-103.829C490.055,-89.8852 521.436,-68.2048 544.983,-51.9376"/>
<polygon fill="green" stroke="green" stroke-width="0.229101" points="547.03,-54.7775 553.268,-46.2137 543.051,-49.0182 547.03,-54.7775"/>
</g>
<!-- 4632&#45;&gt;4632 -->
<g id="edge125" class="edge"><title>4632&#45;&gt;4632</title>
<path fill="none" stroke="green" stroke-width="0.167221" d="M471.304,-131.033C482.45,-132.926 492.497,-128.825 492.497,-118.731 492.497,-111.95 487.962,-107.873 481.605,-106.503"/>
<polygon fill="green" stroke="green" stroke-width="0.167221" points="481.329,-103.001 471.304,-106.43 481.279,-110 481.329,-103.001"/>
</g>
<!-- 4633&#45;&gt;Decide -->
<g id="edge111" class="edge"><title>4633&#45;&gt;Decide</title>
<path fill="none" stroke="red" stroke-width="0.187104" d="M545.131,-96.0429C549.678,-86.5445 555.125,-75.1636 560.208,-64.5459"/>
<polygon fill="red" stroke="red" stroke-width="0.187104" points="563.388,-66.0092 564.549,-55.4781 557.074,-62.9868 563.388,-66.0092"/>
</g>
<!-- 4633&#45;&gt;4633 -->
<g id="edge126" class="edge"><title>4633&#45;&gt;4633</title>
<path fill="none" stroke="red" stroke-width="0.139094" d="M556.304,-131.033C567.45,-132.926 577.497,-128.825 577.497,-118.731 577.497,-111.95 572.962,-107.873 566.605,-106.503"/>
<polygon fill="red" stroke="red" stroke-width="0.139094" points="566.329,-103.001 556.304,-106.43 566.279,-110 566.329,-103.001"/>
</g>
<!-- 4634&#45;&gt;Decide -->
<g id="edge112" class="edge"><title>4634&#45;&gt;Decide</title>
<path fill="none" stroke="red" stroke-width="0.22396" d="M609.12,-96.0429C604.465,-86.5445 598.887,-75.1636 593.683,-64.5459"/>
<polygon fill="red" stroke="red" stroke-width="0.22396" points="596.783,-62.9174 589.239,-55.4781 590.497,-65.998 596.783,-62.9174"/>
</g>
<!-- 4634&#45;&gt;4634 -->
<g id="edge127" class="edge"><title>4634&#45;&gt;4634</title>
<path fill="none" stroke="red" stroke-width="0.110767" d="M641.304,-131.033C652.45,-132.926 662.497,-128.825 662.497,-118.731 662.497,-111.95 657.962,-107.873 651.605,-106.503"/>
<polygon fill="red" stroke="red" stroke-width="0.110767" points="651.329,-103.001 641.304,-106.43 651.279,-110 651.329,-103.001"/>
</g>
</g>
</svg>
